# Blender 5.1.0
# www.blender.org
mtllib Cutie.mtl
o Cutie
v -0.500000 0.000000 0.500000
v -0.500000 0.100000 0.500000
v -0.500000 0.100000 0.400000
v -0.500000 0.000000 0.400000
v -0.500000 0.100000 0.300000
v -0.500000 0.000000 0.300000
v -0.500000 0.100000 0.200000
v -0.500000 0.000000 0.200000
v -0.500000 0.100000 0.100000
v -0.500000 0.000000 0.100000
v -0.500000 0.100000 0.000000
v -0.500000 0.000000 0.000000
v -0.500000 0.100000 -0.100000
v -0.500000 0.000000 -0.100000
v -0.500000 0.100000 -0.200000
v -0.500000 0.000000 -0.200000
v -0.500000 0.100000 -0.300000
v -0.500000 0.000000 -0.300000
v -0.500000 0.100000 -0.400000
v -0.500000 0.000000 -0.400000
v -0.500000 0.100000 -0.500000
v -0.500000 0.000000 -0.500000
v -0.500000 0.200000 0.500000
v -0.500000 0.200000 0.400000
v 0.300000 0.100000 0.500000
v 0.300000 0.200000 0.500000
v 0.300000 0.200000 0.400000
v 0.300000 0.100000 0.400000
v -0.500000 0.200000 0.300000
v -0.400000 0.100000 0.300000
v -0.400000 0.200000 0.300000
v -0.400000 0.200000 0.200000
v -0.400000 0.100000 0.200000
v -0.400000 0.200000 0.100000
v -0.400000 0.100000 0.100000
v -0.400000 0.200000 0.000000
v -0.400000 0.100000 0.000000
v -0.400000 0.200000 -0.100000
v -0.400000 0.100000 -0.100000
v -0.400000 0.200000 -0.200000
v -0.400000 0.100000 -0.200000
v -0.400000 0.200000 -0.300000
v -0.400000 0.100000 -0.300000
v -0.500000 0.200000 -0.300000
v -0.500000 0.200000 -0.400000
v -0.500000 0.200000 -0.500000
v 0.300000 0.100000 -0.400000
v 0.300000 0.200000 -0.400000
v 0.300000 0.200000 -0.500000
v 0.300000 0.100000 -0.500000
v -0.500000 0.300000 0.500000
v -0.500000 0.300000 0.400000
v 0.400000 0.200000 0.500000
v 0.400000 0.300000 0.500000
v 0.400000 0.300000 0.400000
v 0.400000 0.200000 0.400000
v -0.400000 0.200000 0.400000
v -0.400000 0.300000 0.400000
v -0.400000 0.300000 0.300000
v -0.400000 0.300000 0.200000
v -0.400000 0.300000 0.100000
v -0.400000 0.300000 0.000000
v -0.400000 0.300000 -0.100000
v -0.400000 0.300000 -0.200000
v -0.400000 0.300000 -0.300000
v -0.400000 0.300000 -0.400000
v -0.400000 0.200000 -0.400000
v -0.500000 0.300000 -0.400000
v -0.500000 0.300000 -0.500000
v 0.400000 0.200000 -0.400000
v 0.400000 0.300000 -0.400000
v 0.400000 0.300000 -0.500000
v 0.400000 0.200000 -0.500000
v -0.500000 0.400000 0.500000
v -0.500000 0.400000 0.400000
v 0.400000 0.400000 0.500000
v 0.400000 0.400000 0.400000
v -0.400000 0.400000 0.400000
v -0.400000 0.400000 0.300000
v -0.400000 0.400000 0.200000
v -0.400000 0.400000 0.100000
v -0.400000 0.400000 0.000000
v -0.400000 0.400000 -0.100000
v -0.400000 0.400000 -0.200000
v -0.400000 0.400000 -0.300000
v -0.400000 0.400000 -0.400000
v -0.500000 0.400000 -0.400000
v -0.500000 0.400000 -0.500000
v 0.400000 0.400000 -0.400000
v 0.400000 0.400000 -0.500000
v -0.500000 0.500000 0.500000
v -0.500000 0.500000 0.400000
v 0.400000 0.500000 0.500000
v 0.400000 0.500000 0.400000
v -0.400000 0.500000 0.400000
v -0.400000 0.500000 0.300000
v -0.400000 0.500000 0.200000
v -0.400000 0.500000 0.100000
v -0.400000 0.500000 0.000000
v -0.400000 0.500000 -0.100000
v -0.400000 0.500000 -0.200000
v -0.400000 0.500000 -0.300000
v -0.400000 0.500000 -0.400000
v -0.500000 0.500000 -0.400000
v -0.500000 0.500000 -0.500000
v 0.400000 0.500000 -0.400000
v 0.400000 0.500000 -0.500000
v -0.500000 0.600000 0.500000
v -0.500000 0.600000 0.400000
v 0.400000 0.600000 0.500000
v 0.400000 0.600000 0.400000
v -0.400000 0.600000 0.400000
v -0.400000 0.600000 0.300000
v -0.400000 0.600000 0.200000
v -0.400000 0.600000 0.100000
v -0.400000 0.600000 0.000000
v -0.400000 0.600000 -0.100000
v -0.400000 0.600000 -0.200000
v -0.400000 0.600000 -0.300000
v -0.400000 0.600000 -0.400000
v -0.500000 0.600000 -0.400000
v -0.500000 0.600000 -0.500000
v 0.400000 0.600000 -0.400000
v 0.400000 0.600000 -0.500000
v -0.500000 0.700000 0.500000
v -0.500000 0.700000 0.400000
v 0.400000 0.700000 0.500000
v 0.400000 0.700000 0.400000
v -0.400000 0.700000 0.400000
v -0.400000 0.700000 0.300000
v -0.400000 0.700000 0.200000
v -0.400000 0.700000 0.100000
v -0.400000 0.700000 0.000000
v -0.400000 0.700000 -0.100000
v -0.400000 0.700000 -0.200000
v -0.400000 0.700000 -0.300000
v -0.400000 0.700000 -0.400000
v -0.500000 0.700000 -0.400000
v -0.500000 0.700000 -0.500000
v 0.400000 0.700000 -0.400000
v 0.400000 0.700000 -0.500000
v -0.500000 0.800000 0.500000
v -0.500000 0.800000 0.400000
v 0.400000 0.800000 0.500000
v 0.400000 0.800000 0.400000
v -0.400000 0.800000 0.400000
v -0.400000 0.800000 0.300000
v -0.400000 0.800000 0.200000
v -0.400000 0.800000 0.100000
v -0.400000 0.800000 0.000000
v -0.400000 0.800000 -0.100000
v -0.400000 0.800000 -0.200000
v -0.400000 0.800000 -0.300000
v -0.400000 0.800000 -0.400000
v -0.500000 0.800000 -0.400000
v -0.500000 0.800000 -0.500000
v 0.400000 0.800000 -0.400000
v 0.400000 0.800000 -0.500000
v -0.500000 0.900000 0.500000
v -0.500000 0.900000 0.400000
v 0.300000 0.800000 0.500000
v 0.300000 0.900000 0.500000
v 0.300000 0.900000 0.400000
v 0.300000 0.800000 0.400000
v -0.500000 0.900000 0.300000
v -0.500000 0.800000 0.300000
v -0.400000 0.900000 0.300000
v -0.400000 0.900000 0.200000
v -0.400000 0.900000 0.100000
v -0.400000 0.900000 0.000000
v -0.400000 0.900000 -0.100000
v -0.400000 0.900000 -0.200000
v -0.400000 0.900000 -0.300000
v -0.500000 0.800000 -0.300000
v -0.500000 0.900000 -0.300000
v -0.500000 0.900000 -0.400000
v -0.500000 0.900000 -0.500000
v 0.300000 0.800000 -0.400000
v 0.300000 0.900000 -0.400000
v 0.300000 0.900000 -0.500000
v 0.300000 0.800000 -0.500000
v -0.500000 1.000000 0.500000
v -0.500000 1.000000 0.400000
v -0.500000 1.000000 0.300000
v 0.300000 1.000000 0.400000
v 0.300000 1.000000 0.300000
v 0.300000 0.900000 0.300000
v -0.500000 1.000000 0.200000
v -0.500000 0.900000 0.200000
v 0.400000 0.900000 0.300000
v 0.400000 1.000000 0.300000
v 0.400000 1.000000 0.200000
v 0.400000 0.900000 0.200000
v -0.500000 1.000000 0.100000
v -0.500000 0.900000 0.100000
v 0.400000 1.000000 0.100000
v 0.400000 0.900000 0.100000
v -0.500000 1.000000 0.000000
v -0.500000 0.900000 0.000000
v 0.400000 1.000000 0.000000
v 0.400000 0.900000 0.000000
v -0.500000 1.000000 -0.100000
v -0.500000 0.900000 -0.100000
v 0.400000 1.000000 -0.100000
v 0.400000 0.900000 -0.100000
v -0.500000 1.000000 -0.200000
v -0.500000 0.900000 -0.200000
v 0.400000 1.000000 -0.200000
v 0.400000 0.900000 -0.200000
v -0.500000 1.000000 -0.300000
v 0.400000 1.000000 -0.300000
v 0.400000 0.900000 -0.300000
v -0.500000 1.000000 -0.400000
v 0.300000 0.900000 -0.300000
v 0.300000 1.000000 -0.300000
v 0.300000 1.000000 -0.400000
v -0.500000 1.000000 -0.500000
v 0.500000 0.000000 0.500000
v 0.500000 0.000000 0.400000
v 0.500000 0.100000 0.400000
v 0.500000 0.100000 0.500000
v 0.500000 0.000000 0.300000
v 0.500000 0.100000 0.300000
v 0.500000 0.000000 0.200000
v 0.500000 0.100000 0.200000
v 0.500000 0.000000 0.100000
v 0.500000 0.100000 0.100000
v 0.500000 0.000000 0.000000
v 0.500000 0.100000 0.000000
v 0.500000 0.000000 -0.100000
v 0.500000 0.100000 -0.100000
v 0.500000 0.000000 -0.200000
v 0.500000 0.100000 -0.200000
v 0.500000 0.000000 -0.300000
v 0.500000 0.100000 -0.300000
v 0.500000 0.000000 -0.400000
v 0.500000 0.100000 -0.400000
v 0.500000 0.000000 -0.500000
v 0.500000 0.100000 -0.500000
v -0.300000 0.100000 0.500000
v -0.300000 0.100000 0.400000
v -0.300000 0.200000 0.400000
v -0.300000 0.200000 0.500000
v 0.500000 0.200000 0.400000
v 0.500000 0.200000 0.500000
v 0.500000 0.200000 0.300000
v 0.400000 0.100000 0.300000
v 0.400000 0.100000 0.200000
v 0.400000 0.200000 0.200000
v 0.400000 0.200000 0.300000
v 0.400000 0.100000 0.100000
v 0.400000 0.200000 0.100000
v 0.400000 0.100000 0.000000
v 0.400000 0.200000 0.000000
v 0.400000 0.100000 -0.100000
v 0.400000 0.200000 -0.100000
v 0.400000 0.100000 -0.200000
v 0.400000 0.200000 -0.200000
v 0.400000 0.100000 -0.300000
v 0.400000 0.200000 -0.300000
v 0.500000 0.200000 -0.400000
v 0.500000 0.200000 -0.300000
v -0.300000 0.100000 -0.400000
v -0.300000 0.100000 -0.500000
v -0.300000 0.200000 -0.500000
v -0.300000 0.200000 -0.400000
v 0.500000 0.200000 -0.500000
v -0.400000 0.200000 0.500000
v -0.400000 0.300000 0.500000
v 0.500000 0.300000 0.400000
v 0.500000 0.300000 0.500000
v 0.400000 0.300000 0.300000
v 0.400000 0.300000 0.200000
v 0.400000 0.300000 0.100000
v 0.400000 0.300000 0.000000
v 0.400000 0.300000 -0.100000
v 0.400000 0.300000 -0.200000
v 0.400000 0.300000 -0.300000
v -0.400000 0.200000 -0.500000
v -0.400000 0.300000 -0.500000
v 0.500000 0.300000 -0.500000
v 0.500000 0.300000 -0.400000
v -0.400000 0.400000 0.500000
v 0.500000 0.400000 0.400000
v 0.500000 0.400000 0.500000
v 0.400000 0.400000 0.300000
v 0.400000 0.400000 0.200000
v 0.400000 0.400000 0.100000
v 0.400000 0.400000 0.000000
v 0.400000 0.400000 -0.100000
v 0.400000 0.400000 -0.200000
v 0.400000 0.400000 -0.300000
v -0.400000 0.400000 -0.500000
v 0.500000 0.400000 -0.500000
v 0.500000 0.400000 -0.400000
v -0.400000 0.500000 0.500000
v 0.500000 0.500000 0.400000
v 0.500000 0.500000 0.500000
v 0.400000 0.500000 0.300000
v 0.400000 0.500000 0.200000
v 0.400000 0.500000 0.100000
v 0.400000 0.500000 0.000000
v 0.400000 0.500000 -0.100000
v 0.400000 0.500000 -0.200000
v 0.400000 0.500000 -0.300000
v -0.400000 0.500000 -0.500000
v 0.500000 0.500000 -0.500000
v 0.500000 0.500000 -0.400000
v -0.400000 0.600000 0.500000
v 0.500000 0.600000 0.400000
v 0.500000 0.600000 0.500000
v 0.400000 0.600000 0.300000
v 0.400000 0.600000 0.200000
v 0.400000 0.600000 0.100000
v 0.400000 0.600000 0.000000
v 0.400000 0.600000 -0.100000
v 0.400000 0.600000 -0.200000
v 0.400000 0.600000 -0.300000
v -0.400000 0.600000 -0.500000
v 0.500000 0.600000 -0.500000
v 0.500000 0.600000 -0.400000
v -0.400000 0.700000 0.500000
v 0.500000 0.700000 0.400000
v 0.500000 0.700000 0.500000
v 0.400000 0.700000 0.300000
v 0.400000 0.700000 0.200000
v 0.400000 0.700000 0.100000
v 0.400000 0.700000 0.000000
v 0.400000 0.700000 -0.100000
v 0.400000 0.700000 -0.200000
v 0.400000 0.700000 -0.300000
v -0.400000 0.700000 -0.500000
v 0.500000 0.700000 -0.500000
v 0.500000 0.700000 -0.400000
v -0.400000 0.800000 0.500000
v 0.500000 0.800000 0.400000
v 0.500000 0.800000 0.500000
v 0.400000 0.800000 0.300000
v 0.400000 0.800000 0.200000
v 0.400000 0.800000 0.100000
v 0.400000 0.800000 0.000000
v 0.400000 0.800000 -0.100000
v 0.400000 0.800000 -0.200000
v 0.400000 0.800000 -0.300000
v -0.400000 0.800000 -0.500000
v 0.500000 0.800000 -0.500000
v 0.500000 0.800000 -0.400000
v -0.300000 0.800000 0.500000
v -0.300000 0.800000 0.400000
v -0.300000 0.900000 0.400000
v -0.300000 0.900000 0.500000
v 0.500000 0.900000 0.400000
v 0.500000 0.900000 0.500000
v 0.500000 0.800000 0.300000
v 0.500000 0.900000 0.300000
v 0.500000 0.800000 -0.300000
v 0.500000 0.900000 -0.400000
v 0.500000 0.900000 -0.300000
v -0.300000 0.800000 -0.400000
v -0.300000 0.800000 -0.500000
v -0.300000 0.900000 -0.500000
v -0.300000 0.900000 -0.400000
v 0.500000 0.900000 -0.500000
v 0.500000 1.000000 0.400000
v 0.500000 1.000000 0.500000
v -0.300000 0.900000 0.300000
v -0.300000 1.000000 0.300000
v -0.300000 1.000000 0.400000
v 0.500000 1.000000 0.300000
v -0.400000 1.000000 0.200000
v -0.400000 1.000000 0.300000
v 0.500000 0.900000 0.200000
v 0.500000 1.000000 0.200000
v -0.400000 1.000000 0.100000
v 0.500000 0.900000 0.100000
v 0.500000 1.000000 0.100000
v -0.400000 1.000000 0.000000
v 0.500000 0.900000 0.000000
v 0.500000 1.000000 0.000000
v -0.400000 1.000000 -0.100000
v 0.500000 0.900000 -0.100000
v 0.500000 1.000000 -0.100000
v -0.400000 1.000000 -0.200000
v 0.500000 0.900000 -0.200000
v 0.500000 1.000000 -0.200000
v -0.400000 1.000000 -0.300000
v 0.500000 1.000000 -0.300000
v -0.300000 0.900000 -0.300000
v -0.300000 1.000000 -0.400000
v -0.300000 1.000000 -0.300000
v 0.500000 1.000000 -0.400000
v 0.500000 1.000000 -0.500000
v -0.400000 0.000000 0.500000
v -0.400000 0.100000 0.500000
v -0.300000 0.000000 0.500000
v -0.200000 0.000000 0.500000
v -0.200000 0.100000 0.500000
v -0.100000 0.000000 0.500000
v -0.100000 0.100000 0.500000
v 0.000000 0.000000 0.500000
v 0.000000 0.100000 0.500000
v 0.100000 0.000000 0.500000
v 0.100000 0.100000 0.500000
v 0.200000 0.000000 0.500000
v 0.200000 0.100000 0.500000
v 0.300000 0.000000 0.500000
v 0.400000 0.000000 0.500000
v 0.400000 0.100000 0.500000
v -0.200000 0.100000 0.400000
v -0.200000 0.200000 0.400000
v -0.100000 0.100000 0.400000
v -0.100000 0.200000 0.400000
v 0.000000 0.100000 0.400000
v 0.000000 0.200000 0.400000
v 0.100000 0.100000 0.400000
v 0.100000 0.200000 0.400000
v 0.200000 0.100000 0.400000
v 0.200000 0.200000 0.400000
v -0.300000 0.300000 0.400000
v -0.200000 0.300000 0.400000
v -0.100000 0.300000 0.400000
v 0.000000 0.300000 0.400000
v 0.100000 0.300000 0.400000
v 0.200000 0.300000 0.400000
v 0.300000 0.300000 0.400000
v -0.300000 0.400000 0.400000
v -0.200000 0.400000 0.400000
v -0.100000 0.400000 0.400000
v 0.000000 0.400000 0.400000
v 0.100000 0.400000 0.400000
v 0.200000 0.400000 0.400000
v 0.300000 0.400000 0.400000
v -0.300000 0.500000 0.400000
v -0.200000 0.500000 0.400000
v -0.100000 0.500000 0.400000
v 0.000000 0.500000 0.400000
v 0.100000 0.500000 0.400000
v 0.200000 0.500000 0.400000
v 0.300000 0.500000 0.400000
v -0.300000 0.600000 0.400000
v -0.200000 0.600000 0.400000
v -0.100000 0.600000 0.400000
v 0.000000 0.600000 0.400000
v 0.100000 0.600000 0.400000
v 0.200000 0.600000 0.400000
v 0.300000 0.600000 0.400000
v -0.300000 0.700000 0.400000
v -0.200000 0.700000 0.400000
v -0.100000 0.700000 0.400000
v 0.000000 0.700000 0.400000
v 0.100000 0.700000 0.400000
v 0.200000 0.700000 0.400000
v 0.300000 0.700000 0.400000
v -0.200000 0.800000 0.400000
v -0.100000 0.800000 0.400000
v 0.000000 0.800000 0.400000
v 0.100000 0.800000 0.400000
v 0.200000 0.800000 0.400000
v -0.400000 0.900000 0.500000
v 0.400000 0.900000 0.500000
v -0.200000 0.900000 0.400000
v -0.100000 0.900000 0.400000
v 0.000000 0.900000 0.400000
v 0.100000 0.900000 0.400000
v 0.200000 0.900000 0.400000
v -0.400000 1.000000 0.500000
v -0.300000 1.000000 0.500000
v -0.200000 0.900000 0.500000
v -0.200000 1.000000 0.500000
v -0.100000 0.900000 0.500000
v -0.100000 1.000000 0.500000
v 0.000000 0.900000 0.500000
v 0.000000 1.000000 0.500000
v 0.100000 0.900000 0.500000
v 0.100000 1.000000 0.500000
v 0.200000 0.900000 0.500000
v 0.200000 1.000000 0.500000
v 0.300000 1.000000 0.500000
v 0.400000 1.000000 0.500000
v -0.200000 0.900000 -0.400000
v -0.200000 1.000000 -0.400000
v -0.100000 0.900000 -0.400000
v -0.100000 1.000000 -0.400000
v 0.000000 0.900000 -0.400000
v 0.000000 1.000000 -0.400000
v 0.100000 0.900000 -0.400000
v 0.100000 1.000000 -0.400000
v 0.200000 0.900000 -0.400000
v 0.200000 1.000000 -0.400000
v -0.400000 0.100000 -0.500000
v -0.400000 0.000000 -0.500000
v -0.300000 0.000000 -0.500000
v -0.200000 0.100000 -0.500000
v -0.200000 0.000000 -0.500000
v -0.100000 0.100000 -0.500000
v -0.100000 0.000000 -0.500000
v 0.000000 0.100000 -0.500000
v 0.000000 0.000000 -0.500000
v 0.100000 0.100000 -0.500000
v 0.100000 0.000000 -0.500000
v 0.200000 0.100000 -0.500000
v 0.200000 0.000000 -0.500000
v 0.300000 0.000000 -0.500000
v 0.400000 0.100000 -0.500000
v 0.400000 0.000000 -0.500000
v -0.200000 0.200000 -0.400000
v -0.200000 0.100000 -0.400000
v -0.100000 0.200000 -0.400000
v -0.100000 0.100000 -0.400000
v 0.000000 0.200000 -0.400000
v 0.000000 0.100000 -0.400000
v 0.100000 0.200000 -0.400000
v 0.100000 0.100000 -0.400000
v 0.200000 0.200000 -0.400000
v 0.200000 0.100000 -0.400000
v -0.300000 0.300000 -0.400000
v -0.200000 0.300000 -0.400000
v -0.100000 0.300000 -0.400000
v 0.000000 0.300000 -0.400000
v 0.100000 0.300000 -0.400000
v 0.200000 0.300000 -0.400000
v 0.300000 0.300000 -0.400000
v -0.300000 0.400000 -0.400000
v -0.200000 0.400000 -0.400000
v -0.100000 0.400000 -0.400000
v 0.000000 0.400000 -0.400000
v 0.100000 0.400000 -0.400000
v 0.200000 0.400000 -0.400000
v 0.300000 0.400000 -0.400000
v -0.300000 0.500000 -0.400000
v -0.200000 0.500000 -0.400000
v -0.100000 0.500000 -0.400000
v 0.000000 0.500000 -0.400000
v 0.100000 0.500000 -0.400000
v 0.200000 0.500000 -0.400000
v 0.300000 0.500000 -0.400000
v -0.300000 0.600000 -0.400000
v -0.200000 0.600000 -0.400000
v -0.100000 0.600000 -0.400000
v 0.000000 0.600000 -0.400000
v 0.100000 0.600000 -0.400000
v 0.200000 0.600000 -0.400000
v 0.300000 0.600000 -0.400000
v -0.300000 0.700000 -0.400000
v -0.200000 0.700000 -0.400000
v -0.100000 0.700000 -0.400000
v 0.000000 0.700000 -0.400000
v 0.100000 0.700000 -0.400000
v 0.200000 0.700000 -0.400000
v 0.300000 0.700000 -0.400000
v -0.200000 0.800000 -0.400000
v -0.100000 0.800000 -0.400000
v 0.000000 0.800000 -0.400000
v 0.100000 0.800000 -0.400000
v 0.200000 0.800000 -0.400000
v -0.400000 0.900000 -0.500000
v 0.400000 0.900000 -0.500000
v -0.200000 1.000000 0.400000
v -0.100000 1.000000 0.400000
v 0.000000 1.000000 0.400000
v 0.100000 1.000000 0.400000
v 0.200000 1.000000 0.400000
v -0.400000 1.000000 -0.500000
v -0.300000 1.000000 -0.500000
v -0.200000 1.000000 -0.500000
v -0.200000 0.900000 -0.500000
v -0.100000 1.000000 -0.500000
v -0.100000 0.900000 -0.500000
v 0.000000 1.000000 -0.500000
v 0.000000 0.900000 -0.500000
v 0.100000 1.000000 -0.500000
v 0.100000 0.900000 -0.500000
v 0.200000 1.000000 -0.500000
v 0.200000 0.900000 -0.500000
v 0.300000 1.000000 -0.500000
v 0.400000 1.000000 -0.500000
v -0.400000 0.000000 0.400000
v -0.300000 0.000000 0.400000
v -0.200000 0.000000 0.400000
v -0.100000 0.000000 0.400000
v 0.000000 0.000000 0.400000
v 0.100000 0.000000 0.400000
v 0.200000 0.000000 0.400000
v 0.300000 0.000000 0.400000
v 0.400000 0.000000 0.400000
v -0.400000 0.000000 0.300000
v -0.300000 0.000000 0.300000
v -0.200000 0.000000 0.300000
v -0.100000 0.000000 0.300000
v 0.000000 0.000000 0.300000
v 0.100000 0.000000 0.300000
v 0.200000 0.000000 0.300000
v 0.300000 0.000000 0.300000
v 0.400000 0.000000 0.300000
v -0.400000 0.000000 0.200000
v -0.300000 0.000000 0.200000
v -0.200000 0.000000 0.200000
v -0.100000 0.000000 0.200000
v 0.000000 0.000000 0.200000
v 0.100000 0.000000 0.200000
v 0.200000 0.000000 0.200000
v 0.300000 0.000000 0.200000
v 0.400000 0.000000 0.200000
v -0.400000 0.000000 0.100000
v -0.300000 0.000000 0.100000
v -0.200000 0.000000 0.100000
v -0.100000 0.000000 0.100000
v 0.000000 0.000000 0.100000
v 0.100000 0.000000 0.100000
v 0.200000 0.000000 0.100000
v 0.300000 0.000000 0.100000
v 0.400000 0.000000 0.100000
v -0.400000 0.000000 0.000000
v -0.300000 0.000000 0.000000
v -0.200000 0.000000 0.000000
v -0.100000 0.000000 0.000000
v 0.000000 0.000000 0.000000
v 0.100000 0.000000 0.000000
v 0.200000 0.000000 0.000000
v 0.300000 0.000000 0.000000
v 0.400000 0.000000 0.000000
v -0.400000 0.000000 -0.100000
v -0.300000 0.000000 -0.100000
v -0.200000 0.000000 -0.100000
v -0.100000 0.000000 -0.100000
v 0.000000 0.000000 -0.100000
v 0.100000 0.000000 -0.100000
v 0.200000 0.000000 -0.100000
v 0.300000 0.000000 -0.100000
v 0.400000 0.000000 -0.100000
v -0.400000 0.000000 -0.200000
v -0.300000 0.000000 -0.200000
v -0.200000 0.000000 -0.200000
v -0.100000 0.000000 -0.200000
v 0.000000 0.000000 -0.200000
v 0.100000 0.000000 -0.200000
v 0.200000 0.000000 -0.200000
v 0.300000 0.000000 -0.200000
v 0.400000 0.000000 -0.200000
v -0.400000 0.000000 -0.300000
v -0.300000 0.000000 -0.300000
v -0.200000 0.000000 -0.300000
v -0.100000 0.000000 -0.300000
v 0.000000 0.000000 -0.300000
v 0.100000 0.000000 -0.300000
v 0.200000 0.000000 -0.300000
v 0.300000 0.000000 -0.300000
v 0.400000 0.000000 -0.300000
v -0.400000 0.000000 -0.400000
v -0.300000 0.000000 -0.400000
v -0.200000 0.000000 -0.400000
v -0.100000 0.000000 -0.400000
v 0.000000 0.000000 -0.400000
v 0.100000 0.000000 -0.400000
v 0.200000 0.000000 -0.400000
v 0.300000 0.000000 -0.400000
v 0.400000 0.000000 -0.400000
v -0.200000 0.900000 0.300000
v -0.100000 0.900000 0.300000
v 0.000000 0.900000 0.300000
v 0.100000 0.900000 0.300000
v 0.200000 0.900000 0.300000
v -0.300000 0.900000 0.200000
v -0.200000 0.900000 0.200000
v -0.100000 0.900000 0.200000
v 0.000000 0.900000 0.200000
v 0.100000 0.900000 0.200000
v 0.200000 0.900000 0.200000
v 0.300000 0.900000 0.200000
v -0.300000 0.900000 0.100000
v -0.200000 0.900000 0.100000
v -0.100000 0.900000 0.100000
v 0.000000 0.900000 0.100000
v 0.100000 0.900000 0.100000
v 0.200000 0.900000 0.100000
v 0.300000 0.900000 0.100000
v -0.300000 0.900000 0.000000
v -0.200000 0.900000 0.000000
v -0.100000 0.900000 0.000000
v 0.000000 0.900000 0.000000
v 0.100000 0.900000 0.000000
v 0.200000 0.900000 0.000000
v 0.300000 0.900000 0.000000
v -0.300000 0.900000 -0.100000
v -0.200000 0.900000 -0.100000
v -0.100000 0.900000 -0.100000
v 0.000000 0.900000 -0.100000
v 0.100000 0.900000 -0.100000
v 0.200000 0.900000 -0.100000
v 0.300000 0.900000 -0.100000
v -0.300000 0.900000 -0.200000
v -0.200000 0.900000 -0.200000
v -0.100000 0.900000 -0.200000
v 0.000000 0.900000 -0.200000
v 0.100000 0.900000 -0.200000
v 0.200000 0.900000 -0.200000
v 0.300000 0.900000 -0.200000
v -0.200000 0.900000 -0.300000
v -0.100000 0.900000 -0.300000
v 0.000000 0.900000 -0.300000
v 0.100000 0.900000 -0.300000
v 0.200000 0.900000 -0.300000
v -0.400000 1.000000 0.400000
v 0.400000 1.000000 0.400000
v -0.400000 1.000000 -0.400000
v 0.400000 1.000000 -0.400000
vn -1.0000 -0.0000 -0.0000
vn 1.0000 -0.0000 -0.0000
vn -0.0000 -0.0000 1.0000
vn -0.0000 -0.0000 -1.0000
vn -0.0000 -1.0000 -0.0000
vn -0.0000 1.0000 -0.0000
vt 0.552147 0.274894
vt 0.524894 0.274894
vt 0.524894 0.247640
vt 0.552147 0.247640
vt 0.524894 0.220387
vt 0.552147 0.220387
vt 0.524894 0.193133
vt 0.552147 0.193133
vt 0.524894 0.165880
vt 0.552147 0.165880
vt 0.524894 0.138627
vt 0.552147 0.138627
vt 0.524894 0.111373
vt 0.552147 0.111373
vt 0.524894 0.084120
vt 0.552147 0.084120
vt 0.524894 0.056867
vt 0.552147 0.056867
vt 0.524894 0.029613
vt 0.552147 0.029613
vt 0.524894 0.002360
vt 0.552147 0.002360
vt 0.497640 0.274894
vt 0.497640 0.247640
vt 0.285396 0.861373
vt 0.258143 0.861373
vt 0.258143 0.834120
vt 0.285396 0.834120
vt 0.497640 0.220387
vt 0.774893 0.497640
vt 0.747640 0.497640
vt 0.747640 0.470387
vt 0.774893 0.470387
vt 0.747640 0.443133
vt 0.774893 0.443133
vt 0.747640 0.415880
vt 0.774893 0.415880
vt 0.747640 0.388627
vt 0.774893 0.388627
vt 0.747640 0.361373
vt 0.774894 0.361373
vt 0.747640 0.334120
vt 0.774894 0.334120
vt 0.497640 0.056867
vt 0.497640 0.029613
vt 0.497640 0.002360
vt 0.322089 0.893346
vt 0.322089 0.866093
vt 0.349342 0.866093
vt 0.349342 0.893346
vt 0.470387 0.274894
vt 0.470387 0.247640
vt 0.470387 0.829400
vt 0.443133 0.829400
vt 0.443133 0.802147
vt 0.470387 0.802147
vt 0.747640 0.524894
vt 0.720387 0.524894
vt 0.720387 0.497640
vt 0.720387 0.470387
vt 0.720387 0.443133
vt 0.720387 0.415880
vt 0.720387 0.388627
vt 0.720387 0.361373
vt 0.720387 0.334120
vt 0.720387 0.306866
vt 0.747640 0.306866
vt 0.470387 0.029613
vt 0.470387 0.002360
vt 0.693133 0.584120
vt 0.665880 0.584120
vt 0.665880 0.556866
vt 0.693133 0.556866
vt 0.443133 0.274894
vt 0.443133 0.247640
vt 0.415880 0.829400
vt 0.415880 0.802147
vt 0.693133 0.524894
vt 0.693133 0.497640
vt 0.693133 0.470387
vt 0.693133 0.443133
vt 0.693133 0.415880
vt 0.693133 0.388627
vt 0.693133 0.361373
vt 0.693133 0.334120
vt 0.693133 0.306866
vt 0.443133 0.029613
vt 0.443133 0.002360
vt 0.638627 0.584120
vt 0.638627 0.556866
vt 0.415880 0.274894
vt 0.415880 0.247640
vt 0.388627 0.829400
vt 0.388627 0.802147
vt 0.665880 0.524894
vt 0.665880 0.497640
vt 0.665880 0.470387
vt 0.665880 0.443133
vt 0.665880 0.415880
vt 0.665880 0.388627
vt 0.665880 0.361373
vt 0.665880 0.334120
vt 0.665880 0.306866
vt 0.415880 0.029613
vt 0.415880 0.002360
vt 0.611373 0.584120
vt 0.611373 0.556866
vt 0.388627 0.274894
vt 0.388627 0.247640
vt 0.361373 0.829400
vt 0.361373 0.802147
vt 0.638627 0.524894
vt 0.638627 0.497640
vt 0.638627 0.470387
vt 0.638627 0.443133
vt 0.638627 0.415880
vt 0.638627 0.388627
vt 0.638627 0.361373
vt 0.638627 0.334120
vt 0.638627 0.306866
vt 0.388627 0.029613
vt 0.388627 0.002360
vt 0.584120 0.584120
vt 0.584120 0.556866
vt 0.361373 0.274894
vt 0.361373 0.247640
vt 0.334120 0.829400
vt 0.334120 0.802147
vt 0.611373 0.524894
vt 0.611373 0.497640
vt 0.611373 0.470387
vt 0.611373 0.443133
vt 0.611373 0.415880
vt 0.611373 0.388627
vt 0.611373 0.361373
vt 0.611373 0.334120
vt 0.611373 0.306866
vt 0.361373 0.029613
vt 0.361373 0.002360
vt 0.556867 0.584120
vt 0.556867 0.556866
vt 0.334120 0.274894
vt 0.334120 0.247640
vt 0.306867 0.829400
vt 0.306867 0.802147
vt 0.584120 0.524894
vt 0.584120 0.497640
vt 0.584120 0.470387
vt 0.584120 0.443133
vt 0.584120 0.415880
vt 0.584120 0.388627
vt 0.584120 0.361373
vt 0.584120 0.334120
vt 0.584120 0.306866
vt 0.334120 0.029613
vt 0.334120 0.002360
vt 0.529613 0.584120
vt 0.529613 0.556866
vt 0.306866 0.274894
vt 0.306866 0.247640
vt 0.386034 0.861373
vt 0.386034 0.834120
vt 0.413288 0.834120
vt 0.413288 0.861373
vt 0.306866 0.220387
vt 0.334120 0.220387
vt 0.556866 0.497640
vt 0.556866 0.470387
vt 0.556866 0.443133
vt 0.556866 0.415880
vt 0.556866 0.388627
vt 0.556866 0.361373
vt 0.556866 0.334120
vt 0.334120 0.056866
vt 0.306866 0.056866
vt 0.306867 0.029613
vt 0.306867 0.002360
vt 0.445261 0.861373
vt 0.418007 0.861373
vt 0.418007 0.834120
vt 0.445261 0.834120
vt 0.279613 0.274894
vt 0.279613 0.247640
vt 0.279613 0.220387
vt 0.477233 0.861373
vt 0.449980 0.861373
vt 0.449980 0.834120
vt 0.477233 0.834120
vt 0.279613 0.193133
vt 0.306866 0.193133
vt 0.989265 0.165880
vt 0.962011 0.165880
vt 0.962011 0.138627
vt 0.989265 0.138627
vt 0.279613 0.165880
vt 0.306866 0.165880
vt 0.962011 0.111373
vt 0.989265 0.111373
vt 0.279613 0.138627
vt 0.306866 0.138627
vt 0.962011 0.084120
vt 0.989265 0.084120
vt 0.279613 0.111373
vt 0.306866 0.111373
vt 0.962011 0.056867
vt 0.989265 0.056867
vt 0.279613 0.084120
vt 0.306866 0.084120
vt 0.962011 0.029613
vt 0.989265 0.029613
vt 0.279613 0.056866
vt 0.962011 0.002360
vt 0.989265 0.002360
vt 0.279613 0.029613
vt 0.806867 0.529613
vt 0.779613 0.529613
vt 0.779613 0.502360
vt 0.806867 0.502360
vt 0.279613 0.002360
vt 0.552147 0.279613
vt 0.552147 0.306867
vt 0.524894 0.306867
vt 0.524894 0.279613
vt 0.552147 0.334120
vt 0.524894 0.334120
vt 0.552147 0.361373
vt 0.524894 0.361373
vt 0.552147 0.388627
vt 0.524894 0.388627
vt 0.552147 0.415880
vt 0.524894 0.415880
vt 0.552147 0.443133
vt 0.524894 0.443133
vt 0.552147 0.470387
vt 0.524894 0.470387
vt 0.552147 0.497640
vt 0.524894 0.497640
vt 0.552147 0.524894
vt 0.524894 0.524894
vt 0.552147 0.552147
vt 0.524894 0.552147
vt 0.381315 0.893346
vt 0.354061 0.893346
vt 0.354061 0.866093
vt 0.381315 0.866093
vt 0.497640 0.306867
vt 0.497640 0.279613
vt 0.497640 0.334120
vt 0.943133 0.611373
vt 0.943133 0.638627
vt 0.915880 0.638627
vt 0.915880 0.611373
vt 0.943133 0.665880
vt 0.915880 0.665880
vt 0.943133 0.693133
vt 0.915880 0.693133
vt 0.943133 0.720387
vt 0.915880 0.720387
vt 0.943133 0.747640
vt 0.915880 0.747640
vt 0.943133 0.774894
vt 0.915880 0.774894
vt 0.497640 0.524894
vt 0.497640 0.497640
vt 0.317369 0.834120
vt 0.317369 0.861373
vt 0.290116 0.861373
vt 0.290116 0.834120
vt 0.497640 0.552147
vt 0.470387 0.556866
vt 0.470387 0.584120
vt 0.443134 0.584120
vt 0.443133 0.556866
vt 0.470387 0.306866
vt 0.470387 0.279613
vt 0.915880 0.584120
vt 0.888627 0.611373
vt 0.888627 0.584120
vt 0.888627 0.638627
vt 0.888627 0.665880
vt 0.888627 0.693133
vt 0.888627 0.720387
vt 0.888627 0.747640
vt 0.888627 0.774894
vt 0.915880 0.802147
vt 0.888627 0.802147
vt 0.693133 0.802147
vt 0.693133 0.829400
vt 0.665880 0.829400
vt 0.665880 0.802147
vt 0.470387 0.552147
vt 0.470387 0.524894
vt 0.415880 0.584120
vt 0.415880 0.556866
vt 0.443133 0.306866
vt 0.443133 0.279613
vt 0.861373 0.611373
vt 0.861373 0.584120
vt 0.861373 0.638627
vt 0.861373 0.665880
vt 0.861373 0.693133
vt 0.861373 0.720387
vt 0.861373 0.747640
vt 0.861373 0.774894
vt 0.861373 0.802147
vt 0.638627 0.829400
vt 0.638627 0.802147
vt 0.443133 0.552147
vt 0.443133 0.524894
vt 0.388627 0.584120
vt 0.388627 0.556866
vt 0.415880 0.306866
vt 0.415880 0.279613
vt 0.834120 0.611373
vt 0.834120 0.584120
vt 0.834120 0.638627
vt 0.834120 0.665880
vt 0.834120 0.693133
vt 0.834120 0.720387
vt 0.834120 0.747640
vt 0.834120 0.774894
vt 0.834120 0.802147
vt 0.611373 0.829400
vt 0.611373 0.802147
vt 0.415880 0.552147
vt 0.415880 0.524894
vt 0.361373 0.584120
vt 0.361373 0.556866
vt 0.388627 0.306866
vt 0.388627 0.279613
vt 0.806867 0.611373
vt 0.806867 0.584120
vt 0.806867 0.638627
vt 0.806867 0.665880
vt 0.806867 0.693133
vt 0.806867 0.720387
vt 0.806867 0.747640
vt 0.806867 0.774894
vt 0.806867 0.802147
vt 0.584120 0.829400
vt 0.584120 0.802147
vt 0.388627 0.552147
vt 0.388627 0.524894
vt 0.334120 0.584120
vt 0.334120 0.556866
vt 0.361373 0.306866
vt 0.361373 0.279613
vt 0.779613 0.611373
vt 0.779613 0.584120
vt 0.779613 0.638627
vt 0.779613 0.665880
vt 0.779613 0.693133
vt 0.779613 0.720387
vt 0.779613 0.747640
vt 0.779613 0.774894
vt 0.779613 0.802147
vt 0.556866 0.829400
vt 0.556867 0.802147
vt 0.361373 0.552147
vt 0.361373 0.524894
vt 0.306867 0.584120
vt 0.306867 0.556866
vt 0.334120 0.306866
vt 0.334120 0.279613
vt 0.752360 0.611373
vt 0.752360 0.584120
vt 0.752360 0.638627
vt 0.752360 0.665880
vt 0.752360 0.693133
vt 0.752360 0.720387
vt 0.752360 0.747640
vt 0.752360 0.774893
vt 0.752360 0.802147
vt 0.529613 0.829400
vt 0.529613 0.802147
vt 0.334120 0.552147
vt 0.334120 0.524894
vt 0.529613 0.834120
vt 0.529613 0.861373
vt 0.502360 0.861373
vt 0.502360 0.834120
vt 0.306866 0.306866
vt 0.306866 0.279613
vt 0.334120 0.334120
vt 0.306866 0.334120
vt 0.725106 0.638627
vt 0.725106 0.611373
vt 0.725106 0.665880
vt 0.725106 0.693133
vt 0.725106 0.720387
vt 0.725106 0.747640
vt 0.725106 0.774893
vt 0.334120 0.497640
vt 0.306866 0.524894
vt 0.306866 0.497640
vt 0.561586 0.861373
vt 0.534333 0.861373
vt 0.534333 0.834120
vt 0.561586 0.834120
vt 0.306866 0.552147
vt 0.279613 0.306866
vt 0.279613 0.279613
vt 0.838839 0.502360
vt 0.838839 0.529613
vt 0.811586 0.529613
vt 0.811586 0.502360
vt 0.279613 0.334120
vt 0.029613 0.834120
vt 0.029613 0.861373
vt 0.002360 0.861373
vt 0.002360 0.834120
vt 0.306866 0.361373
vt 0.279613 0.361373
vt 0.029613 0.888627
vt 0.002360 0.888627
vt 0.306866 0.388627
vt 0.279613 0.388627
vt 0.029613 0.915880
vt 0.002360 0.915880
vt 0.306866 0.415880
vt 0.279613 0.415880
vt 0.029613 0.943133
vt 0.002360 0.943133
vt 0.306866 0.443133
vt 0.279613 0.443133
vt 0.029613 0.970387
vt 0.002360 0.970387
vt 0.306866 0.470387
vt 0.279613 0.470387
vt 0.029613 0.997640
vt 0.002360 0.997640
vt 0.279613 0.497640
vt 0.593559 0.834120
vt 0.593559 0.861373
vt 0.566306 0.861373
vt 0.566306 0.834120
vt 0.279613 0.524894
vt 0.279613 0.552147
vt 0.829400 0.002360
vt 0.829400 0.029613
vt 0.802147 0.029613
vt 0.802147 0.002360
vt 0.829400 0.056867
vt 0.802147 0.056867
vt 0.829400 0.084120
vt 0.802147 0.084120
vt 0.829400 0.111373
vt 0.802147 0.111373
vt 0.829400 0.138627
vt 0.802147 0.138627
vt 0.829400 0.165880
vt 0.802147 0.165880
vt 0.829400 0.193133
vt 0.802147 0.193133
vt 0.829400 0.220387
vt 0.802147 0.220387
vt 0.829400 0.247640
vt 0.802147 0.247640
vt 0.829400 0.274894
vt 0.802147 0.274894
vt 0.774893 0.029613
vt 0.774893 0.002360
vt 0.774893 0.056867
vt 0.774893 0.247640
vt 0.774893 0.220387
vt 0.774893 0.274894
vt 0.497640 0.611373
vt 0.497640 0.638627
vt 0.470387 0.638627
vt 0.470387 0.611373
vt 0.497640 0.665880
vt 0.470387 0.665880
vt 0.497640 0.693133
vt 0.470387 0.693133
vt 0.497640 0.720387
vt 0.470387 0.720387
vt 0.497640 0.747640
vt 0.470387 0.747640
vt 0.497640 0.774893
vt 0.470387 0.774893
vt 0.413288 0.893346
vt 0.386034 0.893346
vt 0.386034 0.866093
vt 0.413288 0.866093
vt 0.349342 0.834120
vt 0.349342 0.861373
vt 0.322089 0.861373
vt 0.322089 0.834120
vt 0.747640 0.029613
vt 0.747640 0.002360
vt 0.747640 0.274894
vt 0.747640 0.247640
vt 0.443133 0.611373
vt 0.443133 0.638627
vt 0.443133 0.665880
vt 0.443133 0.693133
vt 0.443133 0.720387
vt 0.443133 0.747640
vt 0.443133 0.774893
vt 0.747640 0.279613
vt 0.720387 0.279613
vt 0.915880 0.829400
vt 0.888627 0.829400
vt 0.720387 0.029613
vt 0.720387 0.002360
vt 0.720387 0.274894
vt 0.720387 0.247640
vt 0.415880 0.611373
vt 0.415880 0.638627
vt 0.415880 0.665880
vt 0.415880 0.693133
vt 0.415880 0.720387
vt 0.415880 0.747640
vt 0.415880 0.774893
vt 0.693133 0.279613
vt 0.861373 0.829400
vt 0.693133 0.029613
vt 0.693133 0.002360
vt 0.693133 0.274894
vt 0.693133 0.247640
vt 0.388627 0.611373
vt 0.388627 0.638627
vt 0.388627 0.665880
vt 0.388627 0.693133
vt 0.388627 0.720387
vt 0.388627 0.747640
vt 0.388627 0.774893
vt 0.665880 0.279613
vt 0.834120 0.829400
vt 0.665880 0.029613
vt 0.665880 0.002360
vt 0.665880 0.274894
vt 0.665880 0.247640
vt 0.361373 0.611373
vt 0.361373 0.638627
vt 0.361373 0.665880
vt 0.361373 0.693133
vt 0.361373 0.720387
vt 0.361373 0.747640
vt 0.361373 0.774893
vt 0.638627 0.279613
vt 0.806866 0.829400
vt 0.638627 0.029613
vt 0.638627 0.002360
vt 0.638627 0.274894
vt 0.638627 0.247640
vt 0.334120 0.611373
vt 0.334120 0.638627
vt 0.334120 0.665880
vt 0.334120 0.693133
vt 0.334120 0.720387
vt 0.334120 0.747640
vt 0.334120 0.774893
vt 0.611373 0.279613
vt 0.779613 0.829400
vt 0.611373 0.029613
vt 0.611373 0.002360
vt 0.611373 0.274894
vt 0.611373 0.247640
vt 0.306867 0.611373
vt 0.306867 0.638627
vt 0.306867 0.665880
vt 0.306867 0.693133
vt 0.306867 0.720387
vt 0.306867 0.747640
vt 0.306867 0.774893
vt 0.584120 0.279613
vt 0.752360 0.829400
vt 0.584120 0.029613
vt 0.584120 0.002360
vt 0.611373 0.056866
vt 0.584120 0.056866
vt 0.611373 0.220387
vt 0.584120 0.247640
vt 0.584120 0.220387
vt 0.584120 0.274894
vt 0.279613 0.638627
vt 0.279613 0.611373
vt 0.279613 0.665880
vt 0.279613 0.693133
vt 0.279613 0.720387
vt 0.279613 0.747640
vt 0.279613 0.774893
vt 0.625532 0.834120
vt 0.625532 0.861373
vt 0.598278 0.861373
vt 0.598278 0.834120
vt 0.657505 0.861373
vt 0.630251 0.861373
vt 0.630251 0.834120
vt 0.657505 0.834120
vt 0.556866 0.029613
vt 0.556866 0.002360
vt 0.556866 0.056866
vt 0.584120 0.084120
vt 0.556866 0.084120
vt 0.584120 0.111373
vt 0.556866 0.111373
vt 0.584120 0.138627
vt 0.556866 0.138627
vt 0.584120 0.165880
vt 0.556866 0.165880
vt 0.584120 0.193133
vt 0.556866 0.193133
vt 0.556866 0.220387
vt 0.556866 0.247640
vt 0.556866 0.274894
vt 0.861373 0.170600
vt 0.861373 0.197853
vt 0.834120 0.197853
vt 0.834120 0.170600
vt 0.689478 0.834120
vt 0.689478 0.861373
vt 0.662224 0.861373
vt 0.662224 0.834120
vt 0.061586 0.834120
vt 0.061586 0.861373
vt 0.034333 0.861373
vt 0.034333 0.834120
vt 0.061586 0.888627
vt 0.034333 0.888627
vt 0.061586 0.915880
vt 0.034333 0.915880
vt 0.061586 0.943133
vt 0.034333 0.943133
vt 0.061586 0.970387
vt 0.034333 0.970387
vt 0.061586 0.997640
vt 0.034333 0.997640
vt 0.274894 0.829400
vt 0.247640 0.829400
vt 0.247640 0.802147
vt 0.274894 0.802147
vt 0.247640 0.774894
vt 0.274894 0.774894
vt 0.247640 0.747640
vt 0.274894 0.747640
vt 0.247640 0.720387
vt 0.274894 0.720387
vt 0.247640 0.693133
vt 0.274894 0.693133
vt 0.247640 0.665880
vt 0.274894 0.665880
vt 0.247640 0.638627
vt 0.274894 0.638627
vt 0.247640 0.611373
vt 0.274894 0.611373
vt 0.247640 0.584120
vt 0.274894 0.584120
vt 0.247640 0.556867
vt 0.274894 0.556867
vt 0.381315 0.861373
vt 0.354061 0.861373
vt 0.354061 0.834120
vt 0.381315 0.834120
vt 0.418007 0.893346
vt 0.418007 0.866093
vt 0.445261 0.866093
vt 0.445261 0.893346
vt 0.720387 0.774893
vt 0.693133 0.774893
vt 0.693133 0.747640
vt 0.720387 0.747640
vt 0.693133 0.720387
vt 0.720387 0.720387
vt 0.693133 0.693133
vt 0.720387 0.693133
vt 0.693133 0.665880
vt 0.720387 0.665880
vt 0.693133 0.638627
vt 0.720387 0.638627
vt 0.693133 0.611373
vt 0.720387 0.611373
vt 0.220387 0.829400
vt 0.220387 0.802147
vt 0.220387 0.774894
vt 0.220387 0.611373
vt 0.220387 0.584120
vt 0.220387 0.556867
vt 0.747640 0.552147
vt 0.720387 0.552147
vt 0.888627 0.556866
vt 0.915880 0.556866
vt 0.665880 0.774893
vt 0.665880 0.747640
vt 0.665880 0.720387
vt 0.665880 0.693133
vt 0.665880 0.665880
vt 0.665880 0.638627
vt 0.665880 0.611373
vt 0.193133 0.829400
vt 0.193133 0.802147
vt 0.193133 0.584120
vt 0.193133 0.556867
vt 0.693133 0.552147
vt 0.861373 0.556866
vt 0.638627 0.774893
vt 0.638627 0.747640
vt 0.638627 0.720387
vt 0.638627 0.693133
vt 0.638627 0.665880
vt 0.638627 0.638627
vt 0.638627 0.611373
vt 0.165880 0.829400
vt 0.165880 0.802147
vt 0.165880 0.584120
vt 0.165880 0.556867
vt 0.665880 0.552147
vt 0.834120 0.556866
vt 0.611373 0.774893
vt 0.611373 0.747640
vt 0.611373 0.720387
vt 0.611373 0.693133
vt 0.611373 0.665880
vt 0.611373 0.638627
vt 0.611373 0.611373
vt 0.138627 0.829400
vt 0.138627 0.802147
vt 0.138627 0.584120
vt 0.138627 0.556867
vt 0.638627 0.552147
vt 0.806867 0.556866
vt 0.584120 0.774893
vt 0.584120 0.747640
vt 0.584120 0.720387
vt 0.584120 0.693133
vt 0.584120 0.665880
vt 0.584120 0.638627
vt 0.584120 0.611373
vt 0.111373 0.829400
vt 0.111373 0.802147
vt 0.111373 0.584120
vt 0.111373 0.556867
vt 0.611373 0.552147
vt 0.779613 0.556866
vt 0.556866 0.774893
vt 0.556866 0.747640
vt 0.556867 0.720387
vt 0.556867 0.693133
vt 0.556867 0.665880
vt 0.556867 0.638627
vt 0.556867 0.611373
vt 0.084120 0.829400
vt 0.084120 0.802147
vt 0.084120 0.584120
vt 0.084120 0.556867
vt 0.584120 0.552147
vt 0.752360 0.556866
vt 0.529613 0.774893
vt 0.529613 0.747640
vt 0.529613 0.720387
vt 0.529613 0.693133
vt 0.529613 0.665880
vt 0.529613 0.638627
vt 0.529613 0.611373
vt 0.056867 0.829400
vt 0.056867 0.802147
vt 0.056867 0.584120
vt 0.056867 0.556867
vt 0.694197 0.861373
vt 0.694197 0.834120
vt 0.721450 0.834120
vt 0.721450 0.861373
vt 0.753423 0.861373
vt 0.726170 0.861373
vt 0.726170 0.834120
vt 0.753423 0.834120
vt 0.502360 0.774893
vt 0.502360 0.747640
vt 0.502360 0.720387
vt 0.502360 0.693133
vt 0.502360 0.665880
vt 0.502360 0.638627
vt 0.502360 0.611373
vt 0.029613 0.829400
vt 0.029613 0.802147
vt 0.029613 0.774894
vt 0.056867 0.774894
vt 0.056867 0.611373
vt 0.029613 0.611373
vt 0.029613 0.584120
vt 0.029613 0.556867
vt 0.093559 0.997640
vt 0.066305 0.997640
vt 0.066305 0.970387
vt 0.093559 0.970387
vt 0.066305 0.943133
vt 0.093559 0.943133
vt 0.066305 0.915880
vt 0.093559 0.915880
vt 0.066305 0.888627
vt 0.093559 0.888627
vt 0.066305 0.861373
vt 0.093559 0.861373
vt 0.066305 0.834120
vt 0.093559 0.834120
vt 0.785396 0.861373
vt 0.758143 0.861373
vt 0.758143 0.834120
vt 0.785396 0.834120
vt 0.861373 0.229826
vt 0.834120 0.229826
vt 0.834120 0.202572
vt 0.861373 0.202572
vt 0.002360 0.829400
vt 0.002360 0.802147
vt 0.002360 0.774894
vt 0.002360 0.747640
vt 0.029613 0.747640
vt 0.002360 0.720387
vt 0.029613 0.720387
vt 0.002360 0.693133
vt 0.029613 0.693133
vt 0.002360 0.665880
vt 0.029613 0.665880
vt 0.002360 0.638627
vt 0.029613 0.638627
vt 0.002360 0.611373
vt 0.002360 0.584120
vt 0.002360 0.556867
vt 0.002360 0.002360
vt 0.029613 0.002360
vt 0.029613 0.029613
vt 0.002360 0.029613
vt 0.029613 0.056867
vt 0.002360 0.056867
vt 0.029613 0.084120
vt 0.002360 0.084120
vt 0.029613 0.111373
vt 0.002360 0.111373
vt 0.029613 0.138627
vt 0.002360 0.138627
vt 0.029613 0.165880
vt 0.002360 0.165880
vt 0.029613 0.193133
vt 0.002360 0.193133
vt 0.029613 0.220387
vt 0.002360 0.220387
vt 0.029613 0.247640
vt 0.002360 0.247640
vt 0.029613 0.274894
vt 0.002360 0.274894
vt 0.056867 0.002360
vt 0.056867 0.029613
vt 0.056867 0.056867
vt 0.056867 0.084120
vt 0.056867 0.111373
vt 0.056867 0.138627
vt 0.056867 0.165880
vt 0.056867 0.193133
vt 0.056867 0.220387
vt 0.056867 0.247640
vt 0.056867 0.274894
vt 0.084120 0.002360
vt 0.084120 0.029613
vt 0.084120 0.056867
vt 0.084120 0.084120
vt 0.084120 0.111373
vt 0.084120 0.138627
vt 0.084120 0.165880
vt 0.084120 0.193133
vt 0.084120 0.220387
vt 0.084120 0.247640
vt 0.084120 0.274894
vt 0.111373 0.002360
vt 0.111373 0.029613
vt 0.111373 0.056867
vt 0.111373 0.084120
vt 0.111373 0.111373
vt 0.111373 0.138627
vt 0.111373 0.165880
vt 0.111373 0.193133
vt 0.111373 0.220387
vt 0.111373 0.247640
vt 0.111373 0.274894
vt 0.138627 0.002360
vt 0.138627 0.029613
vt 0.138627 0.056867
vt 0.138627 0.084120
vt 0.138627 0.111373
vt 0.138627 0.138627
vt 0.138627 0.165880
vt 0.138627 0.193133
vt 0.138627 0.220387
vt 0.138627 0.247640
vt 0.138627 0.274894
vt 0.165880 0.002360
vt 0.165880 0.029613
vt 0.165880 0.056867
vt 0.165880 0.084120
vt 0.165880 0.111373
vt 0.165880 0.138627
vt 0.165880 0.165880
vt 0.165880 0.193133
vt 0.165880 0.220387
vt 0.165880 0.247640
vt 0.165880 0.274894
vt 0.193133 0.002360
vt 0.193133 0.029613
vt 0.193133 0.056867
vt 0.193133 0.084120
vt 0.193133 0.111373
vt 0.193133 0.138627
vt 0.193133 0.165880
vt 0.193133 0.193133
vt 0.193133 0.220387
vt 0.193133 0.247640
vt 0.193133 0.274894
vt 0.220387 0.002360
vt 0.220387 0.029613
vt 0.220387 0.056867
vt 0.220387 0.084120
vt 0.220387 0.111373
vt 0.220387 0.138627
vt 0.220387 0.165880
vt 0.220387 0.193133
vt 0.220387 0.220387
vt 0.220387 0.247640
vt 0.220387 0.274894
vt 0.247640 0.002360
vt 0.247640 0.029613
vt 0.247640 0.056867
vt 0.247640 0.084120
vt 0.247640 0.111373
vt 0.247640 0.138627
vt 0.247640 0.165880
vt 0.247640 0.193133
vt 0.247640 0.220387
vt 0.247640 0.247640
vt 0.247640 0.274894
vt 0.274894 0.002360
vt 0.274894 0.029613
vt 0.274894 0.056867
vt 0.274894 0.084120
vt 0.274894 0.111373
vt 0.274894 0.138627
vt 0.274894 0.165880
vt 0.274894 0.193133
vt 0.274894 0.220387
vt 0.274894 0.247640
vt 0.274894 0.274894
vt 0.790116 0.834120
vt 0.817369 0.834120
vt 0.817369 0.861373
vt 0.790116 0.861373
vt 0.162224 0.834120
vt 0.189478 0.834120
vt 0.189478 0.861373
vt 0.162224 0.861373
vt 0.849342 0.834120
vt 0.849342 0.861373
vt 0.822089 0.861373
vt 0.822089 0.834120
vt 0.870812 0.502360
vt 0.870812 0.529613
vt 0.843559 0.529613
vt 0.843559 0.502360
vt 0.881315 0.834120
vt 0.881315 0.861373
vt 0.854061 0.861373
vt 0.854061 0.834120
vt 0.893346 0.170600
vt 0.893346 0.197853
vt 0.866093 0.197853
vt 0.866093 0.170600
vt 0.189477 0.893346
vt 0.162224 0.893346
vt 0.162224 0.866093
vt 0.189477 0.866093
vt 0.221450 0.861373
vt 0.194197 0.861373
vt 0.194197 0.834120
vt 0.221450 0.834120
vt 0.898066 0.002360
vt 0.925319 0.002360
vt 0.925319 0.029613
vt 0.898066 0.029613
vt 0.925319 0.056867
vt 0.898066 0.056867
vt 0.925319 0.084120
vt 0.898066 0.084120
vt 0.925319 0.111373
vt 0.898066 0.111373
vt 0.925319 0.138627
vt 0.898066 0.138627
vt 0.925319 0.165880
vt 0.898066 0.165880
vt 0.125532 0.834120
vt 0.125532 0.861373
vt 0.098278 0.861373
vt 0.098278 0.834120
vt 0.157505 0.834120
vt 0.157505 0.861373
vt 0.130251 0.861373
vt 0.130251 0.834120
vt 0.125532 0.888627
vt 0.098278 0.888627
vt 0.157505 0.888627
vt 0.130251 0.888627
vt 0.125532 0.915880
vt 0.098278 0.915880
vt 0.157505 0.915880
vt 0.130251 0.915880
vt 0.125532 0.943133
vt 0.098278 0.943133
vt 0.157505 0.943133
vt 0.130251 0.943133
vt 0.125532 0.970387
vt 0.098278 0.970387
vt 0.157505 0.970387
vt 0.130251 0.970387
vt 0.125532 0.997640
vt 0.098278 0.997640
vt 0.157505 0.997640
vt 0.130251 0.997640
vt 0.930039 0.002360
vt 0.957292 0.002360
vt 0.957292 0.029613
vt 0.930039 0.029613
vt 0.957292 0.056867
vt 0.930039 0.056867
vt 0.957292 0.084120
vt 0.930039 0.084120
vt 0.957292 0.111373
vt 0.930039 0.111373
vt 0.957292 0.138627
vt 0.930039 0.138627
vt 0.957292 0.165880
vt 0.930039 0.165880
vt 0.834120 0.165880
vt 0.834120 0.138627
vt 0.861373 0.138627
vt 0.861373 0.165880
vt 0.834120 0.111373
vt 0.861373 0.111373
vt 0.834120 0.084120
vt 0.861373 0.084120
vt 0.834120 0.056867
vt 0.861373 0.056867
vt 0.834120 0.029613
vt 0.861373 0.029613
vt 0.834120 0.002360
vt 0.861373 0.002360
vt 0.947853 0.556866
vt 0.975106 0.556866
vt 0.975106 0.584120
vt 0.947853 0.584120
vt 0.947853 0.725106
vt 0.975106 0.725106
vt 0.975106 0.752360
vt 0.947853 0.752360
vt 0.975106 0.611373
vt 0.947853 0.611373
vt 0.975106 0.779613
vt 0.947853 0.779613
vt 0.975106 0.638627
vt 0.947853 0.638627
vt 0.975106 0.806866
vt 0.947853 0.806866
vt 0.975106 0.665880
vt 0.947853 0.665880
vt 0.975106 0.834120
vt 0.947853 0.834120
vt 0.975106 0.693133
vt 0.947853 0.693133
vt 0.975106 0.861373
vt 0.947853 0.861373
vt 0.975106 0.720387
vt 0.947853 0.720387
vt 0.975106 0.888627
vt 0.947853 0.888627
vt 0.866093 0.165880
vt 0.866093 0.138627
vt 0.893346 0.138627
vt 0.893346 0.165880
vt 0.866093 0.111373
vt 0.893346 0.111373
vt 0.866093 0.084120
vt 0.893346 0.084120
vt 0.866093 0.056867
vt 0.893346 0.056867
vt 0.866093 0.029613
vt 0.893346 0.029613
vt 0.866093 0.002360
vt 0.893346 0.002360
vt 0.834120 0.261799
vt 0.834120 0.234545
vt 0.861373 0.234545
vt 0.861373 0.261799
vt 0.866093 0.229826
vt 0.866093 0.202572
vt 0.893346 0.202572
vt 0.893346 0.229826
vt 0.194197 0.866093
vt 0.221450 0.866093
vt 0.221450 0.893346
vt 0.194197 0.893346
vt 0.866093 0.234545
vt 0.893346 0.234545
vt 0.893346 0.261799
vt 0.866093 0.261799
vt 0.226170 0.866093
vt 0.253423 0.866093
vt 0.253423 0.893346
vt 0.226170 0.893346
vt 0.258143 0.866093
vt 0.285396 0.866093
vt 0.285396 0.893346
vt 0.258143 0.893346
vt 0.253423 0.834120
vt 0.253423 0.861373
vt 0.226170 0.861373
vt 0.226170 0.834120
vt 0.317369 0.866093
vt 0.317369 0.893346
vt 0.290116 0.893346
vt 0.290116 0.866093
vt 0.779613 0.470387
vt 0.779613 0.443133
vt 0.806866 0.443133
vt 0.806866 0.470387
vt 0.779613 0.415880
vt 0.806866 0.415880
vt 0.779613 0.388627
vt 0.806866 0.388627
vt 0.779613 0.361373
vt 0.806866 0.361373
vt 0.779613 0.334120
vt 0.806866 0.334120
vt 0.779613 0.306866
vt 0.806866 0.306866
vt 0.806866 0.497640
vt 0.834120 0.470387
vt 0.834120 0.497640
vt 0.834120 0.443133
vt 0.834120 0.415880
vt 0.834120 0.388627
vt 0.834120 0.361373
vt 0.834120 0.334120
vt 0.834120 0.306866
vt 0.806866 0.279613
vt 0.834120 0.279613
vt 0.861373 0.470387
vt 0.861373 0.497640
vt 0.861373 0.443133
vt 0.861373 0.415880
vt 0.861373 0.388627
vt 0.861373 0.361373
vt 0.861373 0.334120
vt 0.861373 0.306866
vt 0.861373 0.279613
vt 0.888627 0.470387
vt 0.888627 0.497640
vt 0.888627 0.443133
vt 0.888627 0.415880
vt 0.888627 0.388627
vt 0.888627 0.361373
vt 0.888627 0.334120
vt 0.888627 0.306866
vt 0.888627 0.279613
vt 0.915880 0.470387
vt 0.915880 0.497640
vt 0.915880 0.443133
vt 0.915880 0.415880
vt 0.915880 0.388627
vt 0.915880 0.361373
vt 0.915880 0.334120
vt 0.915880 0.306866
vt 0.915880 0.279613
vt 0.943133 0.470387
vt 0.943133 0.497640
vt 0.943133 0.443133
vt 0.943133 0.415880
vt 0.943133 0.388627
vt 0.943133 0.361373
vt 0.943133 0.334120
vt 0.943133 0.306866
vt 0.943133 0.279613
vt 0.970387 0.470387
vt 0.970387 0.497640
vt 0.970387 0.443133
vt 0.970387 0.415880
vt 0.970387 0.388627
vt 0.970387 0.361373
vt 0.970387 0.334120
vt 0.970387 0.306866
vt 0.970387 0.279613
vt 0.997640 0.443133
vt 0.997640 0.470387
vt 0.997640 0.415880
vt 0.997640 0.388627
vt 0.997640 0.361373
vt 0.997640 0.334120
vt 0.997640 0.306866
vt 0.002360 0.552147
vt 0.002360 0.524894
vt 0.029613 0.524894
vt 0.029613 0.552147
vt 0.002360 0.497640
vt 0.029613 0.497640
vt 0.002360 0.470387
vt 0.029613 0.470387
vt 0.002360 0.443133
vt 0.029613 0.443133
vt 0.002360 0.415880
vt 0.029613 0.415880
vt 0.002360 0.388627
vt 0.029613 0.388627
vt 0.002360 0.361373
vt 0.029613 0.361373
vt 0.002360 0.334120
vt 0.029613 0.334120
vt 0.002360 0.306866
vt 0.029613 0.306866
vt 0.002360 0.279613
vt 0.029613 0.279613
vt 0.056867 0.524894
vt 0.056867 0.552147
vt 0.056867 0.497640
vt 0.056867 0.306867
vt 0.056867 0.334120
vt 0.056867 0.279613
vt 0.084120 0.524894
vt 0.084120 0.552147
vt 0.084120 0.279613
vt 0.084120 0.306867
vt 0.111373 0.524894
vt 0.111373 0.552147
vt 0.111373 0.279613
vt 0.111373 0.306867
vt 0.138627 0.524894
vt 0.138627 0.552147
vt 0.138627 0.279613
vt 0.138627 0.306867
vt 0.165880 0.524894
vt 0.165880 0.552147
vt 0.165880 0.279613
vt 0.165880 0.306867
vt 0.193133 0.524894
vt 0.193133 0.552147
vt 0.193133 0.279613
vt 0.193133 0.306867
vt 0.220387 0.524894
vt 0.220387 0.552147
vt 0.220387 0.279613
vt 0.220387 0.306867
vt 0.247640 0.524894
vt 0.247640 0.552147
vt 0.220387 0.497640
vt 0.247640 0.497640
vt 0.220387 0.334120
vt 0.247640 0.306867
vt 0.247640 0.334120
vt 0.247640 0.279613
vt 0.274894 0.524894
vt 0.274894 0.552147
vt 0.274894 0.497640
vt 0.247640 0.470387
vt 0.274894 0.470387
vt 0.247640 0.443133
vt 0.274894 0.443133
vt 0.247640 0.415880
vt 0.274894 0.415880
vt 0.247640 0.388627
vt 0.274894 0.388627
vt 0.247640 0.361373
vt 0.274894 0.361373
vt 0.274894 0.334120
vt 0.274894 0.306867
vt 0.274894 0.279613
s 1
usemtl Material.001
f 1/1/1 2/2/1 3/3/1 4/4/1
f 4/4/1 3/3/1 5/5/1 6/6/1
f 6/6/1 5/5/1 7/7/1 8/8/1
f 8/8/1 7/7/1 9/9/1 10/10/1
f 10/10/1 9/9/1 11/11/1 12/12/1
f 12/12/1 11/11/1 13/13/1 14/14/1
f 14/14/1 13/13/1 15/15/1 16/16/1
f 16/16/1 15/15/1 17/17/1 18/18/1
f 18/18/1 17/17/1 19/19/1 20/20/1
f 20/20/1 19/19/1 21/21/1 22/22/1
f 2/2/1 23/23/1 24/24/1 3/3/1
f 25/25/1 26/26/1 27/27/1 28/28/1
f 3/3/1 24/24/1 29/29/1 5/5/1
f 30/30/1 31/31/1 32/32/1 33/33/1
f 33/33/1 32/32/1 34/34/1 35/35/1
f 35/35/1 34/34/1 36/36/1 37/37/1
f 37/37/1 36/36/1 38/38/1 39/39/1
f 39/39/1 38/38/1 40/40/1 41/41/1
f 41/41/1 40/40/1 42/42/1 43/43/1
f 17/17/1 44/44/1 45/45/1 19/19/1
f 19/19/1 45/45/1 46/46/1 21/21/1
f 47/47/1 48/48/1 49/49/1 50/50/1
f 23/23/1 51/51/1 52/52/1 24/24/1
f 53/53/1 54/54/1 55/55/1 56/56/1
f 57/57/1 58/58/1 59/59/1 31/31/1
f 31/31/1 59/59/1 60/60/1 32/32/1
f 32/32/1 60/60/1 61/61/1 34/34/1
f 34/34/1 61/61/1 62/62/1 36/36/1
f 36/36/1 62/62/1 63/63/1 38/38/1
f 38/38/1 63/63/1 64/64/1 40/40/1
f 40/40/1 64/64/1 65/65/1 42/42/1
f 42/42/1 65/65/1 66/66/1 67/67/1
f 45/45/1 68/68/1 69/69/1 46/46/1
f 70/70/1 71/71/1 72/72/1 73/73/1
f 51/51/1 74/74/1 75/75/1 52/52/1
f 54/54/1 76/76/1 77/77/1 55/55/1
f 58/58/1 78/78/1 79/79/1 59/59/1
f 59/59/1 79/79/1 80/80/1 60/60/1
f 60/60/1 80/80/1 81/81/1 61/61/1
f 61/61/1 81/81/1 82/82/1 62/62/1
f 62/62/1 82/82/1 83/83/1 63/63/1
f 63/63/1 83/83/1 84/84/1 64/64/1
f 64/64/1 84/84/1 85/85/1 65/65/1
f 65/65/1 85/85/1 86/86/1 66/66/1
f 68/68/1 87/87/1 88/88/1 69/69/1
f 71/71/1 89/89/1 90/90/1 72/72/1
f 74/74/1 91/91/1 92/92/1 75/75/1
f 76/76/1 93/93/1 94/94/1 77/77/1
f 78/78/1 95/95/1 96/96/1 79/79/1
f 79/79/1 96/96/1 97/97/1 80/80/1
f 80/80/1 97/97/1 98/98/1 81/81/1
f 81/81/1 98/98/1 99/99/1 82/82/1
f 82/82/1 99/99/1 100/100/1 83/83/1
f 83/83/1 100/100/1 101/101/1 84/84/1
f 84/84/1 101/101/1 102/102/1 85/85/1
f 85/85/1 102/102/1 103/103/1 86/86/1
f 87/87/1 104/104/1 105/105/1 88/88/1
f 89/89/1 106/106/1 107/107/1 90/90/1
f 91/91/1 108/108/1 109/109/1 92/92/1
f 93/93/1 110/110/1 111/111/1 94/94/1
f 95/95/1 112/112/1 113/113/1 96/96/1
f 96/96/1 113/113/1 114/114/1 97/97/1
f 97/97/1 114/114/1 115/115/1 98/98/1
f 98/98/1 115/115/1 116/116/1 99/99/1
f 99/99/1 116/116/1 117/117/1 100/100/1
f 100/100/1 117/117/1 118/118/1 101/101/1
f 101/101/1 118/118/1 119/119/1 102/102/1
f 102/102/1 119/119/1 120/120/1 103/103/1
f 104/104/1 121/121/1 122/122/1 105/105/1
f 106/106/1 123/123/1 124/124/1 107/107/1
f 108/108/1 125/125/1 126/126/1 109/109/1
f 110/110/1 127/127/1 128/128/1 111/111/1
f 112/112/1 129/129/1 130/130/1 113/113/1
f 113/113/1 130/130/1 131/131/1 114/114/1
f 114/114/1 131/131/1 132/132/1 115/115/1
f 115/115/1 132/132/1 133/133/1 116/116/1
f 116/116/1 133/133/1 134/134/1 117/117/1
f 117/117/1 134/134/1 135/135/1 118/118/1
f 118/118/1 135/135/1 136/136/1 119/119/1
f 119/119/1 136/136/1 137/137/1 120/120/1
f 121/121/1 138/138/1 139/139/1 122/122/1
f 123/123/1 140/140/1 141/141/1 124/124/1
f 125/125/1 142/142/1 143/143/1 126/126/1
f 127/127/1 144/144/1 145/145/1 128/128/1
f 129/129/1 146/146/1 147/147/1 130/130/1
f 130/130/1 147/147/1 148/148/1 131/131/1
f 131/131/1 148/148/1 149/149/1 132/132/1
f 132/132/1 149/149/1 150/150/1 133/133/1
f 133/133/1 150/150/1 151/151/1 134/134/1
f 134/134/1 151/151/1 152/152/1 135/135/1
f 135/135/1 152/152/1 153/153/1 136/136/1
f 136/136/1 153/153/1 154/154/1 137/137/1
f 138/138/1 155/155/1 156/156/1 139/139/1
f 140/140/1 157/157/1 158/158/1 141/141/1
f 142/142/1 159/159/1 160/160/1 143/143/1
f 161/161/1 162/162/1 163/163/1 164/164/1
f 143/143/1 160/160/1 165/165/1 166/166/1
f 147/147/1 167/167/1 168/168/1 148/148/1
f 148/148/1 168/168/1 169/169/1 149/149/1
f 149/149/1 169/169/1 170/170/1 150/150/1
f 150/150/1 170/170/1 171/171/1 151/151/1
f 151/151/1 171/171/1 172/172/1 152/152/1
f 152/152/1 172/172/1 173/173/1 153/153/1
f 174/174/1 175/175/1 176/176/1 155/155/1
f 155/155/1 176/176/1 177/177/1 156/156/1
f 178/178/1 179/179/1 180/180/1 181/181/1
f 159/159/1 182/182/1 183/183/1 160/160/1
f 160/160/1 183/183/1 184/184/1 165/165/1
f 163/185/1 185/186/1 186/187/1 187/188/1
f 165/165/1 184/184/1 188/189/1 189/190/1
f 190/191/1 191/192/1 192/193/1 193/194/1
f 189/190/1 188/189/1 194/195/1 195/196/1
f 193/194/1 192/193/1 196/197/1 197/198/1
f 195/196/1 194/195/1 198/199/1 199/200/1
f 197/198/1 196/197/1 200/201/1 201/202/1
f 199/200/1 198/199/1 202/203/1 203/204/1
f 201/202/1 200/201/1 204/205/1 205/206/1
f 203/204/1 202/203/1 206/207/1 207/208/1
f 205/206/1 204/205/1 208/209/1 209/210/1
f 207/208/1 206/207/1 210/211/1 175/175/1
f 209/210/1 208/209/1 211/212/1 212/213/1
f 175/175/1 210/211/1 213/214/1 176/176/1
f 214/215/1 215/216/1 216/217/1 179/218/1
f 176/176/1 213/214/1 217/219/1 177/177/1
f 218/220/2 219/221/2 220/222/2 221/223/2
f 219/221/2 222/224/2 223/225/2 220/222/2
f 222/224/2 224/226/2 225/227/2 223/225/2
f 224/226/2 226/228/2 227/229/2 225/227/2
f 226/228/2 228/230/2 229/231/2 227/229/2
f 228/230/2 230/232/2 231/233/2 229/231/2
f 230/232/2 232/234/2 233/235/2 231/233/2
f 232/234/2 234/236/2 235/237/2 233/235/2
f 234/236/2 236/238/2 237/239/2 235/237/2
f 236/238/2 238/240/2 239/241/2 237/239/2
f 240/242/2 241/243/2 242/244/2 243/245/2
f 221/223/2 220/222/2 244/246/2 245/247/2
f 220/222/2 223/225/2 246/248/2 244/246/2
f 247/249/2 248/250/2 249/251/2 250/252/2
f 248/250/2 251/253/2 252/254/2 249/251/2
f 251/253/2 253/255/2 254/256/2 252/254/2
f 253/255/2 255/257/2 256/258/2 254/256/2
f 255/257/2 257/259/2 258/260/2 256/258/2
f 257/259/2 259/261/2 260/262/2 258/260/2
f 235/237/2 237/239/2 261/263/2 262/264/2
f 263/265/2 264/266/2 265/267/2 266/268/2
f 237/239/2 239/241/2 267/269/2 261/263/2
f 268/270/2 57/271/2 58/272/2 269/273/2
f 245/247/2 244/246/2 270/274/2 271/275/2
f 56/276/2 250/252/2 272/277/2 55/278/2
f 250/252/2 249/251/2 273/279/2 272/277/2
f 249/251/2 252/254/2 274/280/2 273/279/2
f 252/254/2 254/256/2 275/281/2 274/280/2
f 254/256/2 256/258/2 276/282/2 275/281/2
f 256/258/2 258/260/2 277/283/2 276/282/2
f 258/260/2 260/262/2 278/284/2 277/283/2
f 260/262/2 70/285/2 71/286/2 278/284/2
f 67/287/2 279/288/2 280/289/2 66/290/2
f 261/263/2 267/269/2 281/291/2 282/292/2
f 269/273/2 58/272/2 78/293/2 283/294/2
f 271/275/2 270/274/2 284/295/2 285/296/2
f 55/278/2 272/277/2 286/297/2 77/298/2
f 272/277/2 273/279/2 287/299/2 286/297/2
f 273/279/2 274/280/2 288/300/2 287/299/2
f 274/280/2 275/281/2 289/301/2 288/300/2
f 275/281/2 276/282/2 290/302/2 289/301/2
f 276/282/2 277/283/2 291/303/2 290/302/2
f 277/283/2 278/284/2 292/304/2 291/303/2
f 278/284/2 71/286/2 89/305/2 292/304/2
f 66/290/2 280/289/2 293/306/2 86/307/2
f 282/292/2 281/291/2 294/308/2 295/309/2
f 283/294/2 78/293/2 95/310/2 296/311/2
f 285/296/2 284/295/2 297/312/2 298/313/2
f 77/298/2 286/297/2 299/314/2 94/315/2
f 286/297/2 287/299/2 300/316/2 299/314/2
f 287/299/2 288/300/2 301/317/2 300/316/2
f 288/300/2 289/301/2 302/318/2 301/317/2
f 289/301/2 290/302/2 303/319/2 302/318/2
f 290/302/2 291/303/2 304/320/2 303/319/2
f 291/303/2 292/304/2 305/321/2 304/320/2
f 292/304/2 89/305/2 106/322/2 305/321/2
f 86/307/2 293/306/2 306/323/2 103/324/2
f 295/309/2 294/308/2 307/325/2 308/326/2
f 296/311/2 95/310/2 112/327/2 309/328/2
f 298/313/2 297/312/2 310/329/2 311/330/2
f 94/315/2 299/314/2 312/331/2 111/332/2
f 299/314/2 300/316/2 313/333/2 312/331/2
f 300/316/2 301/317/2 314/334/2 313/333/2
f 301/317/2 302/318/2 315/335/2 314/334/2
f 302/318/2 303/319/2 316/336/2 315/335/2
f 303/319/2 304/320/2 317/337/2 316/336/2
f 304/320/2 305/321/2 318/338/2 317/337/2
f 305/321/2 106/322/2 123/339/2 318/338/2
f 103/324/2 306/323/2 319/340/2 120/341/2
f 308/326/2 307/325/2 320/342/2 321/343/2
f 309/328/2 112/327/2 129/344/2 322/345/2
f 311/330/2 310/329/2 323/346/2 324/347/2
f 111/332/2 312/331/2 325/348/2 128/349/2
f 312/331/2 313/333/2 326/350/2 325/348/2
f 313/333/2 314/334/2 327/351/2 326/350/2
f 314/334/2 315/335/2 328/352/2 327/351/2
f 315/335/2 316/336/2 329/353/2 328/352/2
f 316/336/2 317/337/2 330/354/2 329/353/2
f 317/337/2 318/338/2 331/355/2 330/354/2
f 318/338/2 123/339/2 140/356/2 331/355/2
f 120/341/2 319/340/2 332/357/2 137/358/2
f 321/343/2 320/342/2 333/359/2 334/360/2
f 322/345/2 129/344/2 146/361/2 335/362/2
f 324/347/2 323/346/2 336/363/2 337/364/2
f 128/349/2 325/348/2 338/365/2 145/366/2
f 325/348/2 326/350/2 339/367/2 338/365/2
f 326/350/2 327/351/2 340/368/2 339/367/2
f 327/351/2 328/352/2 341/369/2 340/368/2
f 328/352/2 329/353/2 342/370/2 341/369/2
f 329/353/2 330/354/2 343/371/2 342/370/2
f 330/354/2 331/355/2 344/372/2 343/371/2
f 331/355/2 140/356/2 157/373/2 344/372/2
f 137/358/2 332/357/2 345/374/2 154/375/2
f 334/360/2 333/359/2 346/376/2 347/377/2
f 348/378/2 349/379/2 350/380/2 351/381/2
f 337/364/2 336/363/2 352/382/2 353/383/2
f 336/363/2 354/384/2 355/385/2 352/382/2
f 338/365/2 339/367/2 193/386/2 190/387/2
f 339/367/2 340/368/2 197/388/2 193/386/2
f 340/368/2 341/369/2 201/389/2 197/388/2
f 341/369/2 342/370/2 205/390/2 201/389/2
f 342/370/2 343/371/2 209/391/2 205/390/2
f 343/371/2 344/372/2 212/392/2 209/391/2
f 356/393/2 347/377/2 357/394/2 358/395/2
f 359/396/2 360/397/2 361/398/2 362/399/2
f 347/377/2 346/376/2 363/400/2 357/394/2
f 353/383/2 352/382/2 364/401/2 365/402/2
f 350/403/2 366/404/2 367/405/2 368/406/2
f 352/382/2 355/385/2 369/407/2 364/401/2
f 167/408/2 168/409/2 370/410/2 371/411/2
f 355/385/2 372/412/2 373/413/2 369/407/2
f 168/409/2 169/414/2 374/415/2 370/410/2
f 372/412/2 375/416/2 376/417/2 373/413/2
f 169/414/2 170/418/2 377/419/2 374/415/2
f 375/416/2 378/420/2 379/421/2 376/417/2
f 170/418/2 171/422/2 380/423/2 377/419/2
f 378/420/2 381/424/2 382/425/2 379/421/2
f 171/422/2 172/426/2 383/427/2 380/423/2
f 381/424/2 384/428/2 385/429/2 382/425/2
f 172/426/2 173/430/2 386/431/2 383/427/2
f 384/428/2 358/395/2 387/432/2 385/429/2
f 388/433/2 362/434/2 389/435/2 390/436/2
f 358/395/2 357/394/2 391/437/2 387/432/2
f 357/394/2 363/400/2 392/438/2 391/437/2
f 1/439/3 393/440/3 394/441/3 2/442/3
f 393/440/3 395/443/3 240/444/3 394/441/3
f 395/443/3 396/445/3 397/446/3 240/444/3
f 396/445/3 398/447/3 399/448/3 397/446/3
f 398/447/3 400/449/3 401/450/3 399/448/3
f 400/449/3 402/451/3 403/452/3 401/450/3
f 402/451/3 404/453/3 405/454/3 403/452/3
f 404/453/3 406/455/3 25/456/3 405/454/3
f 406/455/3 407/457/3 408/458/3 25/456/3
f 407/457/3 218/459/3 221/460/3 408/458/3
f 2/442/3 394/441/3 268/461/3 23/462/3
f 394/441/3 240/444/3 243/463/3 268/461/3
f 25/456/3 408/458/3 53/464/3 26/465/3
f 408/458/3 221/460/3 245/466/3 53/464/3
f 241/467/3 409/468/3 410/469/3 242/470/3
f 409/468/3 411/471/3 412/472/3 410/469/3
f 411/471/3 413/473/3 414/474/3 412/472/3
f 413/473/3 415/475/3 416/476/3 414/474/3
f 415/475/3 417/477/3 418/478/3 416/476/3
f 417/477/3 28/479/3 27/480/3 418/478/3
f 17/481/3 43/482/3 42/483/3 44/484/3
f 259/485/3 235/486/3 262/487/3 260/488/3
f 23/462/3 268/461/3 269/489/3 51/490/3
f 53/464/3 245/466/3 271/491/3 54/492/3
f 57/271/3 242/470/3 419/493/3 58/272/3
f 242/470/3 410/469/3 420/494/3 419/493/3
f 410/469/3 412/472/3 421/495/3 420/494/3
f 412/472/3 414/474/3 422/496/3 421/495/3
f 414/474/3 416/476/3 423/497/3 422/496/3
f 416/476/3 418/478/3 424/498/3 423/497/3
f 418/478/3 27/480/3 425/499/3 424/498/3
f 27/480/3 56/56/3 55/55/3 425/499/3
f 45/500/3 67/67/3 66/66/3 68/501/3
f 70/285/3 261/502/3 282/503/3 71/286/3
f 51/490/3 269/489/3 283/504/3 74/505/3
f 54/492/3 271/491/3 285/506/3 76/507/3
f 58/272/3 419/493/3 426/508/3 78/293/3
f 419/493/3 420/494/3 427/509/3 426/508/3
f 420/494/3 421/495/3 428/510/3 427/509/3
f 421/495/3 422/496/3 429/511/3 428/510/3
f 422/496/3 423/497/3 430/512/3 429/511/3
f 423/497/3 424/498/3 431/513/3 430/512/3
f 424/498/3 425/499/3 432/514/3 431/513/3
f 425/499/3 55/55/3 77/77/3 432/514/3
f 68/501/3 66/66/3 86/86/3 87/515/3
f 71/286/3 282/503/3 295/516/3 89/305/3
f 74/505/3 283/504/3 296/517/3 91/518/3
f 76/507/3 285/506/3 298/519/3 93/520/3
f 78/293/3 426/508/3 433/521/3 95/310/3
f 426/508/3 427/509/3 434/522/3 433/521/3
f 427/509/3 428/510/3 435/523/3 434/522/3
f 428/510/3 429/511/3 436/524/3 435/523/3
f 429/511/3 430/512/3 437/525/3 436/524/3
f 430/512/3 431/513/3 438/526/3 437/525/3
f 431/513/3 432/514/3 439/527/3 438/526/3
f 432/514/3 77/77/3 94/94/3 439/527/3
f 87/515/3 86/86/3 103/103/3 104/528/3
f 89/305/3 295/516/3 308/529/3 106/322/3
f 91/518/3 296/517/3 309/530/3 108/531/3
f 93/520/3 298/519/3 311/532/3 110/533/3
f 95/310/3 433/521/3 440/534/3 112/327/3
f 433/521/3 434/522/3 441/535/3 440/534/3
f 434/522/3 435/523/3 442/536/3 441/535/3
f 435/523/3 436/524/3 443/537/3 442/536/3
f 436/524/3 437/525/3 444/538/3 443/537/3
f 437/525/3 438/526/3 445/539/3 444/538/3
f 438/526/3 439/527/3 446/540/3 445/539/3
f 439/527/3 94/94/3 111/111/3 446/540/3
f 104/528/3 103/103/3 120/120/3 121/541/3
f 106/322/3 308/529/3 321/542/3 123/339/3
f 108/531/3 309/530/3 322/543/3 125/544/3
f 110/533/3 311/532/3 324/545/3 127/546/3
f 112/327/3 440/534/3 447/547/3 129/344/3
f 440/534/3 441/535/3 448/548/3 447/547/3
f 441/535/3 442/536/3 449/549/3 448/548/3
f 442/536/3 443/537/3 450/550/3 449/549/3
f 443/537/3 444/538/3 451/551/3 450/550/3
f 444/538/3 445/539/3 452/552/3 451/551/3
f 445/539/3 446/540/3 453/553/3 452/552/3
f 446/540/3 111/111/3 128/128/3 453/553/3
f 121/541/3 120/120/3 137/137/3 138/554/3
f 123/339/3 321/542/3 334/555/3 140/356/3
f 125/544/3 322/543/3 335/556/3 142/557/3
f 127/546/3 324/545/3 337/558/3 144/559/3
f 129/344/3 447/547/3 349/560/3 146/361/3
f 447/547/3 448/548/3 454/561/3 349/560/3
f 448/548/3 449/549/3 455/562/3 454/561/3
f 449/549/3 450/550/3 456/563/3 455/562/3
f 450/550/3 451/551/3 457/564/3 456/563/3
f 451/551/3 452/552/3 458/565/3 457/564/3
f 452/552/3 453/553/3 164/566/3 458/565/3
f 453/553/3 128/128/3 145/145/3 164/566/3
f 138/554/3 137/137/3 154/154/3 155/567/3
f 140/356/3 334/555/3 347/568/3 157/373/3
f 142/557/3 335/556/3 459/569/3 159/570/3
f 335/556/3 348/571/3 351/572/3 459/569/3
f 161/573/3 144/559/3 460/574/3 162/575/3
f 144/559/3 337/558/3 353/576/3 460/574/3
f 349/560/3 454/561/3 461/577/3 350/578/3
f 454/561/3 455/562/3 462/579/3 461/577/3
f 455/562/3 456/563/3 463/580/3 462/579/3
f 456/563/3 457/564/3 464/581/3 463/580/3
f 457/564/3 458/565/3 465/582/3 464/581/3
f 458/565/3 164/566/3 163/583/3 465/582/3
f 174/584/3 153/585/3 173/586/3 175/587/3
f 344/588/3 356/589/3 358/590/3 212/591/3
f 159/570/3 459/569/3 466/592/3 182/593/3
f 459/569/3 351/572/3 467/594/3 466/592/3
f 351/572/3 468/595/3 469/596/3 467/594/3
f 468/595/3 470/597/3 471/598/3 469/596/3
f 470/597/3 472/599/3 473/600/3 471/598/3
f 472/599/3 474/601/3 475/602/3 473/600/3
f 474/601/3 476/603/3 477/604/3 475/602/3
f 476/603/3 162/575/3 478/605/3 477/604/3
f 162/575/3 460/574/3 479/606/3 478/605/3
f 460/574/3 353/576/3 365/607/3 479/606/3
f 173/608/3 388/609/3 390/610/3 386/611/3
f 214/612/3 212/613/3 211/614/3 215/615/3
f 362/616/3 480/617/3 481/618/3 389/619/3
f 480/617/3 482/620/3 483/621/3 481/618/3
f 482/620/3 484/622/3 485/623/3 483/621/3
f 484/622/3 486/624/3 487/625/3 485/623/3
f 486/624/3 488/626/3 489/627/3 487/625/3
f 488/626/3 179/628/3 216/629/3 489/627/3
f 22/630/4 21/631/4 490/632/4 491/633/4
f 491/633/4 490/632/4 264/634/4 492/635/4
f 492/635/4 264/634/4 493/636/4 494/637/4
f 494/637/4 493/636/4 495/638/4 496/639/4
f 496/639/4 495/638/4 497/640/4 498/641/4
f 498/641/4 497/640/4 499/642/4 500/643/4
f 500/643/4 499/642/4 501/644/4 502/645/4
f 502/645/4 501/644/4 50/646/4 503/647/4
f 503/647/4 50/646/4 504/648/4 505/649/4
f 505/649/4 504/648/4 239/650/4 238/651/4
f 5/652/4 29/653/4 31/654/4 30/655/4
f 247/656/4 250/657/4 246/658/4 223/659/4
f 263/660/4 266/661/4 506/662/4 507/663/4
f 507/663/4 506/662/4 508/664/4 509/665/4
f 509/665/4 508/664/4 510/666/4 511/667/4
f 511/667/4 510/666/4 512/668/4 513/669/4
f 513/669/4 512/668/4 514/670/4 515/671/4
f 515/671/4 514/670/4 48/672/4 47/673/4
f 21/631/4 46/674/4 279/675/4 490/632/4
f 490/632/4 279/675/4 265/676/4 264/634/4
f 50/646/4 49/677/4 73/678/4 504/648/4
f 504/648/4 73/678/4 267/679/4 239/650/4
f 24/680/4 52/681/4 58/58/4 57/57/4
f 56/276/4 55/278/4 270/682/4 244/683/4
f 67/287/4 66/290/4 516/684/4 266/661/4
f 266/661/4 516/684/4 517/685/4 506/662/4
f 506/662/4 517/685/4 518/686/4 508/664/4
f 508/664/4 518/686/4 519/687/4 510/666/4
f 510/666/4 519/687/4 520/688/4 512/668/4
f 512/668/4 520/688/4 521/689/4 514/670/4
f 514/670/4 521/689/4 522/690/4 48/672/4
f 48/672/4 522/690/4 71/71/4 70/70/4
f 46/674/4 69/691/4 280/692/4 279/675/4
f 73/678/4 72/693/4 281/694/4 267/679/4
f 52/681/4 75/695/4 78/78/4 58/58/4
f 55/278/4 77/298/4 284/696/4 270/682/4
f 66/290/4 86/307/4 523/697/4 516/684/4
f 516/684/4 523/697/4 524/698/4 517/685/4
f 517/685/4 524/698/4 525/699/4 518/686/4
f 518/686/4 525/699/4 526/700/4 519/687/4
f 519/687/4 526/700/4 527/701/4 520/688/4
f 520/688/4 527/701/4 528/702/4 521/689/4
f 521/689/4 528/702/4 529/703/4 522/690/4
f 522/690/4 529/703/4 89/89/4 71/71/4
f 69/691/4 88/704/4 293/705/4 280/692/4
f 72/693/4 90/706/4 294/707/4 281/694/4
f 75/695/4 92/708/4 95/95/4 78/78/4
f 77/298/4 94/315/4 297/709/4 284/696/4
f 86/307/4 103/324/4 530/710/4 523/697/4
f 523/697/4 530/710/4 531/711/4 524/698/4
f 524/698/4 531/711/4 532/712/4 525/699/4
f 525/699/4 532/712/4 533/713/4 526/700/4
f 526/700/4 533/713/4 534/714/4 527/701/4
f 527/701/4 534/714/4 535/715/4 528/702/4
f 528/702/4 535/715/4 536/716/4 529/703/4
f 529/703/4 536/716/4 106/106/4 89/89/4
f 88/704/4 105/717/4 306/718/4 293/705/4
f 90/706/4 107/719/4 307/720/4 294/707/4
f 92/708/4 109/721/4 112/112/4 95/95/4
f 94/315/4 111/332/4 310/722/4 297/709/4
f 103/324/4 120/341/4 537/723/4 530/710/4
f 530/710/4 537/723/4 538/724/4 531/711/4
f 531/711/4 538/724/4 539/725/4 532/712/4
f 532/712/4 539/725/4 540/726/4 533/713/4
f 533/713/4 540/726/4 541/727/4 534/714/4
f 534/714/4 541/727/4 542/728/4 535/715/4
f 535/715/4 542/728/4 543/729/4 536/716/4
f 536/716/4 543/729/4 123/123/4 106/106/4
f 105/717/4 122/730/4 319/731/4 306/718/4
f 107/719/4 124/732/4 320/733/4 307/720/4
f 109/721/4 126/734/4 129/129/4 112/112/4
f 111/332/4 128/349/4 323/735/4 310/722/4
f 120/341/4 137/358/4 544/736/4 537/723/4
f 537/723/4 544/736/4 545/737/4 538/724/4
f 538/724/4 545/737/4 546/738/4 539/725/4
f 539/725/4 546/738/4 547/739/4 540/726/4
f 540/726/4 547/739/4 548/740/4 541/727/4
f 541/727/4 548/740/4 549/741/4 542/728/4
f 542/728/4 549/741/4 550/742/4 543/729/4
f 543/729/4 550/742/4 140/140/4 123/123/4
f 122/730/4 139/743/4 332/744/4 319/731/4
f 124/732/4 141/745/4 333/746/4 320/733/4
f 126/734/4 143/747/4 146/146/4 129/129/4
f 128/349/4 145/366/4 336/748/4 323/735/4
f 137/358/4 154/375/4 359/749/4 544/736/4
f 544/736/4 359/749/4 551/750/4 545/737/4
f 545/737/4 551/750/4 552/751/4 546/738/4
f 546/738/4 552/751/4 553/752/4 547/739/4
f 547/739/4 553/752/4 554/753/4 548/740/4
f 548/740/4 554/753/4 555/754/4 549/741/4
f 549/741/4 555/754/4 178/755/4 550/742/4
f 550/742/4 178/755/4 157/157/4 140/140/4
f 139/743/4 156/756/4 345/757/4 332/744/4
f 141/745/4 158/758/4 346/759/4 333/746/4
f 166/760/4 165/761/4 167/762/4 147/763/4
f 338/764/4 190/765/4 355/766/4 354/767/4
f 359/749/4 362/768/4 480/769/4 551/750/4
f 551/750/4 480/769/4 482/770/4 552/751/4
f 552/751/4 482/770/4 484/771/4 553/752/4
f 553/752/4 484/771/4 486/772/4 554/753/4
f 554/753/4 486/772/4 488/773/4 555/754/4
f 555/754/4 488/773/4 179/774/4 178/755/4
f 156/756/4 177/775/4 556/776/4 345/757/4
f 345/757/4 556/776/4 361/777/4 360/778/4
f 181/779/4 180/780/4 557/781/4 158/758/4
f 158/758/4 557/781/4 363/782/4 346/759/4
f 350/783/4 368/784/4 558/785/4 461/786/4
f 461/786/4 558/785/4 559/787/4 462/788/4
f 462/788/4 559/787/4 560/789/4 463/790/4
f 463/790/4 560/789/4 561/791/4 464/792/4
f 464/792/4 561/791/4 562/793/4 465/794/4
f 465/794/4 562/793/4 185/795/4 163/796/4
f 167/797/4 371/798/4 367/799/4 366/800/4
f 187/801/4 186/802/4 191/803/4 190/804/4
f 177/775/4 217/805/4 563/806/4 556/776/4
f 556/776/4 563/806/4 564/807/4 361/777/4
f 361/777/4 564/807/4 565/808/4 566/809/4
f 566/809/4 565/808/4 567/810/4 568/811/4
f 568/811/4 567/810/4 569/812/4 570/813/4
f 570/813/4 569/812/4 571/814/4 572/815/4
f 572/815/4 571/814/4 573/816/4 574/817/4
f 574/817/4 573/816/4 575/818/4 180/780/4
f 180/780/4 575/818/4 576/819/4 557/781/4
f 557/781/4 576/819/4 392/820/4 363/782/4
f 1/821/5 4/822/5 577/823/5 393/824/5
f 393/824/5 577/823/5 578/825/5 395/826/5
f 395/826/5 578/825/5 579/827/5 396/828/5
f 396/828/5 579/827/5 580/829/5 398/830/5
f 398/830/5 580/829/5 581/831/5 400/832/5
f 400/832/5 581/831/5 582/833/5 402/834/5
f 402/834/5 582/833/5 583/835/5 404/836/5
f 404/836/5 583/835/5 584/837/5 406/838/5
f 406/838/5 584/837/5 585/839/5 407/840/5
f 407/840/5 585/839/5 219/841/5 218/842/5
f 4/822/5 6/843/5 586/844/5 577/823/5
f 577/823/5 586/844/5 587/845/5 578/825/5
f 578/825/5 587/845/5 588/846/5 579/827/5
f 579/827/5 588/846/5 589/847/5 580/829/5
f 580/829/5 589/847/5 590/848/5 581/831/5
f 581/831/5 590/848/5 591/849/5 582/833/5
f 582/833/5 591/849/5 592/850/5 583/835/5
f 583/835/5 592/850/5 593/851/5 584/837/5
f 584/837/5 593/851/5 594/852/5 585/839/5
f 585/839/5 594/852/5 222/853/5 219/841/5
f 6/843/5 8/854/5 595/855/5 586/844/5
f 586/844/5 595/855/5 596/856/5 587/845/5
f 587/845/5 596/856/5 597/857/5 588/846/5
f 588/846/5 597/857/5 598/858/5 589/847/5
f 589/847/5 598/858/5 599/859/5 590/848/5
f 590/848/5 599/859/5 600/860/5 591/849/5
f 591/849/5 600/860/5 601/861/5 592/850/5
f 592/850/5 601/861/5 602/862/5 593/851/5
f 593/851/5 602/862/5 603/863/5 594/852/5
f 594/852/5 603/863/5 224/864/5 222/853/5
f 8/854/5 10/865/5 604/866/5 595/855/5
f 595/855/5 604/866/5 605/867/5 596/856/5
f 596/856/5 605/867/5 606/868/5 597/857/5
f 597/857/5 606/868/5 607/869/5 598/858/5
f 598/858/5 607/869/5 608/870/5 599/859/5
f 599/859/5 608/870/5 609/871/5 600/860/5
f 600/860/5 609/871/5 610/872/5 601/861/5
f 601/861/5 610/872/5 611/873/5 602/862/5
f 602/862/5 611/873/5 612/874/5 603/863/5
f 603/863/5 612/874/5 226/875/5 224/864/5
f 10/865/5 12/876/5 613/877/5 604/866/5
f 604/866/5 613/877/5 614/878/5 605/867/5
f 605/867/5 614/878/5 615/879/5 606/868/5
f 606/868/5 615/879/5 616/880/5 607/869/5
f 607/869/5 616/880/5 617/881/5 608/870/5
f 608/870/5 617/881/5 618/882/5 609/871/5
f 609/871/5 618/882/5 619/883/5 610/872/5
f 610/872/5 619/883/5 620/884/5 611/873/5
f 611/873/5 620/884/5 621/885/5 612/874/5
f 612/874/5 621/885/5 228/886/5 226/875/5
f 12/876/5 14/887/5 622/888/5 613/877/5
f 613/877/5 622/888/5 623/889/5 614/878/5
f 614/878/5 623/889/5 624/890/5 615/879/5
f 615/879/5 624/890/5 625/891/5 616/880/5
f 616/880/5 625/891/5 626/892/5 617/881/5
f 617/881/5 626/892/5 627/893/5 618/882/5
f 618/882/5 627/893/5 628/894/5 619/883/5
f 619/883/5 628/894/5 629/895/5 620/884/5
f 620/884/5 629/895/5 630/896/5 621/885/5
f 621/885/5 630/896/5 230/897/5 228/886/5
f 14/887/5 16/898/5 631/899/5 622/888/5
f 622/888/5 631/899/5 632/900/5 623/889/5
f 623/889/5 632/900/5 633/901/5 624/890/5
f 624/890/5 633/901/5 634/902/5 625/891/5
f 625/891/5 634/902/5 635/903/5 626/892/5
f 626/892/5 635/903/5 636/904/5 627/893/5
f 627/893/5 636/904/5 637/905/5 628/894/5
f 628/894/5 637/905/5 638/906/5 629/895/5
f 629/895/5 638/906/5 639/907/5 630/896/5
f 630/896/5 639/907/5 232/908/5 230/897/5
f 16/898/5 18/909/5 640/910/5 631/899/5
f 631/899/5 640/910/5 641/911/5 632/900/5
f 632/900/5 641/911/5 642/912/5 633/901/5
f 633/901/5 642/912/5 643/913/5 634/902/5
f 634/902/5 643/913/5 644/914/5 635/903/5
f 635/903/5 644/914/5 645/915/5 636/904/5
f 636/904/5 645/915/5 646/916/5 637/905/5
f 637/905/5 646/916/5 647/917/5 638/906/5
f 638/906/5 647/917/5 648/918/5 639/907/5
f 639/907/5 648/918/5 234/919/5 232/908/5
f 18/909/5 20/920/5 649/921/5 640/910/5
f 640/910/5 649/921/5 650/922/5 641/911/5
f 641/911/5 650/922/5 651/923/5 642/912/5
f 642/912/5 651/923/5 652/924/5 643/913/5
f 643/913/5 652/924/5 653/925/5 644/914/5
f 644/914/5 653/925/5 654/926/5 645/915/5
f 645/915/5 654/926/5 655/927/5 646/916/5
f 646/916/5 655/927/5 656/928/5 647/917/5
f 647/917/5 656/928/5 657/929/5 648/918/5
f 648/918/5 657/929/5 236/930/5 234/919/5
f 20/920/5 22/931/5 491/932/5 649/921/5
f 649/921/5 491/932/5 492/933/5 650/922/5
f 650/922/5 492/933/5 494/934/5 651/923/5
f 651/923/5 494/934/5 496/935/5 652/924/5
f 652/924/5 496/935/5 498/936/5 653/925/5
f 653/925/5 498/936/5 500/937/5 654/926/5
f 654/926/5 500/937/5 502/938/5 655/927/5
f 655/927/5 502/938/5 503/939/5 656/928/5
f 656/928/5 503/939/5 505/940/5 657/929/5
f 657/929/5 505/940/5 238/941/5 236/930/5
f 335/942/5 146/943/5 349/944/5 348/945/5
f 161/946/5 164/947/5 145/948/5 144/949/5
f 143/950/5 166/951/5 147/952/5 146/953/5
f 145/954/5 338/955/5 354/956/5 336/957/5
f 174/958/5 155/959/5 154/960/5 153/961/5
f 344/962/5 157/963/5 347/964/5 356/965/5
f 154/966/5 345/967/5 360/968/5 359/969/5
f 178/970/5 181/971/5 158/972/5 157/973/5
f 351/974/5 350/975/5 461/976/5 468/977/5
f 468/977/5 461/976/5 462/978/5 470/979/5
f 470/979/5 462/978/5 463/980/5 472/981/5
f 472/981/5 463/980/5 464/982/5 474/983/5
f 474/983/5 464/982/5 465/984/5 476/985/5
f 476/985/5 465/984/5 163/986/5 162/987/5
f 165/988/5 189/989/5 168/990/5 167/991/5
f 190/992/5 193/993/5 372/994/5 355/995/5
f 189/989/5 195/996/5 169/997/5 168/990/5
f 193/993/5 197/998/5 375/999/5 372/994/5
f 195/996/5 199/1000/5 170/1001/5 169/997/5
f 197/998/5 201/1002/5 378/1003/5 375/999/5
f 199/1000/5 203/1004/5 171/1005/5 170/1001/5
f 201/1002/5 205/1006/5 381/1007/5 378/1003/5
f 203/1004/5 207/1008/5 172/1009/5 171/1005/5
f 205/1006/5 209/1010/5 384/1011/5 381/1007/5
f 207/1008/5 175/1012/5 173/1013/5 172/1009/5
f 209/1010/5 212/1014/5 358/1015/5 384/1011/5
f 362/1016/5 361/1017/5 566/1018/5 480/1019/5
f 480/1019/5 566/1018/5 568/1020/5 482/1021/5
f 482/1021/5 568/1020/5 570/1022/5 484/1023/5
f 484/1023/5 570/1022/5 572/1024/5 486/1025/5
f 486/1025/5 572/1024/5 574/1026/5 488/1027/5
f 488/1027/5 574/1026/5 180/1028/5 179/1029/5
f 240/1030/6 397/1031/6 409/1032/6 241/1033/6
f 397/1031/6 399/1034/6 411/1035/6 409/1032/6
f 399/1034/6 401/1036/6 413/1037/6 411/1035/6
f 401/1036/6 403/1038/6 415/1039/6 413/1037/6
f 403/1038/6 405/1040/6 417/1041/6 415/1039/6
f 405/1040/6 25/1042/6 28/1043/6 417/1041/6
f 5/1044/6 30/1045/6 33/1046/6 7/1047/6
f 247/1048/6 223/1049/6 225/1050/6 248/1051/6
f 7/1047/6 33/1046/6 35/1052/6 9/1053/6
f 248/1051/6 225/1050/6 227/1054/6 251/1055/6
f 9/1053/6 35/1052/6 37/1056/6 11/1057/6
f 251/1055/6 227/1054/6 229/1058/6 253/1059/6
f 11/1057/6 37/1056/6 39/1060/6 13/1061/6
f 253/1059/6 229/1058/6 231/1062/6 255/1063/6
f 13/1061/6 39/1060/6 41/1064/6 15/1065/6
f 255/1063/6 231/1062/6 233/1066/6 257/1067/6
f 15/1065/6 41/1064/6 43/1068/6 17/1069/6
f 257/1067/6 233/1066/6 235/1070/6 259/1071/6
f 263/1072/6 507/1073/6 493/1074/6 264/1075/6
f 507/1073/6 509/1076/6 495/1077/6 493/1074/6
f 509/1076/6 511/1078/6 497/1079/6 495/1077/6
f 511/1078/6 513/1080/6 499/1081/6 497/1079/6
f 513/1080/6 515/1082/6 501/1083/6 499/1081/6
f 515/1082/6 47/1084/6 50/1085/6 501/1083/6
f 268/1086/6 243/1087/6 242/1088/6 57/1089/6
f 26/1090/6 53/1091/6 56/1092/6 27/1093/6
f 24/1094/6 57/1095/6 31/1096/6 29/1097/6
f 56/1098/6 244/1099/6 246/1100/6 250/1101/6
f 44/1102/6 42/1103/6 67/1104/6 45/1105/6
f 260/1106/6 262/1107/6 261/1108/6 70/1109/6
f 67/1110/6 266/1111/6 265/1112/6 279/1113/6
f 48/1114/6 70/1115/6 73/1116/6 49/1117/6
f 350/1118/6 461/1119/6 658/1120/6 366/1121/6
f 461/1119/6 462/1122/6 659/1123/6 658/1120/6
f 462/1122/6 463/1124/6 660/1125/6 659/1123/6
f 463/1124/6 464/1126/6 661/1127/6 660/1125/6
f 464/1126/6 465/1128/6 662/1129/6 661/1127/6
f 465/1128/6 163/1130/6 187/1131/6 662/1129/6
f 167/1132/6 366/1121/6 663/1133/6 168/1134/6
f 366/1121/6 658/1120/6 664/1135/6 663/1133/6
f 658/1120/6 659/1123/6 665/1136/6 664/1135/6
f 659/1123/6 660/1125/6 666/1137/6 665/1136/6
f 660/1125/6 661/1127/6 667/1138/6 666/1137/6
f 661/1127/6 662/1129/6 668/1139/6 667/1138/6
f 662/1129/6 187/1131/6 669/1140/6 668/1139/6
f 187/1131/6 190/1141/6 193/1142/6 669/1140/6
f 168/1134/6 663/1133/6 670/1143/6 169/1144/6
f 663/1133/6 664/1135/6 671/1145/6 670/1143/6
f 664/1135/6 665/1136/6 672/1146/6 671/1145/6
f 665/1136/6 666/1137/6 673/1147/6 672/1146/6
f 666/1137/6 667/1138/6 674/1148/6 673/1147/6
f 667/1138/6 668/1139/6 675/1149/6 674/1148/6
f 668/1139/6 669/1140/6 676/1150/6 675/1149/6
f 669/1140/6 193/1142/6 197/1151/6 676/1150/6
f 169/1144/6 670/1143/6 677/1152/6 170/1153/6
f 670/1143/6 671/1145/6 678/1154/6 677/1152/6
f 671/1145/6 672/1146/6 679/1155/6 678/1154/6
f 672/1146/6 673/1147/6 680/1156/6 679/1155/6
f 673/1147/6 674/1148/6 681/1157/6 680/1156/6
f 674/1148/6 675/1149/6 682/1158/6 681/1157/6
f 675/1149/6 676/1150/6 683/1159/6 682/1158/6
f 676/1150/6 197/1151/6 201/1160/6 683/1159/6
f 170/1153/6 677/1152/6 684/1161/6 171/1162/6
f 677/1152/6 678/1154/6 685/1163/6 684/1161/6
f 678/1154/6 679/1155/6 686/1164/6 685/1163/6
f 679/1155/6 680/1156/6 687/1165/6 686/1164/6
f 680/1156/6 681/1157/6 688/1166/6 687/1165/6
f 681/1157/6 682/1158/6 689/1167/6 688/1166/6
f 682/1158/6 683/1159/6 690/1168/6 689/1167/6
f 683/1159/6 201/1160/6 205/1169/6 690/1168/6
f 171/1162/6 684/1161/6 691/1170/6 172/1171/6
f 684/1161/6 685/1163/6 692/1172/6 691/1170/6
f 685/1163/6 686/1164/6 693/1173/6 692/1172/6
f 686/1164/6 687/1165/6 694/1174/6 693/1173/6
f 687/1165/6 688/1166/6 695/1175/6 694/1174/6
f 688/1166/6 689/1167/6 696/1176/6 695/1175/6
f 689/1167/6 690/1168/6 697/1177/6 696/1176/6
f 690/1168/6 205/1169/6 209/1178/6 697/1177/6
f 172/1171/6 691/1170/6 388/1179/6 173/1180/6
f 691/1170/6 692/1172/6 698/1181/6 388/1179/6
f 692/1172/6 693/1173/6 699/1182/6 698/1181/6
f 693/1173/6 694/1174/6 700/1183/6 699/1182/6
f 694/1174/6 695/1175/6 701/1184/6 700/1183/6
f 695/1175/6 696/1176/6 702/1185/6 701/1184/6
f 696/1176/6 697/1177/6 214/1186/6 702/1185/6
f 697/1177/6 209/1178/6 212/1187/6 214/1186/6
f 388/1179/6 698/1181/6 480/1188/6 362/1189/6
f 698/1181/6 699/1182/6 482/1190/6 480/1188/6
f 699/1182/6 700/1183/6 484/1191/6 482/1190/6
f 700/1183/6 701/1184/6 486/1192/6 484/1191/6
f 701/1184/6 702/1185/6 488/1193/6 486/1192/6
f 702/1185/6 214/1186/6 179/1194/6 488/1193/6
f 182/1195/6 466/1196/6 703/1197/6 183/1198/6
f 466/1196/6 467/1199/6 368/1200/6 703/1197/6
f 467/1199/6 469/1201/6 558/1202/6 368/1200/6
f 469/1201/6 471/1203/6 559/1204/6 558/1202/6
f 471/1203/6 473/1205/6 560/1206/6 559/1204/6
f 473/1205/6 475/1207/6 561/1208/6 560/1206/6
f 475/1207/6 477/1209/6 562/1210/6 561/1208/6
f 477/1209/6 478/1211/6 185/1212/6 562/1210/6
f 478/1211/6 479/1213/6 704/1214/6 185/1212/6
f 479/1213/6 365/1215/6 364/1216/6 704/1214/6
f 183/1198/6 703/1197/6 371/1217/6 184/1218/6
f 703/1197/6 368/1200/6 367/1219/6 371/1217/6
f 185/1212/6 704/1214/6 191/1220/6 186/1221/6
f 704/1214/6 364/1216/6 369/1222/6 191/1220/6
f 184/1218/6 371/1217/6 370/1223/6 188/1224/6
f 191/1220/6 369/1222/6 373/1225/6 192/1226/6
f 188/1224/6 370/1223/6 374/1227/6 194/1228/6
f 192/1226/6 373/1225/6 376/1229/6 196/1230/6
f 194/1228/6 374/1227/6 377/1231/6 198/1232/6
f 196/1230/6 376/1229/6 379/1233/6 200/1234/6
f 198/1232/6 377/1231/6 380/1235/6 202/1236/6
f 200/1234/6 379/1233/6 382/1237/6 204/1238/6
f 202/1236/6 380/1235/6 383/1239/6 206/1240/6
f 204/1238/6 382/1237/6 385/1241/6 208/1242/6
f 206/1240/6 383/1239/6 386/1243/6 210/1244/6
f 208/1242/6 385/1241/6 387/1245/6 211/1246/6
f 210/1244/6 386/1243/6 705/1247/6 213/1248/6
f 386/1243/6 390/1249/6 389/1250/6 705/1247/6
f 215/1251/6 211/1246/6 706/1252/6 216/1253/6
f 211/1246/6 387/1245/6 391/1254/6 706/1252/6
f 213/1248/6 705/1247/6 563/1255/6 217/1256/6
f 705/1247/6 389/1250/6 564/1257/6 563/1255/6
f 389/1250/6 481/1258/6 565/1259/6 564/1257/6
f 481/1258/6 483/1260/6 567/1261/6 565/1259/6
f 483/1260/6 485/1262/6 569/1263/6 567/1261/6
f 485/1262/6 487/1264/6 571/1265/6 569/1263/6
f 487/1264/6 489/1266/6 573/1267/6 571/1265/6
f 489/1266/6 216/1253/6 575/1268/6 573/1267/6
f 216/1253/6 706/1252/6 576/1269/6 575/1268/6
f 706/1252/6 391/1254/6 392/1270/6 576/1269/6
