# Blender 5.1.0
# www.blender.org
mtllib NPC_1.mtl
o NPC_1
v -0.400000 0.004028 -0.035575
v -0.400000 0.101098 -0.011544
v -0.400000 0.125130 -0.108613
v -0.400000 0.028061 -0.132644
v 0.100000 0.109785 0.411319
v 0.100000 0.206377 0.385437
v 0.100000 0.180495 0.288845
v 0.100000 0.083902 0.314726
v -0.400000 0.149162 -0.205682
v -0.400000 0.052093 -0.229714
v 0.100000 0.154612 0.192252
v 0.100000 0.058020 0.218133
v -0.400000 0.173195 -0.302752
v -0.400000 0.076125 -0.326783
v 0.100000 0.128730 0.095660
v 0.100000 0.032137 0.121541
v -0.400000 0.197227 -0.399821
v -0.400000 0.100158 -0.423852
v 0.100000 0.102847 -0.000933
v 0.100000 0.006255 0.024948
v -0.400000 0.246232 -0.181651
v -0.400000 0.270264 -0.278721
v 0.100000 0.251205 0.166371
v 0.100000 0.225322 0.069778
v -0.400000 0.294297 -0.375790
v 0.100000 0.199440 -0.026814
v -0.300000 0.400000 -0.000000
v -0.300000 0.500000 -0.000000
v -0.300000 0.500000 -0.100000
v -0.300000 0.400000 -0.100000
v -0.300000 0.500000 -0.200000
v -0.300000 0.400000 -0.200000
v -0.300000 0.500000 -0.300000
v -0.300000 0.400000 -0.300000
v -0.800000 0.570580 0.094676
v -0.800000 0.664382 0.060019
v -0.800000 0.629725 -0.033783
v -0.800000 0.535923 0.000874
v -0.300000 0.600000 -0.000000
v -0.300000 0.600000 -0.100000
v 0.500000 0.471399 -0.082757
v 0.500000 0.567992 -0.056875
v 0.500000 0.593874 -0.153468
v 0.500000 0.497281 -0.179350
v -0.800000 0.595067 -0.127586
v -0.800000 0.501265 -0.092928
v -0.300000 0.600000 -0.200000
v 0.500000 0.619756 -0.250060
v 0.500000 0.523163 -0.275942
v -0.800000 0.560409 -0.221388
v -0.800000 0.466607 -0.186730
v -0.300000 0.600000 -0.300000
v 0.500000 0.645638 -0.346653
v 0.500000 0.549045 -0.372535
v -0.800000 0.758185 0.025361
v -0.800000 0.723527 -0.068441
v -0.300000 0.700000 -0.000000
v -0.300000 0.700000 -0.100000
v 0.500000 0.664585 -0.030993
v 0.500000 0.690466 -0.127586
v -0.800000 0.688869 -0.162243
v -0.300000 0.700000 -0.200000
v 0.500000 0.716348 -0.224178
v -0.800000 0.654211 -0.256045
v -0.300000 0.700000 -0.300000
v 0.500000 0.742230 -0.320771
v -0.400000 0.700000 0.100000
v -0.400000 0.800000 0.100000
v -0.400000 0.800000 -0.000000
v -0.400000 0.700000 -0.000000
v 0.100000 0.700000 0.100000
v 0.100000 0.800000 0.100000
v 0.100000 0.800000 -0.000000
v 0.100000 0.700000 -0.000000
v -0.800000 0.851987 -0.009297
v -0.800000 0.817329 -0.103099
v -0.400000 0.800000 -0.100000
v -0.400000 0.700000 -0.100000
v 0.500000 0.761177 -0.005111
v 0.500000 0.787059 -0.101704
v -0.800000 0.782671 -0.196901
v -0.400000 0.800000 -0.200000
v -0.400000 0.700000 -0.200000
v 0.500000 0.812941 -0.198296
v -0.800000 0.748013 -0.290703
v -0.400000 0.800000 -0.300000
v -0.400000 0.700000 -0.300000
v 0.500000 0.838823 -0.294889
v -0.400000 0.800000 -0.400000
v -0.400000 0.700000 -0.400000
v -0.400000 0.900000 0.100000
v -0.400000 0.900000 -0.000000
v 0.100000 0.900000 0.100000
v 0.100000 0.900000 -0.000000
v -0.400000 0.900000 -0.100000
v -0.400000 0.900000 -0.200000
v -0.400000 0.900000 -0.300000
v -0.400000 0.900000 -0.400000
v -0.400000 1.000000 0.100000
v -0.400000 1.000000 -0.000000
v 0.100000 1.000000 0.100000
v 0.100000 1.000000 -0.000000
v -0.400000 1.000000 -0.100000
v -0.400000 1.000000 -0.200000
v -0.400000 1.000000 -0.300000
v -0.400000 1.000000 -0.400000
v -0.400000 1.100000 0.100000
v -0.400000 1.100000 -0.000000
v 0.100000 1.100000 0.100000
v 0.100000 1.100000 -0.000000
v -0.400000 1.100000 -0.100000
v -0.400000 1.100000 -0.200000
v -0.400000 1.100000 -0.300000
v -0.400000 1.100000 -0.400000
v -0.100000 1.100000 -0.100000
v -0.100000 1.200000 -0.100000
v -0.100000 1.200000 -0.200000
v -0.100000 1.100000 -0.200000
v -0.100000 1.200000 -0.300000
v -0.100000 1.100000 -0.300000
v -0.300000 1.200000 0.100000
v -0.300000 1.300000 0.100000
v -0.300000 1.300000 -0.000000
v -0.300000 1.200000 -0.000000
v -0.300000 1.300000 -0.100000
v -0.300000 1.200000 -0.100000
v -0.300000 1.300000 -0.200000
v -0.300000 1.200000 -0.200000
v -0.300000 1.300000 -0.300000
v -0.300000 1.200000 -0.300000
v -0.300000 1.300000 -0.400000
v -0.300000 1.200000 -0.400000
v -0.300000 1.400000 0.100000
v -0.300000 1.400000 -0.000000
v -0.300000 1.400000 -0.100000
v -0.300000 1.400000 -0.200000
v -0.300000 1.400000 -0.300000
v -0.300000 1.400000 -0.400000
v -0.100000 1.400000 0.200000
v -0.100000 1.500000 0.200000
v -0.100000 1.500000 0.100000
v -0.100000 1.400000 0.100000
v -0.300000 1.500000 0.100000
v -0.300000 1.500000 -0.000000
v -0.300000 1.500000 -0.100000
v -0.300000 1.500000 -0.200000
v -0.300000 1.500000 -0.300000
v -0.300000 1.500000 -0.400000
v -0.300000 1.500000 -0.500000
v -0.300000 1.400000 -0.500000
v -0.100000 1.600000 0.200000
v -0.100000 1.600000 0.100000
v -0.300000 1.600000 0.100000
v -0.300000 1.600000 -0.000000
v -0.300000 1.600000 -0.100000
v -0.400000 1.500000 -0.100000
v -0.400000 1.600000 -0.100000
v -0.400000 1.600000 -0.200000
v -0.400000 1.500000 -0.200000
v -0.400000 1.600000 -0.300000
v -0.400000 1.500000 -0.300000
v -0.400000 1.600000 -0.400000
v -0.400000 1.500000 -0.400000
v -0.300000 1.600000 -0.400000
v -0.300000 1.600000 -0.500000
v -0.300000 1.700000 0.100000
v -0.300000 1.700000 -0.000000
v -0.300000 1.700000 -0.100000
v -0.400000 1.700000 -0.100000
v -0.400000 1.700000 -0.200000
v -0.400000 1.700000 -0.300000
v -0.400000 1.700000 -0.400000
v -0.400000 1.700000 -0.500000
v -0.400000 1.600000 -0.500000
v -0.300000 1.800000 0.100000
v -0.300000 1.800000 -0.000000
v -0.400000 1.700000 -0.000000
v -0.400000 1.800000 -0.000000
v -0.400000 1.800000 -0.100000
v -0.400000 1.800000 -0.200000
v -0.400000 1.800000 -0.300000
v -0.400000 1.800000 -0.400000
v -0.400000 1.800000 -0.500000
v -0.400000 1.800000 0.100000
v -0.400000 1.900000 0.100000
v -0.400000 1.900000 -0.000000
v -0.400000 1.900000 -0.100000
v -0.400000 1.900000 -0.200000
v -0.400000 1.900000 -0.300000
v -0.400000 1.900000 -0.400000
v -0.400000 1.900000 -0.500000
v -0.400000 2.000000 0.100000
v -0.400000 2.000000 -0.000000
v -0.400000 2.000000 -0.100000
v -0.400000 2.000000 -0.200000
v -0.400000 2.000000 -0.300000
v -0.400000 2.000000 -0.400000
v -0.400000 2.000000 -0.500000
v -0.100000 0.004028 -0.035575
v -0.100000 0.028061 -0.132644
v -0.100000 0.125130 -0.108613
v -0.100000 0.101098 -0.011544
v 0.400000 0.109785 0.411319
v 0.400000 0.083902 0.314726
v 0.400000 0.180495 0.288845
v 0.400000 0.206377 0.385437
v -0.100000 0.052093 -0.229714
v -0.100000 0.149162 -0.205682
v 0.400000 0.058020 0.218133
v 0.400000 0.154612 0.192252
v -0.100000 0.076125 -0.326783
v -0.100000 0.173195 -0.302752
v 0.400000 0.032137 0.121541
v 0.400000 0.128730 0.095660
v -0.100000 0.100158 -0.423852
v -0.100000 0.197227 -0.399821
v 0.400000 0.006255 0.024948
v 0.400000 0.102847 -0.000933
v -0.100000 0.270264 -0.278721
v -0.100000 0.246232 -0.181651
v 0.400000 0.225322 0.069778
v 0.400000 0.251205 0.166371
v -0.100000 0.294297 -0.375790
v 0.400000 0.199440 -0.026814
v 0.300000 0.400000 -0.000000
v 0.300000 0.400000 -0.100000
v 0.300000 0.500000 -0.100000
v 0.300000 0.500000 -0.000000
v 0.300000 0.400000 -0.200000
v 0.300000 0.500000 -0.200000
v 0.300000 0.400000 -0.300000
v 0.300000 0.500000 -0.300000
v -0.500000 0.570580 0.094677
v -0.500000 0.535923 0.000874
v -0.500000 0.629725 -0.033783
v -0.500000 0.664382 0.060019
v 0.300000 0.600000 -0.100000
v 0.300000 0.600000 -0.000000
v 0.800000 0.471399 -0.082757
v 0.800000 0.497281 -0.179350
v 0.800000 0.593874 -0.153468
v 0.800000 0.567992 -0.056875
v -0.500000 0.501265 -0.092928
v -0.500000 0.595067 -0.127586
v 0.300000 0.600000 -0.200000
v 0.800000 0.523163 -0.275942
v 0.800000 0.619756 -0.250060
v -0.500000 0.466607 -0.186730
v -0.500000 0.560409 -0.221388
v 0.300000 0.600000 -0.300000
v 0.800000 0.549045 -0.372535
v 0.800000 0.645638 -0.346653
v -0.500000 0.723527 -0.068441
v -0.500000 0.758185 0.025361
v 0.300000 0.700000 -0.100000
v 0.300000 0.700000 -0.000000
v 0.800000 0.690466 -0.127586
v 0.800000 0.664584 -0.030993
v -0.500000 0.688869 -0.162243
v 0.300000 0.700000 -0.200000
v 0.800000 0.716348 -0.224178
v -0.500000 0.654211 -0.256045
v 0.300000 0.700000 -0.300000
v 0.800000 0.742230 -0.320771
v -0.100000 0.700000 0.100000
v -0.100000 0.700000 -0.000000
v -0.100000 0.800000 -0.000000
v -0.100000 0.800000 0.100000
v 0.400000 0.700000 0.100000
v 0.400000 0.700000 -0.000000
v 0.400000 0.800000 -0.000000
v 0.400000 0.800000 0.100000
v -0.500000 0.817329 -0.103099
v -0.500000 0.851987 -0.009297
v 0.400000 0.700000 -0.100000
v 0.400000 0.800000 -0.100000
v 0.800000 0.787059 -0.101704
v 0.800000 0.761177 -0.005111
v -0.500000 0.782671 -0.196901
v 0.400000 0.700000 -0.200000
v 0.400000 0.800000 -0.200000
v 0.800000 0.812941 -0.198296
v -0.500000 0.748013 -0.290703
v 0.400000 0.700000 -0.300000
v 0.400000 0.800000 -0.300000
v 0.800000 0.838823 -0.294889
v 0.400000 0.700000 -0.400000
v 0.400000 0.800000 -0.400000
v -0.100000 0.900000 -0.000000
v -0.100000 0.900000 0.100000
v 0.400000 0.900000 -0.000000
v 0.400000 0.900000 0.100000
v 0.400000 0.900000 -0.100000
v 0.400000 0.900000 -0.200000
v 0.400000 0.900000 -0.300000
v 0.400000 0.900000 -0.400000
v -0.100000 1.000000 -0.000000
v -0.100000 1.000000 0.100000
v 0.400000 1.000000 -0.000000
v 0.400000 1.000000 0.100000
v 0.400000 1.000000 -0.100000
v 0.400000 1.000000 -0.200000
v 0.400000 1.000000 -0.300000
v 0.400000 1.000000 -0.400000
v -0.100000 1.100000 -0.000000
v -0.100000 1.100000 0.100000
v 0.400000 1.100000 -0.000000
v 0.400000 1.100000 0.100000
v 0.400000 1.100000 -0.100000
v 0.400000 1.100000 -0.200000
v 0.400000 1.100000 -0.300000
v 0.400000 1.100000 -0.400000
v 0.100000 1.100000 -0.100000
v 0.100000 1.100000 -0.200000
v 0.100000 1.200000 -0.200000
v 0.100000 1.200000 -0.100000
v 0.100000 1.100000 -0.300000
v 0.100000 1.200000 -0.300000
v 0.300000 1.200000 0.100000
v 0.300000 1.200000 -0.000000
v 0.300000 1.300000 -0.000000
v 0.300000 1.300000 0.100000
v 0.300000 1.200000 -0.100000
v 0.300000 1.300000 -0.100000
v 0.300000 1.200000 -0.200000
v 0.300000 1.300000 -0.200000
v 0.300000 1.200000 -0.300000
v 0.300000 1.300000 -0.300000
v 0.300000 1.200000 -0.400000
v 0.300000 1.300000 -0.400000
v 0.300000 1.400000 -0.000000
v 0.300000 1.400000 0.100000
v 0.300000 1.400000 -0.100000
v 0.300000 1.400000 -0.200000
v 0.300000 1.400000 -0.300000
v 0.300000 1.400000 -0.400000
v 0.100000 1.400000 0.200000
v 0.100000 1.400000 0.100000
v 0.100000 1.500000 0.100000
v 0.100000 1.500000 0.200000
v 0.300000 1.500000 -0.000000
v 0.300000 1.500000 0.100000
v 0.300000 1.500000 -0.100000
v 0.300000 1.500000 -0.200000
v 0.300000 1.500000 -0.300000
v 0.300000 1.500000 -0.400000
v 0.300000 1.400000 -0.500000
v 0.300000 1.500000 -0.500000
v 0.100000 1.600000 0.100000
v 0.100000 1.600000 0.200000
v 0.300000 1.600000 -0.000000
v 0.300000 1.600000 0.100000
v 0.300000 1.600000 -0.100000
v 0.400000 1.500000 -0.100000
v 0.400000 1.500000 -0.200000
v 0.400000 1.600000 -0.200000
v 0.400000 1.600000 -0.100000
v 0.400000 1.500000 -0.300000
v 0.400000 1.600000 -0.300000
v 0.400000 1.500000 -0.400000
v 0.400000 1.600000 -0.400000
v 0.300000 1.600000 -0.500000
v 0.300000 1.600000 -0.400000
v 0.300000 1.700000 -0.000000
v 0.300000 1.700000 0.100000
v 0.300000 1.700000 -0.100000
v 0.400000 1.700000 -0.200000
v 0.400000 1.700000 -0.100000
v 0.400000 1.700000 -0.300000
v 0.400000 1.700000 -0.400000
v 0.400000 1.600000 -0.500000
v 0.400000 1.700000 -0.500000
v 0.300000 1.800000 -0.000000
v 0.300000 1.800000 0.100000
v 0.400000 1.700000 -0.000000
v 0.400000 1.800000 -0.100000
v 0.400000 1.800000 -0.000000
v 0.400000 1.800000 -0.200000
v 0.400000 1.800000 -0.300000
v 0.400000 1.800000 -0.400000
v 0.400000 1.800000 -0.500000
v 0.400000 1.800000 0.100000
v 0.400000 1.900000 -0.000000
v 0.400000 1.900000 0.100000
v 0.400000 1.900000 -0.100000
v 0.400000 1.900000 -0.200000
v 0.400000 1.900000 -0.300000
v 0.400000 1.900000 -0.400000
v 0.400000 1.900000 -0.500000
v 0.400000 2.000000 -0.000000
v 0.400000 2.000000 0.100000
v 0.400000 2.000000 -0.100000
v 0.400000 2.000000 -0.200000
v 0.400000 2.000000 -0.300000
v 0.400000 2.000000 -0.400000
v 0.400000 2.000000 -0.500000
v -0.300000 0.004028 -0.035575
v -0.300000 0.101098 -0.011544
v -0.200000 0.004028 -0.035575
v -0.200000 0.101098 -0.011544
v 0.200000 0.109785 0.411319
v 0.200000 0.206377 0.385437
v 0.300000 0.109785 0.411319
v 0.300000 0.206377 0.385437
v -0.300000 0.149162 -0.205682
v -0.300000 0.246232 -0.181651
v -0.200000 0.149162 -0.205682
v -0.200000 0.246232 -0.181651
v 0.200000 0.154612 0.192252
v 0.200000 0.251205 0.166371
v 0.300000 0.154612 0.192252
v 0.300000 0.251205 0.166371
v -0.200000 0.400000 -0.000000
v -0.200000 0.500000 -0.000000
v -0.100000 0.400000 -0.000000
v -0.100000 0.500000 -0.000000
v 0.000000 0.400000 -0.000000
v 0.000000 0.500000 -0.000000
v 0.100000 0.400000 -0.000000
v 0.100000 0.500000 -0.000000
v 0.200000 0.400000 -0.000000
v 0.200000 0.500000 -0.000000
v -0.700000 0.570580 0.094676
v -0.700000 0.664382 0.060019
v -0.600000 0.570580 0.094677
v -0.600000 0.664382 0.060019
v -0.200000 0.600000 -0.000000
v -0.100000 0.600000 -0.000000
v 0.000000 0.600000 -0.000000
v 0.100000 0.600000 -0.000000
v 0.200000 0.600000 -0.000000
v 0.600000 0.471399 -0.082757
v 0.600000 0.567992 -0.056875
v 0.700000 0.471399 -0.082757
v 0.700000 0.567992 -0.056875
v -0.700000 0.758185 0.025361
v -0.600000 0.758185 0.025361
v -0.200000 0.700000 -0.000000
v 0.000000 0.700000 -0.000000
v 0.200000 0.700000 -0.000000
v 0.600000 0.664585 -0.030993
v 0.700000 0.664584 -0.030993
v -0.300000 0.700000 0.100000
v -0.300000 0.800000 0.100000
v -0.200000 0.700000 0.100000
v -0.200000 0.800000 0.100000
v 0.200000 0.700000 0.100000
v 0.200000 0.800000 0.100000
v 0.300000 0.700000 0.100000
v 0.300000 0.800000 0.100000
v -0.700000 0.851987 -0.009297
v -0.600000 0.851987 -0.009297
v 0.000000 0.800000 -0.000000
v 0.600000 0.761177 -0.005111
v 0.700000 0.761177 -0.005111
v -0.300000 0.900000 0.100000
v -0.200000 0.900000 0.100000
v 0.200000 0.900000 0.100000
v 0.300000 0.900000 0.100000
v 0.000000 0.900000 -0.000000
v -0.300000 1.000000 0.100000
v -0.200000 1.000000 0.100000
v 0.200000 1.000000 0.100000
v 0.300000 1.000000 0.100000
v 0.000000 1.000000 -0.000000
v -0.300000 1.100000 0.100000
v -0.200000 1.100000 0.100000
v 0.200000 1.100000 0.100000
v 0.300000 1.100000 0.100000
v 0.000000 1.100000 -0.000000
v 0.000000 1.100000 -0.100000
v 0.000000 1.200000 -0.100000
v -0.200000 1.200000 0.100000
v -0.200000 1.300000 0.100000
v -0.100000 1.200000 0.100000
v -0.100000 1.300000 0.100000
v 0.000000 1.200000 0.100000
v 0.000000 1.300000 0.100000
v 0.100000 1.200000 0.100000
v 0.100000 1.300000 0.100000
v 0.200000 1.200000 0.100000
v 0.200000 1.300000 0.100000
v -0.200000 1.400000 0.100000
v 0.000000 1.400000 0.100000
v 0.200000 1.400000 0.100000
v 0.000000 1.400000 0.200000
v 0.000000 1.500000 0.200000
v -0.200000 1.500000 0.100000
v 0.200000 1.500000 0.100000
v 0.000000 1.600000 0.200000
v -0.200000 1.600000 0.100000
v 0.200000 1.600000 0.100000
v -0.200000 1.700000 0.100000
v -0.100000 1.700000 0.100000
v 0.000000 1.600000 0.100000
v 0.000000 1.700000 0.100000
v 0.100000 1.700000 0.100000
v 0.200000 1.700000 0.100000
v -0.200000 1.800000 0.100000
v -0.100000 1.800000 0.100000
v 0.000000 1.800000 0.100000
v 0.100000 1.800000 0.100000
v 0.200000 1.800000 0.100000
v -0.300000 1.900000 0.100000
v -0.200000 1.900000 0.100000
v -0.100000 1.900000 0.100000
v 0.000000 1.900000 0.100000
v 0.100000 1.900000 0.100000
v 0.200000 1.900000 0.100000
v 0.300000 1.900000 0.100000
v -0.300000 2.000000 0.100000
v -0.200000 2.000000 0.100000
v -0.100000 2.000000 0.100000
v 0.000000 2.000000 0.100000
v 0.100000 2.000000 0.100000
v 0.200000 2.000000 0.100000
v 0.300000 2.000000 0.100000
v -0.300000 0.197227 -0.399821
v -0.300000 0.100158 -0.423852
v -0.200000 0.197227 -0.399821
v -0.200000 0.100158 -0.423852
v 0.200000 0.102847 -0.000933
v 0.200000 0.006255 0.024948
v 0.300000 0.102847 -0.000933
v 0.300000 0.006255 0.024948
v -0.300000 0.294297 -0.375790
v -0.200000 0.294297 -0.375790
v 0.200000 0.199440 -0.026814
v 0.300000 0.199440 -0.026814
v -0.200000 0.500000 -0.300000
v -0.200000 0.400000 -0.300000
v -0.100000 0.500000 -0.300000
v -0.100000 0.400000 -0.300000
v 0.000000 0.500000 -0.300000
v 0.000000 0.400000 -0.300000
v 0.100000 0.500000 -0.300000
v 0.100000 0.400000 -0.300000
v 0.200000 0.500000 -0.300000
v 0.200000 0.400000 -0.300000
v -0.700000 0.560409 -0.221388
v -0.700000 0.466607 -0.186730
v -0.600000 0.560409 -0.221388
v -0.600000 0.466607 -0.186730
v -0.200000 0.600000 -0.300000
v -0.100000 0.600000 -0.300000
v 0.000000 0.600000 -0.300000
v 0.100000 0.600000 -0.300000
v 0.200000 0.600000 -0.300000
v 0.600000 0.645638 -0.346653
v 0.600000 0.549045 -0.372535
v 0.700000 0.645638 -0.346653
v 0.700000 0.549045 -0.372535
v -0.700000 0.654211 -0.256045
v -0.600000 0.654211 -0.256045
v -0.200000 0.700000 -0.300000
v -0.100000 0.700000 -0.300000
v 0.000000 0.700000 -0.300000
v 0.100000 0.700000 -0.300000
v 0.200000 0.700000 -0.300000
v 0.600000 0.742230 -0.320771
v 0.700000 0.742230 -0.320771
v -0.700000 0.748013 -0.290703
v -0.600000 0.748013 -0.290703
v 0.600000 0.838823 -0.294889
v 0.700000 0.838823 -0.294889
v -0.300000 0.800000 -0.400000
v -0.300000 0.700000 -0.400000
v -0.200000 0.800000 -0.400000
v -0.200000 0.700000 -0.400000
v -0.100000 0.800000 -0.400000
v -0.100000 0.700000 -0.400000
v 0.000000 0.800000 -0.400000
v 0.000000 0.700000 -0.400000
v 0.100000 0.800000 -0.400000
v 0.100000 0.700000 -0.400000
v 0.200000 0.800000 -0.400000
v 0.200000 0.700000 -0.400000
v 0.300000 0.800000 -0.400000
v 0.300000 0.700000 -0.400000
v -0.300000 0.900000 -0.400000
v -0.200000 0.900000 -0.400000
v -0.100000 0.900000 -0.400000
v 0.000000 0.900000 -0.400000
v 0.100000 0.900000 -0.400000
v 0.200000 0.900000 -0.400000
v 0.300000 0.900000 -0.400000
v -0.300000 1.000000 -0.400000
v -0.200000 1.000000 -0.400000
v -0.100000 1.000000 -0.400000
v 0.000000 1.000000 -0.400000
v 0.100000 1.000000 -0.400000
v 0.200000 1.000000 -0.400000
v 0.300000 1.000000 -0.400000
v -0.300000 1.100000 -0.400000
v -0.200000 1.100000 -0.400000
v -0.100000 1.100000 -0.400000
v 0.000000 1.100000 -0.400000
v 0.100000 1.100000 -0.400000
v 0.200000 1.100000 -0.400000
v 0.300000 1.100000 -0.400000
v 0.000000 1.200000 -0.300000
v 0.000000 1.100000 -0.300000
v -0.200000 1.300000 -0.400000
v -0.200000 1.200000 -0.400000
v -0.100000 1.300000 -0.400000
v -0.100000 1.200000 -0.400000
v 0.000000 1.300000 -0.400000
v 0.000000 1.200000 -0.400000
v 0.100000 1.300000 -0.400000
v 0.100000 1.200000 -0.400000
v 0.200000 1.300000 -0.400000
v 0.200000 1.200000 -0.400000
v -0.200000 1.400000 -0.400000
v -0.100000 1.400000 -0.400000
v 0.000000 1.400000 -0.400000
v 0.100000 1.400000 -0.400000
v 0.200000 1.400000 -0.400000
v -0.200000 1.500000 -0.500000
v -0.200000 1.400000 -0.500000
v -0.100000 1.500000 -0.500000
v -0.100000 1.400000 -0.500000
v 0.000000 1.500000 -0.500000
v 0.000000 1.400000 -0.500000
v 0.100000 1.500000 -0.500000
v 0.100000 1.400000 -0.500000
v 0.200000 1.500000 -0.500000
v 0.200000 1.400000 -0.500000
v -0.200000 1.600000 -0.500000
v -0.100000 1.600000 -0.500000
v 0.000000 1.600000 -0.500000
v 0.100000 1.600000 -0.500000
v 0.200000 1.600000 -0.500000
v -0.300000 1.700000 -0.500000
v -0.200000 1.700000 -0.500000
v -0.100000 1.700000 -0.500000
v 0.000000 1.700000 -0.500000
v 0.100000 1.700000 -0.500000
v 0.200000 1.700000 -0.500000
v 0.300000 1.700000 -0.500000
v -0.300000 1.800000 -0.500000
v -0.200000 1.800000 -0.500000
v -0.100000 1.800000 -0.500000
v 0.000000 1.800000 -0.500000
v 0.100000 1.800000 -0.500000
v 0.200000 1.800000 -0.500000
v 0.300000 1.800000 -0.500000
v -0.300000 1.900000 -0.500000
v -0.200000 1.900000 -0.500000
v -0.100000 1.900000 -0.500000
v 0.000000 1.900000 -0.500000
v 0.100000 1.900000 -0.500000
v 0.200000 1.900000 -0.500000
v 0.300000 1.900000 -0.500000
v -0.300000 2.000000 -0.500000
v -0.200000 2.000000 -0.500000
v -0.100000 2.000000 -0.500000
v 0.000000 2.000000 -0.500000
v 0.100000 2.000000 -0.500000
v 0.200000 2.000000 -0.500000
v 0.300000 2.000000 -0.500000
v -0.300000 0.028061 -0.132644
v -0.200000 0.028061 -0.132644
v 0.200000 0.083902 0.314726
v 0.300000 0.083902 0.314726
v -0.300000 0.052093 -0.229714
v -0.200000 0.052093 -0.229714
v 0.200000 0.058020 0.218133
v 0.300000 0.058020 0.218133
v -0.300000 0.076125 -0.326783
v -0.200000 0.076125 -0.326783
v 0.200000 0.032137 0.121541
v 0.300000 0.032137 0.121541
v -0.200000 0.400000 -0.100000
v -0.100000 0.400000 -0.100000
v 0.000000 0.400000 -0.100000
v 0.100000 0.400000 -0.100000
v 0.200000 0.400000 -0.100000
v -0.200000 0.400000 -0.200000
v -0.100000 0.400000 -0.200000
v 0.000000 0.400000 -0.200000
v 0.100000 0.400000 -0.200000
v 0.200000 0.400000 -0.200000
v -0.700000 0.535923 0.000874
v -0.600000 0.535923 0.000874
v 0.600000 0.497281 -0.179350
v 0.700000 0.497281 -0.179350
v -0.700000 0.501265 -0.092928
v -0.600000 0.501265 -0.092928
v 0.600000 0.523163 -0.275942
v 0.700000 0.523163 -0.275942
v -0.200000 1.200000 -0.000000
v -0.100000 1.200000 -0.000000
v 0.000000 1.200000 -0.000000
v 0.100000 1.200000 -0.000000
v 0.200000 1.200000 -0.000000
v -0.200000 1.200000 -0.100000
v 0.200000 1.200000 -0.100000
v -0.200000 1.200000 -0.200000
v 0.200000 1.200000 -0.200000
v -0.200000 1.200000 -0.300000
v 0.200000 1.200000 -0.300000
v -0.300000 0.125130 -0.108613
v -0.200000 0.125130 -0.108613
v 0.200000 0.180495 0.288845
v 0.300000 0.180495 0.288845
v -0.300000 0.270264 -0.278721
v -0.200000 0.270264 -0.278721
v 0.200000 0.225322 0.069778
v 0.300000 0.225322 0.069778
v -0.700000 0.817329 -0.103099
v -0.600000 0.817329 -0.103099
v 0.600000 0.787059 -0.101704
v 0.700000 0.787059 -0.101704
v -0.700000 0.782671 -0.196901
v -0.600000 0.782671 -0.196901
v 0.600000 0.812941 -0.198296
v 0.700000 0.812941 -0.198296
v -0.300000 1.100000 -0.000000
v -0.200000 1.100000 -0.000000
v 0.200000 1.100000 -0.000000
v 0.300000 1.100000 -0.000000
v -0.300000 1.099993 -0.100624
v -0.200000 1.100000 -0.100000
v 0.200000 1.100000 -0.100000
v 0.300000 1.100000 -0.100000
v -0.300000 1.097647 -0.206608
v -0.200000 1.100000 -0.200000
v 0.200000 1.100000 -0.200000
v 0.300000 1.100000 -0.200000
v -0.300000 1.099973 -0.300037
v -0.200000 1.100000 -0.300000
v 0.200000 1.100000 -0.300000
v 0.300000 1.100000 -0.300000
v -0.300000 2.000000 -0.000000
v -0.200000 2.000000 -0.000000
v -0.100000 2.000000 -0.000000
v 0.000000 2.000000 -0.000000
v 0.100000 2.000000 -0.000000
v 0.200000 2.000000 -0.000000
v 0.300000 2.000000 -0.000000
v -0.300000 2.000000 -0.100000
v -0.200000 2.000000 -0.100000
v -0.100000 2.000000 -0.100000
v 0.000000 2.000000 -0.100000
v 0.100000 2.000000 -0.100000
v 0.200000 2.000000 -0.100000
v 0.300000 2.000000 -0.100000
v -0.300000 2.000000 -0.200000
v -0.200000 2.000000 -0.200000
v -0.100000 2.000000 -0.200000
v 0.000000 2.000000 -0.200000
v 0.100000 2.000000 -0.200000
v 0.200000 2.000000 -0.200000
v 0.300000 2.000000 -0.200000
v -0.300000 2.000000 -0.300000
v -0.200000 2.000000 -0.300000
v -0.100000 2.000000 -0.300000
v 0.000000 2.000000 -0.300000
v 0.100000 2.000000 -0.300000
v 0.200000 2.000000 -0.300000
v 0.300000 2.000000 -0.300000
v -0.300000 2.000000 -0.400000
v -0.200000 2.000000 -0.400000
v -0.100000 2.000000 -0.400000
v 0.000000 2.000000 -0.400000
v 0.100000 2.000000 -0.400000
v 0.200000 2.000000 -0.400000
v 0.300000 2.000000 -0.400000
vn -1.0000 -0.0000 -0.0000
vn 1.0000 -0.0000 -0.0000
vn -0.0000 -0.2403 0.9707
vn -0.0000 0.2588 0.9659
vn -0.0000 -0.0000 1.0000
vn -0.0000 0.3466 0.9380
vn -0.0000 -0.2588 0.9659
vn -0.0000 0.2403 -0.9707
vn -0.0000 -0.2588 -0.9659
vn -0.0000 -0.0000 -1.0000
vn -0.0000 -0.3466 -0.9380
vn -0.0000 0.2588 -0.9659
vn -0.0000 -0.9707 -0.2403
vn -0.0000 -0.9659 0.2588
vn -0.0000 -1.0000 -0.0000
vn -0.0000 -0.9380 0.3466
vn -0.0000 -0.9659 -0.2588
vn -0.0000 0.9707 0.2403
vn -0.0000 0.9659 -0.2588
vn -0.0000 0.9380 -0.3466
vn -0.0000 0.9659 0.2588
vn -0.0000 1.0000 -0.0000
vn -0.0000 1.0000 -0.0057
vn 0.0057 1.0000 -0.0057
vn -0.0028 1.0000 -0.0028
vn -0.0000 1.0000 0.0008
vn 0.0118 0.9999 -0.0002
vn -0.0059 1.0000 -0.0001
vn -0.0000 1.0000 0.0061
vn 0.0062 1.0000 0.0061
vn -0.0031 1.0000 0.0030
vn -0.0000 1.0000 0.0001
vn 0.0001 1.0000 0.0001
vn -0.0001 1.0000 0.0001
vt 0.943179 0.556821
vt 0.913146 0.556821
vt 0.913146 0.526788
vt 0.943179 0.526788
vt 0.949669 0.803576
vt 0.919636 0.803576
vt 0.919636 0.773543
vt 0.949669 0.773543
vt 0.913146 0.496755
vt 0.943179 0.496755
vt 0.919636 0.743510
vt 0.949669 0.743510
vt 0.913146 0.466722
vt 0.943179 0.466722
vt 0.919636 0.713477
vt 0.949669 0.713477
vt 0.913146 0.436689
vt 0.943179 0.436689
vt 0.919636 0.683444
vt 0.949669 0.683444
vt 0.883113 0.496755
vt 0.883113 0.466722
vt 0.889603 0.743510
vt 0.889603 0.713477
vt 0.883113 0.436689
vt 0.889603 0.683444
vt 0.672881 0.900165
vt 0.642848 0.900165
vt 0.642848 0.870132
vt 0.672881 0.870132
vt 0.642848 0.840099
vt 0.672881 0.840099
vt 0.642848 0.810066
vt 0.672881 0.810066
vt 0.196424 0.900166
vt 0.196424 0.870132
vt 0.226457 0.870132
vt 0.226457 0.900166
vt 0.612815 0.900165
vt 0.612815 0.870132
vt 0.293013 0.900166
vt 0.293013 0.870132
vt 0.323046 0.870132
vt 0.323046 0.900166
vt 0.256490 0.870132
vt 0.256490 0.900166
vt 0.612815 0.840099
vt 0.353079 0.870132
vt 0.353079 0.900166
vt 0.286523 0.870132
vt 0.286523 0.900166
vt 0.612815 0.810066
vt 0.383113 0.870132
vt 0.383113 0.900166
vt 0.196424 0.840099
vt 0.226457 0.840099
vt 0.582782 0.900165
vt 0.582782 0.870132
vt 0.293013 0.840099
vt 0.323046 0.840099
vt 0.256490 0.840099
vt 0.582782 0.840099
vt 0.353079 0.840099
vt 0.286523 0.840099
vt 0.582782 0.810066
vt 0.383113 0.840099
vt 0.780033 0.400165
vt 0.750000 0.400165
vt 0.750000 0.370132
vt 0.780033 0.370132
vt 0.093344 0.803576
vt 0.093344 0.773543
vt 0.123377 0.773543
vt 0.123377 0.803576
vt 0.196424 0.810066
vt 0.226457 0.810066
vt 0.750000 0.340099
vt 0.780033 0.340099
vt 0.293013 0.810066
vt 0.323046 0.810066
vt 0.256490 0.810066
vt 0.750000 0.310066
vt 0.780033 0.310066
vt 0.353079 0.810066
vt 0.286523 0.810066
vt 0.750000 0.280033
vt 0.780033 0.280033
vt 0.383113 0.810066
vt 0.750000 0.250000
vt 0.780033 0.250000
vt 0.719967 0.400165
vt 0.719967 0.370132
vt 0.093344 0.743510
vt 0.123377 0.743510
vt 0.719967 0.340099
vt 0.719967 0.310066
vt 0.719967 0.280033
vt 0.719967 0.250000
vt 0.689934 0.400165
vt 0.689934 0.370132
vt 0.093344 0.713477
vt 0.123377 0.713477
vt 0.689934 0.340099
vt 0.689934 0.310066
vt 0.689934 0.280033
vt 0.689934 0.250000
vt 0.659901 0.400165
vt 0.659901 0.370132
vt 0.093344 0.683444
vt 0.123377 0.683444
vt 0.659901 0.340099
vt 0.659901 0.310066
vt 0.659901 0.280033
vt 0.659901 0.250000
vt 0.949669 0.310066
vt 0.919636 0.310066
vt 0.919636 0.280033
vt 0.949669 0.280033
vt 0.919636 0.250000
vt 0.949669 0.250000
vt 0.189934 0.646920
vt 0.189934 0.616887
vt 0.219967 0.616887
vt 0.219967 0.646920
vt 0.250000 0.616887
vt 0.250000 0.646920
vt 0.280033 0.616887
vt 0.280033 0.646920
vt 0.310066 0.616887
vt 0.310066 0.646920
vt 0.340099 0.616887
vt 0.340099 0.646920
vt 0.189934 0.586854
vt 0.219967 0.586854
vt 0.250000 0.586854
vt 0.280033 0.586854
vt 0.310066 0.586854
vt 0.340099 0.586854
vt 0.172881 0.966722
vt 0.172881 0.936689
vt 0.202914 0.936689
vt 0.202914 0.966722
vt 0.189934 0.556821
vt 0.219967 0.556821
vt 0.250000 0.556821
vt 0.280033 0.556821
vt 0.310066 0.556821
vt 0.340099 0.556821
vt 0.370132 0.556821
vt 0.370132 0.586854
vt 0.172881 0.906656
vt 0.202914 0.906656
vt 0.189934 0.526788
vt 0.219967 0.526788
vt 0.250000 0.526788
vt 0.683444 0.616887
vt 0.653410 0.616887
vt 0.653410 0.586854
vt 0.683444 0.586854
vt 0.653410 0.556821
vt 0.683444 0.556821
vt 0.653410 0.526788
vt 0.683444 0.526788
vt 0.340099 0.526788
vt 0.370132 0.526788
vt 0.189934 0.496755
vt 0.219967 0.496755
vt 0.250000 0.496755
vt 0.623377 0.616887
vt 0.623377 0.586854
vt 0.623377 0.556821
vt 0.623377 0.526788
vt 0.623377 0.496755
vt 0.653410 0.496755
vt 0.189934 0.466722
vt 0.219967 0.466722
vt 0.623377 0.646920
vt 0.593344 0.646920
vt 0.593344 0.616887
vt 0.593344 0.586854
vt 0.593344 0.556821
vt 0.593344 0.526788
vt 0.593344 0.496755
vt 0.593344 0.676953
vt 0.563311 0.676953
vt 0.563311 0.646920
vt 0.563311 0.616887
vt 0.563311 0.586854
vt 0.563311 0.556821
vt 0.563311 0.526788
vt 0.563311 0.496755
vt 0.533278 0.676953
vt 0.533278 0.646920
vt 0.533278 0.616887
vt 0.533278 0.586854
vt 0.533278 0.556821
vt 0.533278 0.526788
vt 0.533278 0.496755
vt 0.906655 0.099834
vt 0.906655 0.129868
vt 0.876622 0.129868
vt 0.876622 0.099834
vt 0.913146 0.250000
vt 0.913146 0.280033
vt 0.883113 0.280033
vt 0.883113 0.250000
vt 0.906655 0.159901
vt 0.876622 0.159901
vt 0.913146 0.310066
vt 0.883113 0.310066
vt 0.906655 0.189934
vt 0.876622 0.189934
vt 0.913146 0.340099
vt 0.883113 0.340099
vt 0.906655 0.219967
vt 0.876622 0.219967
vt 0.913146 0.370132
vt 0.883113 0.370132
vt 0.846589 0.189934
vt 0.846589 0.159901
vt 0.853080 0.340099
vt 0.853080 0.310066
vt 0.846589 0.219967
vt 0.853080 0.370132
vt 0.936689 0.003245
vt 0.936689 0.033278
vt 0.906655 0.033278
vt 0.906655 0.003245
vt 0.936689 0.063311
vt 0.906655 0.063311
vt 0.936689 0.093344
vt 0.906655 0.093344
vt 0.479702 0.900166
vt 0.449669 0.900166
vt 0.449669 0.870132
vt 0.479702 0.870132
vt 0.876622 0.033278
vt 0.876622 0.003245
vt 0.576291 0.900166
vt 0.546258 0.900166
vt 0.546258 0.870132
vt 0.576291 0.870132
vt 0.419636 0.900166
vt 0.419636 0.870132
vt 0.876622 0.063311
vt 0.516225 0.900166
vt 0.516225 0.870132
vt 0.389603 0.900166
vt 0.389603 0.870132
vt 0.876622 0.093344
vt 0.486192 0.900166
vt 0.486192 0.870132
vt 0.449669 0.840099
vt 0.479702 0.840099
vt 0.846589 0.033278
vt 0.846589 0.003245
vt 0.546258 0.840099
vt 0.576291 0.840099
vt 0.419636 0.840099
vt 0.846589 0.063311
vt 0.516225 0.840099
vt 0.389603 0.840099
vt 0.846589 0.093344
vt 0.486192 0.840099
vt 0.406656 0.803576
vt 0.376622 0.803576
vt 0.376622 0.773543
vt 0.406656 0.773543
vt 0.310066 0.653410
vt 0.310066 0.683444
vt 0.280033 0.683444
vt 0.280033 0.653410
vt 0.449669 0.810066
vt 0.479702 0.810066
vt 0.310066 0.713477
vt 0.280033 0.713477
vt 0.546258 0.810066
vt 0.576291 0.810066
vt 0.419636 0.810066
vt 0.310066 0.743510
vt 0.280033 0.743510
vt 0.516225 0.810066
vt 0.389603 0.810066
vt 0.310066 0.773543
vt 0.280033 0.773543
vt 0.486192 0.810066
vt 0.310066 0.803576
vt 0.280033 0.803576
vt 0.376622 0.743510
vt 0.406656 0.743510
vt 0.250000 0.683444
vt 0.250000 0.653410
vt 0.250000 0.713477
vt 0.250000 0.743510
vt 0.250000 0.773543
vt 0.250000 0.803576
vt 0.376622 0.713477
vt 0.406656 0.713477
vt 0.219967 0.683444
vt 0.219967 0.653410
vt 0.219967 0.713477
vt 0.219967 0.743510
vt 0.219967 0.773543
vt 0.219967 0.803576
vt 0.376622 0.683444
vt 0.406656 0.683444
vt 0.189934 0.683444
vt 0.189934 0.653410
vt 0.189934 0.713477
vt 0.189934 0.743510
vt 0.189934 0.773543
vt 0.189934 0.803576
vt 0.949669 0.370132
vt 0.949669 0.400165
vt 0.919636 0.400165
vt 0.919636 0.370132
vt 0.949669 0.430199
vt 0.919636 0.430199
vt 0.183444 0.676953
vt 0.153411 0.676953
vt 0.153411 0.646920
vt 0.183444 0.646920
vt 0.123377 0.676953
vt 0.123377 0.646920
vt 0.093344 0.676953
vt 0.093344 0.646920
vt 0.063311 0.676953
vt 0.063311 0.646920
vt 0.033278 0.676953
vt 0.033278 0.646920
vt 0.153411 0.616887
vt 0.183444 0.616887
vt 0.123377 0.616887
vt 0.093344 0.616887
vt 0.063311 0.616887
vt 0.033278 0.616887
vt 0.239437 0.966722
vt 0.209404 0.966722
vt 0.209404 0.936689
vt 0.239437 0.936689
vt 0.153411 0.586854
vt 0.183444 0.586854
vt 0.123377 0.586854
vt 0.093344 0.586854
vt 0.063311 0.586854
vt 0.033278 0.586854
vt 0.003245 0.616887
vt 0.003245 0.586854
vt 0.209404 0.906656
vt 0.239437 0.906656
vt 0.153411 0.556821
vt 0.183444 0.556821
vt 0.123377 0.556821
vt 0.743510 0.063311
vt 0.743510 0.093344
vt 0.713477 0.093344
vt 0.713477 0.063311
vt 0.743510 0.123377
vt 0.713477 0.123377
vt 0.743510 0.153411
vt 0.713477 0.153411
vt 0.003245 0.556821
vt 0.033278 0.556821
vt 0.153411 0.526788
vt 0.183444 0.526788
vt 0.123377 0.526788
vt 0.683444 0.093344
vt 0.683444 0.063311
vt 0.683444 0.123377
vt 0.683444 0.153411
vt 0.713477 0.183444
vt 0.683444 0.183444
vt 0.153411 0.496755
vt 0.183444 0.496755
vt 0.683444 0.033278
vt 0.653411 0.063311
vt 0.653411 0.033278
vt 0.653411 0.093344
vt 0.653411 0.123377
vt 0.653411 0.153411
vt 0.653411 0.183444
vt 0.653411 0.003245
vt 0.623377 0.033278
vt 0.623377 0.003245
vt 0.623377 0.063311
vt 0.623377 0.093344
vt 0.623377 0.123377
vt 0.623377 0.153411
vt 0.623377 0.183444
vt 0.593344 0.033278
vt 0.593344 0.003245
vt 0.593344 0.063311
vt 0.593344 0.093344
vt 0.593344 0.123377
vt 0.593344 0.153411
vt 0.593344 0.183444
vt 0.859570 0.876623
vt 0.859570 0.906656
vt 0.829536 0.906656
vt 0.829536 0.876623
vt 0.859570 0.936689
vt 0.829536 0.936689
vt 0.859569 0.966722
vt 0.829536 0.966722
vt 0.159901 0.683444
vt 0.159901 0.713477
vt 0.129868 0.713477
vt 0.129868 0.683444
vt 0.159901 0.743510
vt 0.129868 0.743510
vt 0.159901 0.773543
vt 0.129868 0.773543
vt 0.346589 0.653411
vt 0.346589 0.683444
vt 0.316556 0.683444
vt 0.316556 0.653411
vt 0.346589 0.713477
vt 0.316556 0.713477
vt 0.346589 0.743510
vt 0.316556 0.743510
vt 0.979702 0.436689
vt 0.979702 0.466722
vt 0.949669 0.466722
vt 0.949669 0.436689
vt 0.979702 0.496755
vt 0.949669 0.496755
vt 0.979702 0.526788
vt 0.949669 0.526788
vt 0.370132 0.460232
vt 0.340099 0.460232
vt 0.340099 0.430199
vt 0.370132 0.430199
vt 0.310066 0.460232
vt 0.310066 0.430199
vt 0.280033 0.460232
vt 0.280033 0.430199
vt 0.250000 0.460232
vt 0.250000 0.430199
vt 0.219967 0.460232
vt 0.219967 0.430199
vt 0.189934 0.460232
vt 0.189934 0.430199
vt 0.786523 0.683444
vt 0.786523 0.713477
vt 0.756490 0.713477
vt 0.756490 0.683444
vt 0.786523 0.743510
vt 0.756490 0.743510
vt 0.786523 0.773543
vt 0.756490 0.773543
vt 0.340099 0.400165
vt 0.370132 0.400165
vt 0.310066 0.400165
vt 0.280033 0.400165
vt 0.250000 0.400165
vt 0.219967 0.400165
vt 0.189934 0.400165
vt 0.786523 0.870132
vt 0.756490 0.870132
vt 0.756490 0.840099
vt 0.786523 0.840099
vt 0.726457 0.870132
vt 0.726457 0.840099
vt 0.696424 0.870132
vt 0.696424 0.840099
vt 0.726457 0.713477
vt 0.726457 0.683444
vt 0.726457 0.743510
vt 0.726457 0.773543
vt 0.340099 0.370132
vt 0.370132 0.370132
vt 0.310066 0.370132
vt 0.280033 0.370132
vt 0.250000 0.370132
vt 0.219967 0.370132
vt 0.189934 0.370132
vt 0.756490 0.810066
vt 0.786523 0.810066
vt 0.726457 0.810066
vt 0.696424 0.810066
vt 0.496755 0.803576
vt 0.466722 0.803576
vt 0.466722 0.773543
vt 0.496755 0.773543
vt 0.436689 0.803576
vt 0.436689 0.773543
vt 0.063311 0.803576
vt 0.063311 0.773543
vt 0.033278 0.803576
vt 0.033278 0.773543
vt 0.003245 0.803576
vt 0.003245 0.773543
vt 0.696424 0.713477
vt 0.696424 0.683444
vt 0.696424 0.743510
vt 0.696424 0.773543
vt 0.280033 0.340099
vt 0.310066 0.340099
vt 0.250000 0.340099
vt 0.756490 0.780033
vt 0.786523 0.780033
vt 0.726457 0.780033
vt 0.696424 0.780033
vt 0.466722 0.743510
vt 0.496755 0.743510
vt 0.436689 0.743510
vt 0.063311 0.743510
vt 0.033278 0.743510
vt 0.003245 0.743510
vt 0.280033 0.310066
vt 0.310066 0.310066
vt 0.250000 0.310066
vt 0.466722 0.713477
vt 0.496755 0.713477
vt 0.436689 0.713477
vt 0.063311 0.713477
vt 0.033278 0.713477
vt 0.003245 0.713477
vt 0.280033 0.280033
vt 0.310066 0.280033
vt 0.250000 0.280033
vt 0.466722 0.683444
vt 0.496755 0.683444
vt 0.436689 0.683444
vt 0.063311 0.683444
vt 0.033278 0.683444
vt 0.003245 0.683444
vt 0.280033 0.250000
vt 0.310066 0.250000
vt 0.250000 0.250000
vt 0.949669 0.340099
vt 0.919636 0.340099
vt 0.243510 0.033278
vt 0.243510 0.063311
vt 0.213477 0.063311
vt 0.213477 0.033278
vt 0.243510 0.093344
vt 0.213477 0.093344
vt 0.243510 0.123377
vt 0.213477 0.123377
vt 0.243510 0.153411
vt 0.213477 0.153411
vt 0.243510 0.183444
vt 0.213477 0.183444
vt 0.243510 0.213477
vt 0.213477 0.213477
vt 0.183444 0.063311
vt 0.183444 0.033278
vt 0.183444 0.093344
vt 0.183444 0.123377
vt 0.183444 0.153411
vt 0.183444 0.183444
vt 0.183444 0.213477
vt 0.719967 0.466722
vt 0.689934 0.466722
vt 0.689934 0.436689
vt 0.719967 0.436689
vt 0.659901 0.466722
vt 0.659901 0.436689
vt 0.153411 0.063311
vt 0.153411 0.033278
vt 0.153411 0.093344
vt 0.153411 0.183444
vt 0.153411 0.153411
vt 0.153411 0.213477
vt 0.689934 0.406656
vt 0.719967 0.406656
vt 0.659901 0.406656
vt 0.123377 0.063311
vt 0.123377 0.033278
vt 0.123377 0.093344
vt 0.123377 0.183444
vt 0.123377 0.153411
vt 0.123377 0.213477
vt 0.756490 0.466722
vt 0.726457 0.466722
vt 0.726457 0.436689
vt 0.756490 0.436689
vt 0.166391 0.966722
vt 0.136358 0.966722
vt 0.136358 0.936689
vt 0.166391 0.936689
vt 0.093344 0.063311
vt 0.093344 0.033278
vt 0.093344 0.093344
vt 0.123377 0.123377
vt 0.093344 0.123377
vt 0.093344 0.153411
vt 0.093344 0.183444
vt 0.093344 0.213477
vt 0.726457 0.406656
vt 0.756490 0.406656
vt 0.136358 0.906656
vt 0.166391 0.906656
vt 0.063311 0.063311
vt 0.063311 0.033278
vt 0.063311 0.093344
vt 0.063311 0.123377
vt 0.063311 0.153411
vt 0.063311 0.183444
vt 0.063311 0.213477
vt 0.853079 0.646920
vt 0.853079 0.676953
vt 0.823046 0.676953
vt 0.823046 0.646920
vt 0.853080 0.406656
vt 0.853080 0.376623
vt 0.883113 0.376623
vt 0.883113 0.406656
vt 0.063311 0.003245
vt 0.033278 0.033278
vt 0.033278 0.003245
vt 0.033278 0.063311
vt 0.033278 0.093344
vt 0.033278 0.123377
vt 0.033278 0.153411
vt 0.033278 0.183444
vt 0.033278 0.213477
vt 0.063311 0.243510
vt 0.033278 0.243510
vt 0.003245 0.033278
vt 0.003245 0.003245
vt 0.003245 0.063311
vt 0.003245 0.093344
vt 0.003245 0.123377
vt 0.003245 0.153411
vt 0.003245 0.183444
vt 0.003245 0.213477
vt 0.003245 0.243510
vt 0.943179 0.653411
vt 0.913146 0.653411
vt 0.913146 0.623377
vt 0.943179 0.623377
vt 0.913146 0.593344
vt 0.943179 0.593344
vt 0.913146 0.563311
vt 0.943179 0.563311
vt 0.949669 0.900165
vt 0.919636 0.900165
vt 0.919636 0.870132
vt 0.949669 0.870132
vt 0.919636 0.840099
vt 0.949669 0.840099
vt 0.919636 0.810066
vt 0.949669 0.810066
vt 0.883113 0.653411
vt 0.883113 0.623377
vt 0.883113 0.593344
vt 0.883113 0.563311
vt 0.889603 0.900165
vt 0.889603 0.870132
vt 0.889603 0.840099
vt 0.889603 0.810066
vt 0.840099 0.183444
vt 0.810066 0.183444
vt 0.810066 0.153411
vt 0.840099 0.153411
vt 0.810066 0.123377
vt 0.840099 0.123377
vt 0.810066 0.093344
vt 0.840099 0.093344
vt 0.810066 0.063311
vt 0.840099 0.063311
vt 0.810066 0.033278
vt 0.840099 0.033278
vt 0.810066 0.003245
vt 0.840099 0.003245
vt 0.786523 0.526788
vt 0.786523 0.496755
vt 0.816556 0.496755
vt 0.816556 0.526788
vt 0.846590 0.496755
vt 0.846590 0.526788
vt 0.876623 0.496755
vt 0.876623 0.526788
vt 0.780033 0.183444
vt 0.780033 0.153411
vt 0.780033 0.123377
vt 0.780033 0.093344
vt 0.780033 0.063311
vt 0.780033 0.033278
vt 0.780033 0.003245
vt 0.876623 0.623377
vt 0.846590 0.623377
vt 0.846590 0.593344
vt 0.876623 0.593344
vt 0.846590 0.563311
vt 0.876623 0.563311
vt 0.846590 0.533278
vt 0.876623 0.533278
vt 0.786523 0.466722
vt 0.816556 0.466722
vt 0.846590 0.466722
vt 0.876623 0.466722
vt 0.750000 0.183444
vt 0.750000 0.153411
vt 0.750000 0.123377
vt 0.750000 0.093344
vt 0.750000 0.063311
vt 0.750000 0.033278
vt 0.750000 0.003245
vt 0.816556 0.623377
vt 0.816556 0.593344
vt 0.816556 0.563311
vt 0.816556 0.533278
vt 0.786523 0.436689
vt 0.816556 0.436689
vt 0.846590 0.436689
vt 0.876623 0.436689
vt 0.786523 0.623377
vt 0.786523 0.593344
vt 0.786523 0.563311
vt 0.786523 0.533278
vt 0.653411 0.490265
vt 0.623377 0.490265
vt 0.623377 0.460232
vt 0.653411 0.460232
vt 0.623377 0.430199
vt 0.653411 0.430199
vt 0.623377 0.400165
vt 0.653411 0.400165
vt 0.623377 0.370132
vt 0.653411 0.370132
vt 0.623377 0.340099
vt 0.653411 0.340099
vt 0.623377 0.310066
vt 0.653411 0.310066
vt 0.623377 0.280033
vt 0.653411 0.280033
vt 0.623377 0.250000
vt 0.653411 0.250000
vt 0.593344 0.490265
vt 0.593344 0.460232
vt 0.593344 0.430199
vt 0.593344 0.400165
vt 0.593344 0.370132
vt 0.593344 0.340099
vt 0.593344 0.310066
vt 0.593344 0.280033
vt 0.593344 0.250000
vt 0.563311 0.490265
vt 0.563311 0.460232
vt 0.563311 0.430199
vt 0.563311 0.400165
vt 0.563311 0.370132
vt 0.563311 0.340099
vt 0.563311 0.310066
vt 0.563311 0.280033
vt 0.563311 0.250000
vt 0.533278 0.490265
vt 0.533278 0.460232
vt 0.533278 0.430199
vt 0.533278 0.400165
vt 0.533278 0.370132
vt 0.533278 0.340099
vt 0.533278 0.310066
vt 0.533278 0.280033
vt 0.533278 0.250000
vt 0.359570 0.966722
vt 0.329537 0.966722
vt 0.329537 0.936689
vt 0.359570 0.936689
vt 0.329537 0.906656
vt 0.359570 0.906656
vt 0.846589 0.430199
vt 0.816556 0.430199
vt 0.816556 0.400165
vt 0.846589 0.400165
vt 0.816556 0.370132
vt 0.846589 0.370132
vt 0.816556 0.340099
vt 0.846589 0.340099
vt 0.816556 0.310066
vt 0.846589 0.310066
vt 0.816556 0.280033
vt 0.846589 0.280033
vt 0.816556 0.250000
vt 0.846589 0.250000
vt 0.786523 0.430199
vt 0.786523 0.400165
vt 0.786523 0.370132
vt 0.786523 0.340099
vt 0.786523 0.310066
vt 0.786523 0.280033
vt 0.786523 0.250000
vt 0.183444 0.460232
vt 0.153411 0.460232
vt 0.153411 0.430199
vt 0.183444 0.430199
vt 0.153411 0.400165
vt 0.183444 0.400165
vt 0.153411 0.370132
vt 0.183444 0.370132
vt 0.153411 0.340099
vt 0.183444 0.340099
vt 0.153411 0.310066
vt 0.183444 0.310066
vt 0.153411 0.280033
vt 0.183444 0.280033
vt 0.593344 0.219967
vt 0.593344 0.189934
vt 0.623378 0.189934
vt 0.623378 0.219967
vt 0.629867 0.219967
vt 0.629867 0.189934
vt 0.659901 0.189934
vt 0.659901 0.219967
vt 0.123377 0.460232
vt 0.123377 0.430199
vt 0.123377 0.400165
vt 0.123377 0.370132
vt 0.123377 0.340099
vt 0.123377 0.310066
vt 0.123377 0.280033
vt 0.123377 0.490265
vt 0.093344 0.490265
vt 0.093344 0.460232
vt 0.093344 0.430199
vt 0.093344 0.400165
vt 0.093344 0.370132
vt 0.093344 0.340099
vt 0.093344 0.310066
vt 0.093344 0.280033
vt 0.093344 0.250000
vt 0.123377 0.250000
vt 0.063311 0.490265
vt 0.063311 0.460232
vt 0.063311 0.430199
vt 0.063311 0.400165
vt 0.063311 0.370132
vt 0.063311 0.340099
vt 0.063311 0.310066
vt 0.063311 0.280033
vt 0.063311 0.250000
vt 0.033278 0.490265
vt 0.033278 0.460232
vt 0.033278 0.430199
vt 0.033278 0.400165
vt 0.033278 0.370132
vt 0.033278 0.340099
vt 0.033278 0.310066
vt 0.033278 0.280033
vt 0.033278 0.250000
vt 0.003245 0.490265
vt 0.003245 0.460232
vt 0.003245 0.430199
vt 0.003245 0.400165
vt 0.003245 0.370132
vt 0.003245 0.340099
vt 0.003245 0.310066
vt 0.003245 0.280033
vt 0.003245 0.250000
vt 0.593344 0.683444
vt 0.593344 0.713477
vt 0.563311 0.713477
vt 0.563311 0.683444
vt 0.533278 0.713477
vt 0.533278 0.683444
vt 0.503245 0.713477
vt 0.503245 0.683444
vt 0.689934 0.683444
vt 0.689934 0.713477
vt 0.659901 0.713477
vt 0.659901 0.683444
vt 0.629867 0.713477
vt 0.629867 0.683444
vt 0.599834 0.713477
vt 0.599834 0.683444
vt 0.593344 0.743510
vt 0.563311 0.743510
vt 0.533278 0.743510
vt 0.503245 0.743510
vt 0.689934 0.743510
vt 0.659901 0.743510
vt 0.629867 0.743510
vt 0.599834 0.743510
vt 0.593344 0.773543
vt 0.563311 0.773543
vt 0.533278 0.773543
vt 0.503245 0.773543
vt 0.689934 0.773543
vt 0.659901 0.773543
vt 0.629867 0.773543
vt 0.599834 0.773543
vt 0.593344 0.803576
vt 0.563311 0.803576
vt 0.533278 0.803576
vt 0.503245 0.803576
vt 0.689934 0.803576
vt 0.659901 0.803576
vt 0.629867 0.803576
vt 0.599834 0.803576
vt 0.689934 0.496755
vt 0.719967 0.496755
vt 0.719967 0.526788
vt 0.689934 0.526788
vt 0.719967 0.556821
vt 0.689934 0.556821
vt 0.719967 0.586854
vt 0.689934 0.586854
vt 0.719967 0.616887
vt 0.689934 0.616887
vt 0.719967 0.646920
vt 0.689934 0.646920
vt 0.719967 0.676954
vt 0.689934 0.676954
vt 0.750000 0.496755
vt 0.750000 0.526788
vt 0.750000 0.556821
vt 0.750000 0.586854
vt 0.750000 0.616887
vt 0.750000 0.646920
vt 0.750000 0.676954
vt 0.780033 0.496755
vt 0.780033 0.526788
vt 0.780033 0.556821
vt 0.780033 0.586854
vt 0.780033 0.616887
vt 0.780033 0.646920
vt 0.780033 0.676954
vt 0.793013 0.683444
vt 0.823046 0.683444
vt 0.823046 0.713477
vt 0.793013 0.713477
vt 0.823046 0.743510
vt 0.793013 0.743510
vt 0.823046 0.773543
vt 0.793013 0.773543
vt 0.003245 0.810066
vt 0.033278 0.810066
vt 0.033278 0.840099
vt 0.003245 0.840099
vt 0.033278 0.870132
vt 0.003245 0.870132
vt 0.033278 0.900165
vt 0.003245 0.900165
vt 0.853079 0.683444
vt 0.853079 0.713477
vt 0.853079 0.743510
vt 0.853079 0.773543
vt 0.063311 0.810066
vt 0.063311 0.840099
vt 0.063311 0.870132
vt 0.063311 0.900165
vt 0.883113 0.683444
vt 0.883113 0.713477
vt 0.883113 0.743510
vt 0.883113 0.773543
vt 0.093344 0.810066
vt 0.093344 0.840099
vt 0.093344 0.870132
vt 0.093344 0.900165
vt 0.376622 0.250000
vt 0.406656 0.250000
vt 0.406656 0.280033
vt 0.376622 0.280033
vt 0.406656 0.310066
vt 0.376622 0.310066
vt 0.406656 0.340099
vt 0.376622 0.340099
vt 0.376622 0.400165
vt 0.406656 0.400165
vt 0.406656 0.430199
vt 0.376622 0.430199
vt 0.406656 0.460232
vt 0.376622 0.460232
vt 0.406656 0.490265
vt 0.376622 0.490265
vt 0.436689 0.250000
vt 0.436689 0.280033
vt 0.436689 0.460232
vt 0.436689 0.490265
vt 0.466722 0.250000
vt 0.466722 0.280033
vt 0.466722 0.460232
vt 0.466722 0.490265
vt 0.496755 0.250000
vt 0.496755 0.280033
vt 0.496755 0.460232
vt 0.496755 0.490265
vt 0.526788 0.250000
vt 0.526788 0.280033
vt 0.526788 0.310066
vt 0.496755 0.310066
vt 0.526788 0.340099
vt 0.496755 0.340099
vt 0.526788 0.370132
vt 0.496755 0.370132
vt 0.526788 0.400165
vt 0.496755 0.400165
vt 0.526788 0.430199
vt 0.496755 0.430199
vt 0.526788 0.460232
vt 0.526788 0.490265
vt 0.376622 0.496755
vt 0.406656 0.496755
vt 0.406656 0.526788
vt 0.376622 0.526788
vt 0.406656 0.556821
vt 0.376622 0.556821
vt 0.406656 0.586854
vt 0.376622 0.586854
vt 0.406656 0.616887
vt 0.376622 0.616887
vt 0.406656 0.646920
vt 0.376622 0.646920
vt 0.406656 0.676953
vt 0.376622 0.676953
vt 0.436689 0.496755
vt 0.436689 0.526788
vt 0.436689 0.556821
vt 0.436689 0.586854
vt 0.436689 0.616887
vt 0.436689 0.646920
vt 0.436689 0.676953
vt 0.466722 0.496755
vt 0.466722 0.526788
vt 0.466722 0.556821
vt 0.466722 0.616887
vt 0.466722 0.646920
vt 0.466722 0.676953
vt 0.496755 0.496755
vt 0.496755 0.526788
vt 0.496755 0.556821
vt 0.496755 0.616887
vt 0.496755 0.646920
vt 0.496755 0.676953
vt 0.526788 0.496755
vt 0.526788 0.526788
vt 0.526788 0.556821
vt 0.526788 0.586854
vt 0.496755 0.586854
vt 0.526788 0.616887
vt 0.526788 0.646920
vt 0.526788 0.676953
vt 0.245927 0.906656
vt 0.275960 0.906656
vt 0.275960 0.936689
vt 0.245927 0.936689
vt 0.275960 0.966722
vt 0.245927 0.966722
vt 0.943179 0.003245
vt 0.973212 0.003245
vt 0.973212 0.033278
vt 0.943179 0.033278
vt 0.973212 0.063311
vt 0.943179 0.063311
vt 0.973212 0.093344
vt 0.943179 0.093344
vt 0.973212 0.123377
vt 0.943179 0.123377
vt 0.973212 0.153411
vt 0.943179 0.153411
vt 0.973212 0.183444
vt 0.943179 0.183444
vt 0.979702 0.533278
vt 0.979702 0.563311
vt 0.949669 0.563311
vt 0.949669 0.533278
vt 0.986192 0.250000
vt 0.986192 0.280033
vt 0.956159 0.280033
vt 0.956159 0.250000
vt 0.979702 0.593344
vt 0.949669 0.593344
vt 0.986192 0.310066
vt 0.956159 0.310066
vt 0.979702 0.623377
vt 0.949669 0.623377
vt 0.986192 0.340099
vt 0.956159 0.340099
vt 0.775960 0.189934
vt 0.805994 0.189934
vt 0.805994 0.219967
vt 0.775960 0.219967
vt 0.816556 0.676953
vt 0.786523 0.676953
vt 0.786523 0.646920
vt 0.816556 0.646920
vt 0.739437 0.189934
vt 0.769470 0.189934
vt 0.769470 0.219967
vt 0.739437 0.219967
vt 0.666391 0.189934
vt 0.696424 0.189934
vt 0.696424 0.219967
vt 0.666391 0.219967
vt 0.732947 0.219967
vt 0.702914 0.219967
vt 0.702914 0.189934
vt 0.732947 0.189934
vt 0.346589 0.780033
vt 0.316556 0.780033
vt 0.316556 0.750000
vt 0.346589 0.750000
vt 0.069801 0.996755
vt 0.069801 0.966722
vt 0.099834 0.966722
vt 0.099834 0.996755
vt 0.069801 0.936689
vt 0.099834 0.936689
vt 0.069801 0.906656
vt 0.099834 0.906656
vt 0.696424 0.966722
vt 0.696424 0.936689
vt 0.726457 0.936689
vt 0.726457 0.966722
vt 0.696424 0.906656
vt 0.726457 0.906656
vt 0.696424 0.876623
vt 0.726457 0.876623
vt 0.129868 0.966722
vt 0.129868 0.996755
vt 0.129868 0.936689
vt 0.129868 0.906656
vt 0.756490 0.936689
vt 0.756490 0.966722
vt 0.756490 0.906656
vt 0.756490 0.876623
vt 0.762980 0.966722
vt 0.762980 0.936689
vt 0.793013 0.936689
vt 0.793013 0.966722
vt 0.762980 0.906656
vt 0.793013 0.906656
vt 0.762980 0.876623
vt 0.793013 0.876623
vt 0.003245 0.996755
vt 0.003245 0.966722
vt 0.033278 0.966722
vt 0.033278 0.996755
vt 0.003245 0.936689
vt 0.033278 0.936689
vt 0.003245 0.906656
vt 0.033278 0.906656
vt 0.823046 0.936689
vt 0.823046 0.966722
vt 0.823046 0.906656
vt 0.823046 0.876623
vt 0.063311 0.966722
vt 0.063311 0.996755
vt 0.063311 0.936689
vt 0.063311 0.906656
vt 0.099834 0.900165
vt 0.099834 0.870132
vt 0.129868 0.870132
vt 0.129868 0.900165
vt 0.099834 0.840099
vt 0.129868 0.840099
vt 0.099834 0.810066
vt 0.129868 0.810066
vt 0.793013 0.870132
vt 0.793013 0.840099
vt 0.823046 0.840099
vt 0.823046 0.870132
vt 0.793013 0.810066
vt 0.823046 0.810066
vt 0.793013 0.780033
vt 0.823046 0.780033
vt 0.159901 0.870132
vt 0.159901 0.900165
vt 0.159901 0.840099
vt 0.159901 0.810066
vt 0.853079 0.840099
vt 0.853079 0.870132
vt 0.853079 0.810066
vt 0.853079 0.780033
vt 0.189934 0.870132
vt 0.189934 0.900165
vt 0.189934 0.840099
vt 0.189934 0.810066
vt 0.883113 0.840099
vt 0.883113 0.870132
vt 0.883113 0.810066
vt 0.883113 0.780033
vt 0.436689 0.243510
vt 0.436689 0.213477
vt 0.466722 0.213477
vt 0.466722 0.243510
vt 0.436689 0.183444
vt 0.466722 0.183444
vt 0.436689 0.153411
vt 0.466722 0.153411
vt 0.436689 0.093344
vt 0.436689 0.063311
vt 0.466722 0.063311
vt 0.466722 0.093344
vt 0.436689 0.033278
vt 0.466722 0.033278
vt 0.436689 0.003245
vt 0.466722 0.003245
vt 0.496755 0.213477
vt 0.496755 0.243510
vt 0.496755 0.183444
vt 0.496755 0.153411
vt 0.466722 0.123377
vt 0.496755 0.123377
vt 0.496755 0.093344
vt 0.496755 0.063311
vt 0.496755 0.033278
vt 0.496755 0.003245
vt 0.526788 0.213477
vt 0.526788 0.243510
vt 0.526788 0.183444
vt 0.526788 0.153411
vt 0.526788 0.063311
vt 0.526788 0.093344
vt 0.526788 0.033278
vt 0.526788 0.003245
vt 0.556821 0.213477
vt 0.556821 0.243510
vt 0.556821 0.183444
vt 0.556821 0.153411
vt 0.556821 0.063311
vt 0.556821 0.093344
vt 0.556821 0.033278
vt 0.556821 0.003245
vt 0.586854 0.213477
vt 0.586854 0.243510
vt 0.586854 0.183444
vt 0.586854 0.153411
vt 0.556821 0.123377
vt 0.586854 0.123377
vt 0.586854 0.093344
vt 0.586854 0.063311
vt 0.586854 0.033278
vt 0.586854 0.003245
vt 0.293013 0.966722
vt 0.293013 0.936689
vt 0.323046 0.936689
vt 0.323046 0.966722
vt 0.293013 0.906656
vt 0.323046 0.906656
vt 0.250000 0.243510
vt 0.250000 0.213477
vt 0.280033 0.213477
vt 0.280033 0.243510
vt 0.250000 0.183444
vt 0.280033 0.183444
vt 0.250000 0.153411
vt 0.280033 0.153411
vt 0.250000 0.123377
vt 0.280033 0.123377
vt 0.250000 0.093344
vt 0.280033 0.093344
vt 0.250000 0.063311
vt 0.280033 0.063311
vt 0.250000 0.033278
vt 0.280033 0.033278
vt 0.250000 0.003245
vt 0.280033 0.003245
vt 0.310066 0.213477
vt 0.310066 0.243510
vt 0.310066 0.183444
vt 0.310066 0.153411
vt 0.310066 0.123377
vt 0.310066 0.093344
vt 0.310066 0.063311
vt 0.310066 0.033278
vt 0.310066 0.003245
vt 0.340099 0.213477
vt 0.340099 0.243510
vt 0.340099 0.183444
vt 0.340099 0.153411
vt 0.340099 0.123377
vt 0.340099 0.093344
vt 0.340099 0.063311
vt 0.340099 0.033278
vt 0.340099 0.003245
vt 0.370132 0.213477
vt 0.370132 0.243510
vt 0.370132 0.183444
vt 0.370132 0.153411
vt 0.370132 0.123377
vt 0.370132 0.093344
vt 0.370132 0.063311
vt 0.370132 0.033278
vt 0.370132 0.003245
vt 0.400165 0.213477
vt 0.400165 0.243510
vt 0.400165 0.183444
vt 0.400165 0.153411
vt 0.400165 0.123377
vt 0.400165 0.093344
vt 0.400165 0.063311
vt 0.400165 0.033278
vt 0.400165 0.003245
vt 0.430199 0.213477
vt 0.430199 0.243510
vt 0.430199 0.183444
vt 0.430199 0.153411
vt 0.430199 0.123377
vt 0.430199 0.093344
vt 0.430199 0.063311
vt 0.430199 0.033278
vt 0.430199 0.003245
s 1
usemtl Material.001
f 1/1/1 2/2/1 3/3/1 4/4/1
f 5/5/1 6/6/1 7/7/1 8/8/1
f 4/4/1 3/3/1 9/9/1 10/10/1
f 8/8/1 7/7/1 11/11/1 12/12/1
f 10/10/1 9/9/1 13/13/1 14/14/1
f 12/12/1 11/11/1 15/15/1 16/16/1
f 14/14/1 13/13/1 17/17/1 18/18/1
f 16/16/1 15/15/1 19/19/1 20/20/1
f 9/9/1 21/21/1 22/22/1 13/13/1
f 11/11/1 23/23/1 24/24/1 15/15/1
f 13/13/1 22/22/1 25/25/1 17/17/1
f 15/15/1 24/24/1 26/26/1 19/19/1
f 27/27/1 28/28/1 29/29/1 30/30/1
f 30/30/1 29/29/1 31/31/1 32/32/1
f 32/32/1 31/31/1 33/33/1 34/34/1
f 35/35/1 36/36/1 37/37/1 38/38/1
f 28/28/1 39/39/1 40/40/1 29/29/1
f 41/41/1 42/42/1 43/43/1 44/44/1
f 38/38/1 37/37/1 45/45/1 46/46/1
f 29/29/1 40/40/1 47/47/1 31/31/1
f 44/44/1 43/43/1 48/48/1 49/49/1
f 46/46/1 45/45/1 50/50/1 51/51/1
f 31/31/1 47/47/1 52/52/1 33/33/1
f 49/49/1 48/48/1 53/53/1 54/54/1
f 36/36/1 55/55/1 56/56/1 37/37/1
f 39/39/1 57/57/1 58/58/1 40/40/1
f 42/42/1 59/59/1 60/60/1 43/43/1
f 37/37/1 56/56/1 61/61/1 45/45/1
f 40/40/1 58/58/1 62/62/1 47/47/1
f 43/43/1 60/60/1 63/63/1 48/48/1
f 45/45/1 61/61/1 64/64/1 50/50/1
f 47/47/1 62/62/1 65/65/1 52/52/1
f 48/48/1 63/63/1 66/66/1 53/53/1
f 67/67/1 68/68/1 69/69/1 70/70/1
f 71/71/1 72/72/1 73/73/1 74/74/1
f 55/55/1 75/75/1 76/76/1 56/56/1
f 70/70/1 69/69/1 77/77/1 78/78/1
f 59/59/1 79/79/1 80/80/1 60/60/1
f 56/56/1 76/76/1 81/81/1 61/61/1
f 78/78/1 77/77/1 82/82/1 83/83/1
f 60/60/1 80/80/1 84/84/1 63/63/1
f 61/61/1 81/81/1 85/85/1 64/64/1
f 83/83/1 82/82/1 86/86/1 87/87/1
f 63/63/1 84/84/1 88/88/1 66/66/1
f 87/87/1 86/86/1 89/89/1 90/90/1
f 68/68/1 91/91/1 92/92/1 69/69/1
f 72/72/1 93/93/1 94/94/1 73/73/1
f 69/69/1 92/92/1 95/95/1 77/77/1
f 77/77/1 95/95/1 96/96/1 82/82/1
f 82/82/1 96/96/1 97/97/1 86/86/1
f 86/86/1 97/97/1 98/98/1 89/89/1
f 91/91/1 99/99/1 100/100/1 92/92/1
f 93/93/1 101/101/1 102/102/1 94/94/1
f 92/92/1 100/100/1 103/103/1 95/95/1
f 95/95/1 103/103/1 104/104/1 96/96/1
f 96/96/1 104/104/1 105/105/1 97/97/1
f 97/97/1 105/105/1 106/106/1 98/98/1
f 99/99/1 107/107/1 108/108/1 100/100/1
f 101/101/1 109/109/1 110/110/1 102/102/1
f 100/100/1 108/108/1 111/111/1 103/103/1
f 103/103/1 111/111/1 112/112/1 104/104/1
f 104/104/1 112/112/1 113/113/1 105/105/1
f 105/105/1 113/113/1 114/114/1 106/106/1
f 115/115/1 116/116/1 117/117/1 118/118/1
f 118/118/1 117/117/1 119/119/1 120/120/1
f 121/121/1 122/122/1 123/123/1 124/124/1
f 124/124/1 123/123/1 125/125/1 126/126/1
f 126/126/1 125/125/1 127/127/1 128/128/1
f 128/128/1 127/127/1 129/129/1 130/130/1
f 130/130/1 129/129/1 131/131/1 132/132/1
f 122/122/1 133/133/1 134/134/1 123/123/1
f 123/123/1 134/134/1 135/135/1 125/125/1
f 125/125/1 135/135/1 136/136/1 127/127/1
f 127/127/1 136/136/1 137/137/1 129/129/1
f 129/129/1 137/137/1 138/138/1 131/131/1
f 139/139/1 140/140/1 141/141/1 142/142/1
f 133/133/1 143/143/1 144/144/1 134/134/1
f 134/134/1 144/144/1 145/145/1 135/135/1
f 135/135/1 145/145/1 146/146/1 136/136/1
f 136/136/1 146/146/1 147/147/1 137/137/1
f 137/137/1 147/147/1 148/148/1 138/138/1
f 138/138/1 148/148/1 149/149/1 150/150/1
f 140/140/1 151/151/1 152/152/1 141/141/1
f 143/143/1 153/153/1 154/154/1 144/144/1
f 144/144/1 154/154/1 155/155/1 145/145/1
f 156/156/1 157/157/1 158/158/1 159/159/1
f 159/159/1 158/158/1 160/160/1 161/161/1
f 161/161/1 160/160/1 162/162/1 163/163/1
f 148/148/1 164/164/1 165/165/1 149/149/1
f 153/153/1 166/166/1 167/167/1 154/154/1
f 154/154/1 167/167/1 168/168/1 155/155/1
f 157/157/1 169/169/1 170/170/1 158/158/1
f 158/158/1 170/170/1 171/171/1 160/160/1
f 160/160/1 171/171/1 172/172/1 162/162/1
f 162/162/1 172/172/1 173/173/1 174/174/1
f 166/166/1 175/175/1 176/176/1 167/167/1
f 177/177/1 178/178/1 179/179/1 169/169/1
f 169/169/1 179/179/1 180/180/1 170/170/1
f 170/170/1 180/180/1 181/181/1 171/171/1
f 171/171/1 181/181/1 182/182/1 172/172/1
f 172/172/1 182/182/1 183/183/1 173/173/1
f 184/184/1 185/185/1 186/186/1 178/178/1
f 178/178/1 186/186/1 187/187/1 179/179/1
f 179/179/1 187/187/1 188/188/1 180/180/1
f 180/180/1 188/188/1 189/189/1 181/181/1
f 181/181/1 189/189/1 190/190/1 182/182/1
f 182/182/1 190/190/1 191/191/1 183/183/1
f 185/185/1 192/192/1 193/193/1 186/186/1
f 186/186/1 193/193/1 194/194/1 187/187/1
f 187/187/1 194/194/1 195/195/1 188/188/1
f 188/188/1 195/195/1 196/196/1 189/189/1
f 189/189/1 196/196/1 197/197/1 190/190/1
f 190/190/1 197/197/1 198/198/1 191/191/1
f 199/199/2 200/200/2 201/201/2 202/202/2
f 203/203/2 204/204/2 205/205/2 206/206/2
f 200/200/2 207/207/2 208/208/2 201/201/2
f 204/204/2 209/209/2 210/210/2 205/205/2
f 207/207/2 211/211/2 212/212/2 208/208/2
f 209/209/2 213/213/2 214/214/2 210/210/2
f 211/211/2 215/215/2 216/216/2 212/212/2
f 213/213/2 217/217/2 218/218/2 214/214/2
f 208/208/2 212/212/2 219/219/2 220/220/2
f 210/210/2 214/214/2 221/221/2 222/222/2
f 212/212/2 216/216/2 223/223/2 219/219/2
f 214/214/2 218/218/2 224/224/2 221/221/2
f 225/225/2 226/226/2 227/227/2 228/228/2
f 226/226/2 229/229/2 230/230/2 227/227/2
f 229/229/2 231/231/2 232/232/2 230/230/2
f 233/233/2 234/234/2 235/235/2 236/236/2
f 228/228/2 227/227/2 237/237/2 238/238/2
f 239/239/2 240/240/2 241/241/2 242/242/2
f 234/234/2 243/243/2 244/244/2 235/235/2
f 227/227/2 230/230/2 245/245/2 237/237/2
f 240/240/2 246/246/2 247/247/2 241/241/2
f 243/243/2 248/248/2 249/249/2 244/244/2
f 230/230/2 232/232/2 250/250/2 245/245/2
f 246/246/2 251/251/2 252/252/2 247/247/2
f 236/236/2 235/235/2 253/253/2 254/254/2
f 238/238/2 237/237/2 255/255/2 256/256/2
f 242/242/2 241/241/2 257/257/2 258/258/2
f 235/235/2 244/244/2 259/259/2 253/253/2
f 237/237/2 245/245/2 260/260/2 255/255/2
f 241/241/2 247/247/2 261/261/2 257/257/2
f 244/244/2 249/249/2 262/262/2 259/259/2
f 245/245/2 250/250/2 263/263/2 260/260/2
f 247/247/2 252/252/2 264/264/2 261/261/2
f 265/265/2 266/266/2 267/267/2 268/268/2
f 269/269/2 270/270/2 271/271/2 272/272/2
f 254/254/2 253/253/2 273/273/2 274/274/2
f 270/270/2 275/275/2 276/276/2 271/271/2
f 258/258/2 257/257/2 277/277/2 278/278/2
f 253/253/2 259/259/2 279/279/2 273/273/2
f 275/275/2 280/280/2 281/281/2 276/276/2
f 257/257/2 261/261/2 282/282/2 277/277/2
f 259/259/2 262/262/2 283/283/2 279/279/2
f 280/280/2 284/284/2 285/285/2 281/281/2
f 261/261/2 264/264/2 286/286/2 282/282/2
f 284/284/2 287/287/2 288/288/2 285/285/2
f 268/268/2 267/267/2 289/289/2 290/290/2
f 272/272/2 271/271/2 291/291/2 292/292/2
f 271/271/2 276/276/2 293/293/2 291/291/2
f 276/276/2 281/281/2 294/294/2 293/293/2
f 281/281/2 285/285/2 295/295/2 294/294/2
f 285/285/2 288/288/2 296/296/2 295/295/2
f 290/290/2 289/289/2 297/297/2 298/298/2
f 292/292/2 291/291/2 299/299/2 300/300/2
f 291/291/2 293/293/2 301/301/2 299/299/2
f 293/293/2 294/294/2 302/302/2 301/301/2
f 294/294/2 295/295/2 303/303/2 302/302/2
f 295/295/2 296/296/2 304/304/2 303/303/2
f 298/298/2 297/297/2 305/305/2 306/306/2
f 300/300/2 299/299/2 307/307/2 308/308/2
f 299/299/2 301/301/2 309/309/2 307/307/2
f 301/301/2 302/302/2 310/310/2 309/309/2
f 302/302/2 303/303/2 311/311/2 310/310/2
f 303/303/2 304/304/2 312/312/2 311/311/2
f 313/313/2 314/314/2 315/315/2 316/316/2
f 314/314/2 317/317/2 318/318/2 315/315/2
f 319/319/2 320/320/2 321/321/2 322/322/2
f 320/320/2 323/323/2 324/324/2 321/321/2
f 323/323/2 325/325/2 326/326/2 324/324/2
f 325/325/2 327/327/2 328/328/2 326/326/2
f 327/327/2 329/329/2 330/330/2 328/328/2
f 322/322/2 321/321/2 331/331/2 332/332/2
f 321/321/2 324/324/2 333/333/2 331/331/2
f 324/324/2 326/326/2 334/334/2 333/333/2
f 326/326/2 328/328/2 335/335/2 334/334/2
f 328/328/2 330/330/2 336/336/2 335/335/2
f 337/337/2 338/338/2 339/339/2 340/340/2
f 332/332/2 331/331/2 341/341/2 342/342/2
f 331/331/2 333/333/2 343/343/2 341/341/2
f 333/333/2 334/334/2 344/344/2 343/343/2
f 334/334/2 335/335/2 345/345/2 344/344/2
f 335/335/2 336/336/2 346/346/2 345/345/2
f 336/336/2 347/347/2 348/348/2 346/346/2
f 340/340/2 339/339/2 349/349/2 350/350/2
f 342/342/2 341/341/2 351/351/2 352/352/2
f 341/341/2 343/343/2 353/353/2 351/351/2
f 354/354/2 355/355/2 356/356/2 357/357/2
f 355/355/2 358/358/2 359/359/2 356/356/2
f 358/358/2 360/360/2 361/361/2 359/359/2
f 346/346/2 348/348/2 362/362/2 363/363/2
f 352/352/2 351/351/2 364/364/2 365/365/2
f 351/351/2 353/353/2 366/366/2 364/364/2
f 357/357/2 356/356/2 367/367/2 368/368/2
f 356/356/2 359/359/2 369/369/2 367/367/2
f 359/359/2 361/361/2 370/370/2 369/369/2
f 361/361/2 371/371/2 372/372/2 370/370/2
f 365/365/2 364/364/2 373/373/2 374/374/2
f 375/375/2 368/368/2 376/376/2 377/377/2
f 368/368/2 367/367/2 378/378/2 376/376/2
f 367/367/2 369/369/2 379/379/2 378/378/2
f 369/369/2 370/370/2 380/380/2 379/379/2
f 370/370/2 372/372/2 381/381/2 380/380/2
f 382/382/2 377/377/2 383/383/2 384/384/2
f 377/377/2 376/376/2 385/385/2 383/383/2
f 376/376/2 378/378/2 386/386/2 385/385/2
f 378/378/2 379/379/2 387/387/2 386/386/2
f 379/379/2 380/380/2 388/388/2 387/387/2
f 380/380/2 381/381/2 389/389/2 388/388/2
f 384/384/2 383/383/2 390/390/2 391/391/2
f 383/383/2 385/385/2 392/392/2 390/390/2
f 385/385/2 386/386/2 393/393/2 392/392/2
f 386/386/2 387/387/2 394/394/2 393/393/2
f 387/387/2 388/388/2 395/395/2 394/394/2
f 388/388/2 389/389/2 396/396/2 395/395/2
f 1/397/3 397/398/3 398/399/3 2/400/3
f 397/398/3 399/401/3 400/402/3 398/399/3
f 399/401/3 199/403/3 202/404/3 400/402/3
f 5/405/4 401/406/4 402/407/4 6/408/4
f 401/406/4 403/409/4 404/410/4 402/407/4
f 403/409/4 203/411/4 206/412/4 404/410/4
f 9/413/3 405/414/3 406/415/3 21/416/3
f 405/414/3 407/417/3 408/418/3 406/415/3
f 407/417/3 208/419/3 220/420/3 408/418/3
f 11/421/4 409/422/4 410/423/4 23/424/4
f 409/422/4 411/425/4 412/426/4 410/423/4
f 411/425/4 210/427/4 222/428/4 412/426/4
f 27/429/5 413/430/5 414/431/5 28/432/5
f 413/430/5 415/433/5 416/434/5 414/431/5
f 415/433/5 417/435/5 418/436/5 416/434/5
f 417/435/5 419/437/5 420/438/5 418/436/5
f 419/437/5 421/439/5 422/440/5 420/438/5
f 421/439/5 225/441/5 228/442/5 422/440/5
f 35/443/6 423/444/6 424/445/6 36/446/6
f 423/444/6 425/447/6 426/448/6 424/445/6
f 425/447/6 233/449/6 236/450/6 426/448/6
f 28/432/5 414/431/5 427/451/5 39/452/5
f 414/431/5 416/434/5 428/453/5 427/451/5
f 416/434/5 418/436/5 429/454/5 428/453/5
f 418/436/5 420/438/5 430/455/5 429/454/5
f 420/438/5 422/440/5 431/456/5 430/455/5
f 422/440/5 228/442/5 238/457/5 431/456/5
f 41/458/7 432/459/7 433/460/7 42/461/7
f 432/459/7 434/462/7 435/463/7 433/460/7
f 434/462/7 239/464/7 242/465/7 435/463/7
f 36/446/6 424/445/6 436/466/6 55/467/6
f 424/445/6 426/448/6 437/468/6 436/466/6
f 426/448/6 236/450/6 254/469/6 437/468/6
f 39/452/5 427/451/5 438/470/5 57/471/5
f 427/451/5 428/453/5 266/472/5 438/470/5
f 428/453/5 429/454/5 439/473/5 266/472/5
f 429/454/5 430/455/5 74/474/5 439/473/5
f 430/455/5 431/456/5 440/475/5 74/474/5
f 431/456/5 238/457/5 256/476/5 440/475/5
f 42/461/7 433/460/7 441/477/7 59/478/7
f 433/460/7 435/463/7 442/479/7 441/477/7
f 435/463/7 242/465/7 258/480/7 442/479/7
f 67/481/5 443/482/5 444/483/5 68/484/5
f 443/482/5 445/485/5 446/486/5 444/483/5
f 445/485/5 265/265/5 268/268/5 446/486/5
f 71/71/5 447/487/5 448/488/5 72/72/5
f 447/487/5 449/489/5 450/490/5 448/488/5
f 449/489/5 269/491/5 272/492/5 450/490/5
f 55/467/6 436/466/6 451/493/6 75/494/6
f 436/466/6 437/468/6 452/495/6 451/493/6
f 437/468/6 254/469/6 274/496/6 452/495/6
f 266/472/5 439/473/5 453/497/5 267/498/5
f 439/473/5 74/474/5 73/499/5 453/497/5
f 59/478/7 441/477/7 454/500/7 79/501/7
f 441/477/7 442/479/7 455/502/7 454/500/7
f 442/479/7 258/480/7 278/503/7 455/502/7
f 68/484/5 444/483/5 456/504/5 91/505/5
f 444/483/5 446/486/5 457/506/5 456/504/5
f 446/486/5 268/268/5 290/290/5 457/506/5
f 72/72/5 448/488/5 458/507/5 93/93/5
f 448/488/5 450/490/5 459/508/5 458/507/5
f 450/490/5 272/492/5 292/509/5 459/508/5
f 267/498/5 453/497/5 460/510/5 289/511/5
f 453/497/5 73/499/5 94/512/5 460/510/5
f 91/505/5 456/504/5 461/513/5 99/514/5
f 456/504/5 457/506/5 462/515/5 461/513/5
f 457/506/5 290/290/5 298/298/5 462/515/5
f 93/93/5 458/507/5 463/516/5 101/101/5
f 458/507/5 459/508/5 464/517/5 463/516/5
f 459/508/5 292/509/5 300/518/5 464/517/5
f 289/511/5 460/510/5 465/519/5 297/520/5
f 460/510/5 94/512/5 102/521/5 465/519/5
f 99/514/5 461/513/5 466/522/5 107/523/5
f 461/513/5 462/515/5 467/524/5 466/522/5
f 462/515/5 298/298/5 306/306/5 467/524/5
f 101/101/5 463/516/5 468/525/5 109/109/5
f 463/516/5 464/517/5 469/526/5 468/525/5
f 464/517/5 300/518/5 308/527/5 469/526/5
f 297/520/5 465/519/5 470/528/5 305/529/5
f 465/519/5 102/521/5 110/530/5 470/528/5
f 115/115/5 471/531/5 472/532/5 116/116/5
f 471/531/5 313/313/5 316/316/5 472/532/5
f 121/533/5 473/534/5 474/535/5 122/536/5
f 473/534/5 475/537/5 476/538/5 474/535/5
f 475/537/5 477/539/5 478/540/5 476/538/5
f 477/539/5 479/541/5 480/542/5 478/540/5
f 479/541/5 481/543/5 482/544/5 480/542/5
f 481/543/5 319/545/5 322/546/5 482/544/5
f 122/536/5 474/535/5 483/547/5 133/548/5
f 474/535/5 476/538/5 142/549/5 483/547/5
f 476/538/5 478/540/5 484/550/5 142/549/5
f 478/540/5 480/542/5 338/551/5 484/550/5
f 480/542/5 482/544/5 485/552/5 338/551/5
f 482/544/5 322/546/5 332/553/5 485/552/5
f 139/554/5 486/555/5 487/556/5 140/557/5
f 486/555/5 337/558/5 340/559/5 487/556/5
f 133/548/5 483/547/5 488/560/5 143/561/5
f 483/547/5 142/549/5 141/562/5 488/560/5
f 338/551/5 485/552/5 489/563/5 339/564/5
f 485/552/5 332/553/5 342/565/5 489/563/5
f 140/557/5 487/556/5 490/566/5 151/567/5
f 487/556/5 340/559/5 350/568/5 490/566/5
f 143/561/5 488/560/5 491/569/5 153/570/5
f 488/560/5 141/562/5 152/571/5 491/569/5
f 339/564/5 489/563/5 492/572/5 349/573/5
f 489/563/5 342/565/5 352/574/5 492/572/5
f 156/575/5 145/576/5 155/577/5 157/578/5
f 343/579/5 354/580/5 357/581/5 353/582/5
f 153/570/5 491/569/5 493/583/5 166/584/5
f 491/569/5 152/571/5 494/585/5 493/583/5
f 152/571/5 495/586/5 496/587/5 494/585/5
f 495/586/5 349/573/5 497/588/5 496/587/5
f 349/573/5 492/572/5 498/589/5 497/588/5
f 492/572/5 352/574/5 365/590/5 498/589/5
f 157/578/5 155/577/5 168/591/5 169/592/5
f 353/582/5 357/581/5 368/593/5 366/594/5
f 166/584/5 493/583/5 499/595/5 175/596/5
f 493/583/5 494/585/5 500/597/5 499/595/5
f 494/585/5 496/587/5 501/598/5 500/597/5
f 496/587/5 497/588/5 502/599/5 501/598/5
f 497/588/5 498/589/5 503/600/5 502/599/5
f 498/589/5 365/590/5 374/601/5 503/600/5
f 177/602/5 167/603/5 176/604/5 178/605/5
f 364/606/5 375/607/5 377/608/5 373/609/5
f 184/610/5 175/596/5 504/611/5 185/612/5
f 175/596/5 499/595/5 505/613/5 504/611/5
f 499/595/5 500/597/5 506/614/5 505/613/5
f 500/597/5 501/598/5 507/615/5 506/614/5
f 501/598/5 502/599/5 508/616/5 507/615/5
f 502/599/5 503/600/5 509/617/5 508/616/5
f 503/600/5 374/601/5 510/618/5 509/617/5
f 374/601/5 382/619/5 384/620/5 510/618/5
f 185/612/5 504/611/5 511/621/5 192/622/5
f 504/611/5 505/613/5 512/623/5 511/621/5
f 505/613/5 506/614/5 513/624/5 512/623/5
f 506/614/5 507/615/5 514/625/5 513/624/5
f 507/615/5 508/616/5 515/626/5 514/625/5
f 508/616/5 509/617/5 516/627/5 515/626/5
f 509/617/5 510/618/5 517/628/5 516/627/5
f 510/618/5 384/620/5 391/629/5 517/628/5
f 18/630/8 17/631/8 518/632/8 519/633/8
f 519/633/8 518/632/8 520/634/8 521/635/8
f 521/635/8 520/634/8 216/636/8 215/637/8
f 20/638/9 19/639/9 522/640/9 523/641/9
f 523/641/9 522/640/9 524/642/9 525/643/9
f 525/643/9 524/642/9 218/644/9 217/645/9
f 17/631/8 25/646/8 526/647/8 518/632/8
f 518/632/8 526/647/8 527/648/8 520/634/8
f 520/634/8 527/648/8 223/649/8 216/636/8
f 19/639/9 26/650/9 528/651/9 522/640/9
f 522/640/9 528/651/9 529/652/9 524/642/9
f 524/642/9 529/652/9 224/653/9 218/644/9
f 34/654/10 33/655/10 530/656/10 531/657/10
f 531/657/10 530/656/10 532/658/10 533/659/10
f 533/659/10 532/658/10 534/660/10 535/661/10
f 535/661/10 534/660/10 536/662/10 537/663/10
f 537/663/10 536/662/10 538/664/10 539/665/10
f 539/665/10 538/664/10 232/666/10 231/667/10
f 51/668/11 50/669/11 540/670/11 541/671/11
f 541/671/11 540/670/11 542/672/11 543/673/11
f 543/673/11 542/672/11 249/674/11 248/675/11
f 33/655/10 52/676/10 544/677/10 530/656/10
f 530/656/10 544/677/10 545/678/10 532/658/10
f 532/658/10 545/678/10 546/679/10 534/660/10
f 534/660/10 546/679/10 547/680/10 536/662/10
f 536/662/10 547/680/10 548/681/10 538/664/10
f 538/664/10 548/681/10 250/682/10 232/666/10
f 54/683/12 53/684/12 549/685/12 550/686/12
f 550/686/12 549/685/12 551/687/12 552/688/12
f 552/688/12 551/687/12 252/689/12 251/690/12
f 50/669/11 64/691/11 553/692/11 540/670/11
f 540/670/11 553/692/11 554/693/11 542/672/11
f 542/672/11 554/693/11 262/694/11 249/674/11
f 52/676/10 65/695/10 555/696/10 544/677/10
f 544/677/10 555/696/10 556/697/10 545/678/10
f 545/678/10 556/697/10 557/698/10 546/679/10
f 546/679/10 557/698/10 558/699/10 547/680/10
f 547/680/10 558/699/10 559/700/10 548/681/10
f 548/681/10 559/700/10 263/701/10 250/682/10
f 53/684/12 66/702/12 560/703/12 549/685/12
f 549/685/12 560/703/12 561/704/12 551/687/12
f 551/687/12 561/704/12 264/705/12 252/689/12
f 64/691/11 85/706/11 562/707/11 553/692/11
f 553/692/11 562/707/11 563/708/11 554/693/11
f 554/693/11 563/708/11 283/709/11 262/694/11
f 66/702/12 88/710/12 564/711/12 560/703/12
f 560/703/12 564/711/12 565/712/12 561/704/12
f 561/704/12 565/712/12 286/713/12 264/705/12
f 90/714/10 89/715/10 566/716/10 567/717/10
f 567/717/10 566/716/10 568/718/10 569/719/10
f 569/719/10 568/718/10 570/720/10 571/721/10
f 571/721/10 570/720/10 572/722/10 573/723/10
f 573/723/10 572/722/10 574/724/10 575/725/10
f 575/725/10 574/724/10 576/726/10 577/727/10
f 577/727/10 576/726/10 578/728/10 579/729/10
f 579/729/10 578/728/10 288/730/10 287/731/10
f 89/715/10 98/732/10 580/733/10 566/716/10
f 566/716/10 580/733/10 581/734/10 568/718/10
f 568/718/10 581/734/10 582/735/10 570/720/10
f 570/720/10 582/735/10 583/736/10 572/722/10
f 572/722/10 583/736/10 584/737/10 574/724/10
f 574/724/10 584/737/10 585/738/10 576/726/10
f 576/726/10 585/738/10 586/739/10 578/728/10
f 578/728/10 586/739/10 296/740/10 288/730/10
f 98/732/10 106/741/10 587/742/10 580/733/10
f 580/733/10 587/742/10 588/743/10 581/734/10
f 581/734/10 588/743/10 589/744/10 582/735/10
f 582/735/10 589/744/10 590/745/10 583/736/10
f 583/736/10 590/745/10 591/746/10 584/737/10
f 584/737/10 591/746/10 592/747/10 585/738/10
f 585/738/10 592/747/10 593/748/10 586/739/10
f 586/739/10 593/748/10 304/749/10 296/740/10
f 106/741/10 114/750/10 594/751/10 587/742/10
f 587/742/10 594/751/10 595/752/10 588/743/10
f 588/743/10 595/752/10 596/753/10 589/744/10
f 589/744/10 596/753/10 597/754/10 590/745/10
f 590/745/10 597/754/10 598/755/10 591/746/10
f 591/746/10 598/755/10 599/756/10 592/747/10
f 592/747/10 599/756/10 600/757/10 593/748/10
f 593/748/10 600/757/10 312/758/10 304/749/10
f 120/759/10 119/760/10 601/761/10 602/762/10
f 602/762/10 601/761/10 318/763/10 317/764/10
f 132/765/10 131/766/10 603/767/10 604/768/10
f 604/768/10 603/767/10 605/769/10 606/770/10
f 606/770/10 605/769/10 607/771/10 608/772/10
f 608/772/10 607/771/10 609/773/10 610/774/10
f 610/774/10 609/773/10 611/775/10 612/776/10
f 612/776/10 611/775/10 330/777/10 329/778/10
f 131/766/10 138/779/10 613/780/10 603/767/10
f 603/767/10 613/780/10 614/781/10 605/769/10
f 605/769/10 614/781/10 615/782/10 607/771/10
f 607/771/10 615/782/10 616/783/10 609/773/10
f 609/773/10 616/783/10 617/784/10 611/775/10
f 611/775/10 617/784/10 336/785/10 330/777/10
f 150/786/10 149/787/10 618/788/10 619/789/10
f 619/789/10 618/788/10 620/790/10 621/791/10
f 621/791/10 620/790/10 622/792/10 623/793/10
f 623/793/10 622/792/10 624/794/10 625/795/10
f 625/795/10 624/794/10 626/796/10 627/797/10
f 627/797/10 626/796/10 348/798/10 347/799/10
f 163/800/10 162/801/10 164/802/10 148/803/10
f 346/804/10 363/805/10 361/806/10 360/807/10
f 149/787/10 165/808/10 628/809/10 618/788/10
f 618/788/10 628/809/10 629/810/10 620/790/10
f 620/790/10 629/810/10 630/811/10 622/792/10
f 622/792/10 630/811/10 631/812/10 624/794/10
f 624/794/10 631/812/10 632/813/10 626/796/10
f 626/796/10 632/813/10 362/814/10 348/798/10
f 174/815/10 173/816/10 633/817/10 165/808/10
f 165/808/10 633/817/10 634/818/10 628/809/10
f 628/809/10 634/818/10 635/819/10 629/810/10
f 629/810/10 635/819/10 636/820/10 630/811/10
f 630/811/10 636/820/10 637/821/10 631/812/10
f 631/812/10 637/821/10 638/822/10 632/813/10
f 632/813/10 638/822/10 639/823/10 362/814/10
f 362/814/10 639/823/10 372/824/10 371/825/10
f 173/816/10 183/826/10 640/827/10 633/817/10
f 633/817/10 640/827/10 641/828/10 634/818/10
f 634/818/10 641/828/10 642/829/10 635/819/10
f 635/819/10 642/829/10 643/830/10 636/820/10
f 636/820/10 643/830/10 644/831/10 637/821/10
f 637/821/10 644/831/10 645/832/10 638/822/10
f 638/822/10 645/832/10 646/833/10 639/823/10
f 639/823/10 646/833/10 381/834/10 372/824/10
f 183/826/10 191/835/10 647/836/10 640/827/10
f 640/827/10 647/836/10 648/837/10 641/828/10
f 641/828/10 648/837/10 649/838/10 642/829/10
f 642/829/10 649/838/10 650/839/10 643/830/10
f 643/830/10 650/839/10 651/840/10 644/831/10
f 644/831/10 651/840/10 652/841/10 645/832/10
f 645/832/10 652/841/10 653/842/10 646/833/10
f 646/833/10 653/842/10 389/843/10 381/834/10
f 191/835/10 198/844/10 654/845/10 647/836/10
f 647/836/10 654/845/10 655/846/10 648/837/10
f 648/837/10 655/846/10 656/847/10 649/838/10
f 649/838/10 656/847/10 657/848/10 650/839/10
f 650/839/10 657/848/10 658/849/10 651/840/10
f 651/840/10 658/849/10 659/850/10 652/841/10
f 652/841/10 659/850/10 660/851/10 653/842/10
f 653/842/10 660/851/10 396/852/10 389/843/10
f 1/853/13 4/854/13 661/855/13 397/856/13
f 397/856/13 661/855/13 662/857/13 399/858/13
f 399/858/13 662/857/13 200/859/13 199/860/13
f 5/861/14 8/862/14 663/863/14 401/864/14
f 401/864/14 663/863/14 664/865/14 403/866/14
f 403/866/14 664/865/14 204/867/14 203/868/14
f 4/854/13 10/869/13 665/870/13 661/855/13
f 661/855/13 665/870/13 666/871/13 662/857/13
f 662/857/13 666/871/13 207/872/13 200/859/13
f 8/862/14 12/873/14 667/874/14 663/863/14
f 663/863/14 667/874/14 668/875/14 664/865/14
f 664/865/14 668/875/14 209/876/14 204/867/14
f 10/869/13 14/877/13 669/878/13 665/870/13
f 665/870/13 669/878/13 670/879/13 666/871/13
f 666/871/13 670/879/13 211/880/13 207/872/13
f 12/873/14 16/881/14 671/882/14 667/874/14
f 667/874/14 671/882/14 672/883/14 668/875/14
f 668/875/14 672/883/14 213/884/14 209/876/14
f 14/877/13 18/885/13 519/886/13 669/878/13
f 669/878/13 519/886/13 521/887/13 670/879/13
f 670/879/13 521/887/13 215/888/13 211/880/13
f 16/881/14 20/889/14 523/890/14 671/882/14
f 671/882/14 523/890/14 525/891/14 672/883/14
f 672/883/14 525/891/14 217/892/14 213/884/14
f 27/893/15 30/894/15 673/895/15 413/896/15
f 413/896/15 673/895/15 674/897/15 415/898/15
f 415/898/15 674/897/15 675/899/15 417/900/15
f 417/900/15 675/899/15 676/901/15 419/902/15
f 419/902/15 676/901/15 677/903/15 421/904/15
f 421/904/15 677/903/15 226/905/15 225/906/15
f 30/894/15 32/907/15 678/908/15 673/895/15
f 673/895/15 678/908/15 679/909/15 674/897/15
f 674/897/15 679/909/15 680/910/15 675/899/15
f 675/899/15 680/910/15 681/911/15 676/901/15
f 676/901/15 681/911/15 682/912/15 677/903/15
f 677/903/15 682/912/15 229/913/15 226/905/15
f 32/907/15 34/914/15 531/915/15 678/908/15
f 678/908/15 531/915/15 533/916/15 679/909/15
f 679/909/15 533/916/15 535/917/15 680/910/15
f 680/910/15 535/917/15 537/918/15 681/911/15
f 681/911/15 537/918/15 539/919/15 682/912/15
f 682/912/15 539/919/15 231/920/15 229/913/15
f 35/921/16 38/922/16 683/923/16 423/924/16
f 423/924/16 683/923/16 684/925/16 425/926/16
f 425/926/16 684/925/16 234/927/16 233/928/16
f 41/929/17 44/930/17 685/931/17 432/932/17
f 432/932/17 685/931/17 686/933/17 434/934/17
f 434/934/17 686/933/17 240/935/17 239/936/17
f 38/922/16 46/937/16 687/938/16 683/923/16
f 683/923/16 687/938/16 688/939/16 684/925/16
f 684/925/16 688/939/16 243/940/16 234/927/16
f 44/930/17 49/941/17 689/942/17 685/931/17
f 685/931/17 689/942/17 690/943/17 686/933/17
f 686/933/17 690/943/17 246/944/17 240/935/17
f 46/937/16 51/945/16 541/946/16 687/938/16
f 687/938/16 541/946/16 543/947/16 688/939/16
f 688/939/16 543/947/16 248/948/16 243/940/16
f 49/941/17 54/949/17 550/950/17 689/942/17
f 689/942/17 550/950/17 552/951/17 690/943/17
f 690/943/17 552/951/17 251/952/17 246/944/17
f 67/953/15 70/954/15 57/955/15 443/956/15
f 443/956/15 57/955/15 438/957/15 445/958/15
f 445/958/15 438/957/15 266/959/15 265/960/15
f 71/961/15 74/962/15 440/963/15 447/964/15
f 447/964/15 440/963/15 256/965/15 449/966/15
f 449/966/15 256/965/15 270/967/15 269/968/15
f 70/954/15 78/969/15 58/970/15 57/955/15
f 256/965/15 255/971/15 275/972/15 270/967/15
f 78/969/15 83/973/15 62/974/15 58/970/15
f 255/971/15 260/975/15 280/976/15 275/972/15
f 83/973/15 87/977/15 65/978/15 62/974/15
f 260/975/15 263/979/15 284/980/15 280/976/15
f 87/977/15 90/981/15 567/982/15 65/978/15
f 65/978/15 567/982/15 569/983/15 555/984/15
f 555/984/15 569/983/15 571/985/15 556/986/15
f 556/986/15 571/985/15 573/987/15 557/988/15
f 557/988/15 573/987/15 575/989/15 558/990/15
f 558/990/15 575/989/15 577/991/15 559/992/15
f 559/992/15 577/991/15 579/993/15 263/979/15
f 263/979/15 579/993/15 287/994/15 284/980/15
f 121/995/15 124/996/15 691/997/15 473/998/15
f 473/998/15 691/997/15 692/999/15 475/1000/15
f 475/1000/15 692/999/15 693/1001/15 477/1002/15
f 477/1002/15 693/1001/15 694/1003/15 479/1004/15
f 479/1004/15 694/1003/15 695/1005/15 481/1006/15
f 481/1006/15 695/1005/15 320/1007/15 319/1008/15
f 124/996/15 126/1009/15 696/1010/15 691/997/15
f 691/997/15 696/1010/15 116/1011/15 692/999/15
f 692/999/15 116/1011/15 472/1012/15 693/1001/15
f 693/1001/15 472/1012/15 316/1013/15 694/1003/15
f 694/1003/15 316/1013/15 697/1014/15 695/1005/15
f 695/1005/15 697/1014/15 323/1015/15 320/1007/15
f 126/1009/15 128/1016/15 698/1017/15 696/1010/15
f 696/1010/15 698/1017/15 117/1018/15 116/1011/15
f 316/1013/15 315/1019/15 699/1020/15 697/1014/15
f 697/1014/15 699/1020/15 325/1021/15 323/1015/15
f 128/1016/15 130/1022/15 700/1023/15 698/1017/15
f 698/1017/15 700/1023/15 119/1024/15 117/1018/15
f 315/1019/15 318/1025/15 701/1026/15 699/1020/15
f 699/1020/15 701/1026/15 327/1027/15 325/1021/15
f 130/1022/15 132/1028/15 604/1029/15 700/1023/15
f 700/1023/15 604/1029/15 606/1030/15 119/1024/15
f 119/1024/15 606/1030/15 608/1031/15 601/1032/15
f 601/1032/15 608/1031/15 610/1033/15 318/1025/15
f 318/1025/15 610/1033/15 612/1034/15 701/1026/15
f 701/1026/15 612/1034/15 329/1035/15 327/1027/15
f 139/1036/15 142/1037/15 484/1038/15 486/1039/15
f 486/1039/15 484/1038/15 338/1040/15 337/1041/15
f 138/1042/15 150/1043/15 619/1044/15 613/1045/15
f 613/1045/15 619/1044/15 621/1046/15 614/1047/15
f 614/1047/15 621/1046/15 623/1048/15 615/1049/15
f 615/1049/15 623/1048/15 625/1050/15 616/1051/15
f 616/1051/15 625/1050/15 627/1052/15 617/1053/15
f 617/1053/15 627/1052/15 347/1054/15 336/1055/15
f 156/1056/15 159/1057/15 146/1058/15 145/1059/15
f 343/1060/15 344/1061/15 355/1062/15 354/1063/15
f 159/1057/15 161/1064/15 147/1065/15 146/1058/15
f 344/1061/15 345/1066/15 358/1067/15 355/1062/15
f 161/1064/15 163/1068/15 148/1069/15 147/1065/15
f 345/1066/15 346/1070/15 360/1071/15 358/1067/15
f 162/1072/15 174/1073/15 165/1074/15 164/1075/15
f 363/1076/15 362/1077/15 371/1078/15 361/1079/15
f 177/1080/15 169/1081/15 168/1082/15 167/1083/15
f 364/1084/15 366/1085/15 368/1086/15 375/1087/15
f 184/1088/15 178/1089/15 176/1090/15 175/1091/15
f 374/1092/15 373/1093/15 377/1094/15 382/1095/15
f 2/1096/18 398/1097/18 702/1098/18 3/1099/18
f 398/1097/18 400/1100/18 703/1101/18 702/1098/18
f 400/1100/18 202/1102/18 201/1103/18 703/1101/18
f 6/1104/19 402/1105/19 704/1106/19 7/1107/19
f 402/1105/19 404/1108/19 705/1109/19 704/1106/19
f 404/1108/19 206/1110/19 205/1111/19 705/1109/19
f 3/1099/18 702/1098/18 405/1112/18 9/1113/18
f 702/1098/18 703/1101/18 407/1114/18 405/1112/18
f 703/1101/18 201/1103/18 208/1115/18 407/1114/18
f 7/1107/19 704/1106/19 409/1116/19 11/1117/19
f 704/1106/19 705/1109/19 411/1118/19 409/1116/19
f 705/1109/19 205/1111/19 210/1119/19 411/1118/19
f 21/1120/18 406/1121/18 706/1122/18 22/1123/18
f 406/1121/18 408/1124/18 707/1125/18 706/1122/18
f 408/1124/18 220/1126/18 219/1127/18 707/1125/18
f 23/1128/19 410/1129/19 708/1130/19 24/1131/19
f 410/1129/19 412/1132/19 709/1133/19 708/1130/19
f 412/1132/19 222/1134/19 221/1135/19 709/1133/19
f 22/1123/18 706/1122/18 526/1136/18 25/1137/18
f 706/1122/18 707/1125/18 527/1138/18 526/1136/18
f 707/1125/18 219/1127/18 223/1139/18 527/1138/18
f 24/1131/19 708/1130/19 528/1140/19 26/1141/19
f 708/1130/19 709/1133/19 529/1142/19 528/1140/19
f 709/1133/19 221/1135/19 224/1143/19 529/1142/19
f 75/1144/20 451/1145/20 710/1146/20 76/1147/20
f 451/1145/20 452/1148/20 711/1149/20 710/1146/20
f 452/1148/20 274/1150/20 273/1151/20 711/1149/20
f 79/1152/21 454/1153/21 712/1154/21 80/1155/21
f 454/1153/21 455/1156/21 713/1157/21 712/1154/21
f 455/1156/21 278/1158/21 277/1159/21 713/1157/21
f 76/1147/20 710/1146/20 714/1160/20 81/1161/20
f 710/1146/20 711/1149/20 715/1162/20 714/1160/20
f 711/1149/20 273/1151/20 279/1163/20 715/1162/20
f 80/1155/21 712/1154/21 716/1164/21 84/1165/21
f 712/1154/21 713/1157/21 717/1166/21 716/1164/21
f 713/1157/21 277/1159/21 282/1167/21 717/1166/21
f 81/1161/20 714/1160/20 562/1168/20 85/1169/20
f 714/1160/20 715/1162/20 563/1170/20 562/1168/20
f 715/1162/20 279/1163/20 283/1171/20 563/1170/20
f 84/1165/21 716/1164/21 564/1172/21 88/1173/21
f 716/1164/21 717/1166/21 565/1174/21 564/1172/21
f 717/1166/21 282/1167/21 286/1175/21 565/1174/21
f 107/1176/22 466/1177/22 718/1178/22 108/1179/22
f 466/1177/22 467/1180/22 719/1181/22 718/1178/22
f 467/1180/22 306/1182/22 305/1183/22 719/1181/22
f 109/1184/22 468/1185/22 720/1186/22 110/1187/22
f 468/1185/22 469/1188/22 721/1189/22 720/1186/22
f 469/1188/22 308/1190/22 307/1191/22 721/1189/22
f 108/1179/22 718/1178/22 722/1192/23 111/1193/24
f 718/1178/22 719/1181/22 723/1194/25 722/1192/23
f 719/1181/22 305/1183/22 115/1195/22 723/1194/25
f 305/1183/22 470/1196/22 471/1197/22 115/1195/22
f 470/1196/22 110/1187/22 313/1198/22 471/1197/22
f 110/1187/22 720/1186/22 724/1199/22 313/1198/22
f 720/1186/22 721/1189/22 725/1200/22 724/1199/22
f 721/1189/22 307/1191/22 309/1201/22 725/1200/22
f 111/1193/24 722/1192/23 726/1202/26 112/1203/27
f 722/1192/23 723/1194/25 727/1204/28 726/1202/26
f 723/1194/25 115/1195/22 118/1205/22 727/1204/28
f 313/1198/22 724/1199/22 728/1206/22 314/1207/22
f 724/1199/22 725/1200/22 729/1208/22 728/1206/22
f 725/1200/22 309/1201/22 310/1209/22 729/1208/22
f 112/1203/27 726/1202/26 730/1210/29 113/1211/30
f 726/1202/26 727/1204/28 731/1212/31 730/1210/29
f 727/1204/28 118/1205/22 120/1213/22 731/1212/31
f 314/1207/22 728/1206/22 732/1214/22 317/1215/22
f 728/1206/22 729/1208/22 733/1216/22 732/1214/22
f 729/1208/22 310/1209/22 311/1217/22 733/1216/22
f 113/1211/30 730/1210/29 594/1218/32 114/1219/33
f 730/1210/29 731/1212/31 595/1220/34 594/1218/32
f 731/1212/31 120/1213/22 596/1221/22 595/1220/34
f 120/1213/22 602/1222/22 597/1223/22 596/1221/22
f 602/1222/22 317/1215/22 598/1224/22 597/1223/22
f 317/1215/22 732/1214/22 599/1225/22 598/1224/22
f 732/1214/22 733/1216/22 600/1226/22 599/1225/22
f 733/1216/22 311/1217/22 312/1227/22 600/1226/22
f 151/1228/22 490/1229/22 495/1230/22 152/1231/22
f 490/1229/22 350/1232/22 349/1233/22 495/1230/22
f 192/1234/22 511/1235/22 734/1236/22 193/1237/22
f 511/1235/22 512/1238/22 735/1239/22 734/1236/22
f 512/1238/22 513/1240/22 736/1241/22 735/1239/22
f 513/1240/22 514/1242/22 737/1243/22 736/1241/22
f 514/1242/22 515/1244/22 738/1245/22 737/1243/22
f 515/1244/22 516/1246/22 739/1247/22 738/1245/22
f 516/1246/22 517/1248/22 740/1249/22 739/1247/22
f 517/1248/22 391/1250/22 390/1251/22 740/1249/22
f 193/1237/22 734/1236/22 741/1252/22 194/1253/22
f 734/1236/22 735/1239/22 742/1254/22 741/1252/22
f 735/1239/22 736/1241/22 743/1255/22 742/1254/22
f 736/1241/22 737/1243/22 744/1256/22 743/1255/22
f 737/1243/22 738/1245/22 745/1257/22 744/1256/22
f 738/1245/22 739/1247/22 746/1258/22 745/1257/22
f 739/1247/22 740/1249/22 747/1259/22 746/1258/22
f 740/1249/22 390/1251/22 392/1260/22 747/1259/22
f 194/1253/22 741/1252/22 748/1261/22 195/1262/22
f 741/1252/22 742/1254/22 749/1263/22 748/1261/22
f 742/1254/22 743/1255/22 750/1264/22 749/1263/22
f 743/1255/22 744/1256/22 751/1265/22 750/1264/22
f 744/1256/22 745/1257/22 752/1266/22 751/1265/22
f 745/1257/22 746/1258/22 753/1267/22 752/1266/22
f 746/1258/22 747/1259/22 754/1268/22 753/1267/22
f 747/1259/22 392/1260/22 393/1269/22 754/1268/22
f 195/1262/22 748/1261/22 755/1270/22 196/1271/22
f 748/1261/22 749/1263/22 756/1272/22 755/1270/22
f 749/1263/22 750/1264/22 757/1273/22 756/1272/22
f 750/1264/22 751/1265/22 758/1274/22 757/1273/22
f 751/1265/22 752/1266/22 759/1275/22 758/1274/22
f 752/1266/22 753/1267/22 760/1276/22 759/1275/22
f 753/1267/22 754/1268/22 761/1277/22 760/1276/22
f 754/1268/22 393/1269/22 394/1278/22 761/1277/22
f 196/1271/22 755/1270/22 762/1279/22 197/1280/22
f 755/1270/22 756/1272/22 763/1281/22 762/1279/22
f 756/1272/22 757/1273/22 764/1282/22 763/1281/22
f 757/1273/22 758/1274/22 765/1283/22 764/1282/22
f 758/1274/22 759/1275/22 766/1284/22 765/1283/22
f 759/1275/22 760/1276/22 767/1285/22 766/1284/22
f 760/1276/22 761/1277/22 768/1286/22 767/1285/22
f 761/1277/22 394/1278/22 395/1287/22 768/1286/22
f 197/1280/22 762/1279/22 654/1288/22 198/1289/22
f 762/1279/22 763/1281/22 655/1290/22 654/1288/22
f 763/1281/22 764/1282/22 656/1291/22 655/1290/22
f 764/1282/22 765/1283/22 657/1292/22 656/1291/22
f 765/1283/22 766/1284/22 658/1293/22 657/1292/22
f 766/1284/22 767/1285/22 659/1294/22 658/1293/22
f 767/1285/22 768/1286/22 660/1295/22 659/1294/22
f 768/1286/22 395/1287/22 396/1296/22 660/1295/22
